<svg width="246" height="163" viewBox="0 0 246 163" fill="none" xmlns="http://www.w3.org/2000/svg">
<path d="M188.608 105.73C187.798 104.3 186.628 103.01 185.418 101.87C175.218 92.27 164.958 82.72 154.728 73.15C147.258 66.16 139.878 59.08 132.308 52.22C127.068 47.47 118.448 47.62 113.138 52.28C110.788 54.34 108.488 56.46 106.208 58.6C93.4577 70.59 80.7177 82.59 67.9877 94.61C64.6677 97.74 61.2277 100.78 58.1577 104.16C54.0777 108.65 56.2277 115.58 62.0077 117.09C64.8577 117.83 67.3777 116.86 69.5477 115.07C71.1977 113.71 72.6777 112.13 74.4677 110.42C74.4677 120.44 74.4177 130.12 74.4977 139.79C74.4977 140.16 74.5077 162.52 74.5077 162.89H88.9477C88.9377 162.66 88.9377 140.43 88.9377 140.19C88.9077 132.49 88.9577 124.78 88.9177 117.08C88.9077 113.71 90.0477 111 92.5977 108.66C101.418 100.57 110.118 92.35 118.848 84.16C122.368 80.85 122.998 80.83 126.548 84.16C135.328 92.38 144.068 100.64 152.928 108.78C155.428 111.08 156.518 113.74 156.458 117.07C156.378 121.4 156.438 125.73 156.438 130.07H156.288C156.288 133.68 156.298 159.29 156.278 162.9H170.838C170.598 153.35 170.778 121.8 170.768 112.25V110.2C172.928 112.22 174.688 114.04 176.638 115.63C179.668 118.11 183.968 117.89 187.098 115.28C189.658 113.14 190.428 108.95 188.608 105.74V105.73Z" fill="#042638"/>
<path d="M163.358 64.52C168.678 61.25 173.468 58.15 178.398 55.29C188.118 49.65 197.968 44.22 207.678 38.56C219.278 31.8 229.278 23.12 237.758 12.71C238.248 12.1 238.738 11.49 239.248 10.89C240.398 9.54 241.388 7.64 243.588 8.5C245.728 9.34 245.868 11.45 245.908 13.39C246.028 19.78 244.758 25.92 242.278 31.81C236.598 45.29 226.298 54.03 213.078 59.43C206.588 62.08 199.758 63.88 193.088 66.07C192.138 66.38 191.188 66.66 190.238 66.96C190.228 67.16 190.208 67.35 190.198 67.55C192.388 68.14 194.558 68.91 196.788 69.29C203.378 70.41 210.028 70.95 216.708 70.44C224.828 69.81 232.718 68.07 240.258 64.91C240.538 64.79 240.828 64.72 241.098 64.58C243.698 63.23 245.598 65.01 245.028 67.74C244.508 70.22 243.648 72.78 242.348 74.93C236.318 84.88 227.348 90.62 215.898 92.4C212.948 92.86 209.918 93.01 206.918 92.98C203.938 92.95 200.958 92.53 197.828 92.26C199.948 95.29 202.738 97.4 205.998 98.88C212.478 101.82 219.288 102.48 226.258 101.37C228.968 100.94 231.588 99.97 234.268 99.38C235.108 99.19 236.488 99.1 236.838 99.56C237.318 100.19 237.448 101.62 237.048 102.31C235.248 105.41 233.458 108.58 231.208 111.36C224.958 119.08 216.848 123.23 206.768 123.11C205.478 123.1 204.188 122.92 202.328 122.78C203.418 123.73 204.068 124.41 204.838 124.93C207.228 126.55 209.668 128.09 212.068 129.69C214.568 131.36 214.578 133.22 211.988 134.82C208.208 137.17 204.058 138.54 199.628 139.01C196.018 139.39 192.428 139.36 188.908 138.26C184.378 136.84 183.188 135.19 183.308 130.19C184.168 129.95 185.078 129.7 185.988 129.44C194.188 127.1 199.678 121.99 201.408 113.52C202.758 106.88 201.068 100.7 196.508 95.75C191.958 90.81 186.898 86.33 181.998 81.71C176.618 76.63 171.178 71.62 165.748 66.59C165.088 65.98 164.378 65.42 163.358 64.54V64.52Z" fill="#17415F"/>
<path d="M55.2978 67.02C52.0878 66.11 48.8778 65.19 45.6578 64.28C34.9578 61.26 24.9478 56.87 16.4878 49.46C6.92775 41.09 1.38775 30.61 0.157752 17.93C-0.0422477 15.91 -0.0322477 13.86 0.0777523 11.83C0.157752 10.36 0.687752 8.91999 2.28775 8.41999C4.02775 7.87999 5.04775 9.05999 6.08775 10.21C10.0878 14.62 13.9778 19.13 18.1778 23.34C26.4478 31.63 36.3178 37.73 46.3978 43.55C57.5378 49.99 68.5778 56.59 79.6578 63.14C80.3278 63.53 80.9378 64.02 81.7578 64.58C77.4478 68.64 73.2077 72.59 69.0078 76.58C62.5578 82.71 55.9078 88.65 49.7478 95.05C38.4378 106.81 44.0778 125.51 59.9178 129.4C60.3278 129.5 60.7278 129.65 61.1378 129.7C62.3178 129.85 62.7278 130.38 62.4878 131.64C61.5478 136.56 59.7878 138.21 54.0678 138.97C47.5078 139.84 41.2578 138.75 35.3978 135.63C34.6578 135.24 33.9178 134.79 33.3078 134.23C31.5878 132.66 31.7678 131.11 33.7278 129.85C36.2578 128.23 38.7978 126.63 41.2978 124.96C42.0578 124.45 42.6778 123.72 43.5378 122.94C40.5378 122.94 37.8478 123.09 35.1878 122.91C28.7378 122.46 23.3678 119.52 18.6778 115.24C14.8678 111.76 11.8978 107.61 9.28775 103.18C9.10775 102.87 8.85775 102.53 8.85775 102.2C8.85775 101.3 8.63775 100.08 9.11775 99.59C9.59775 99.1 10.8778 99.1 11.7178 99.29C14.3978 99.89 17.0078 100.96 19.7078 101.35C28.5378 102.61 36.9878 101.66 44.3478 96.02C45.5978 95.06 46.5978 93.78 47.9678 92.38C43.7778 92.65 40.0978 93.19 36.4378 93.07C21.0778 92.59 9.39775 85.88 2.19775 72.07C1.46775 70.67 1.05775 69.01 0.887752 67.43C0.597752 64.69 2.18775 63.56 4.81775 64.44C8.74775 65.75 12.6078 67.29 16.5978 68.38C24.7378 70.61 33.0578 71.17 41.4278 70.16C45.6378 69.65 49.7978 68.73 53.9678 67.97C54.4278 67.89 54.8578 67.68 55.3078 67.53C55.3078 67.37 55.3078 67.2 55.3078 67.04L55.2978 67.02Z" fill="#17415F"/>
<path d="M121.778 0.01C135.798 0.13 148.638 1.11 161.208 4.33C165.238 5.36 169.158 6.74 172.528 9.29C177.898 13.34 177.628 19.63 171.948 23.29C167.828 25.95 163.178 27.16 158.468 28.19C149.638 30.13 140.688 31.01 131.668 31.19C126.978 31.28 122.288 31.54 117.598 31.39C105.408 30.99 93.2178 30.38 81.4678 26.71C78.6878 25.84 75.8878 24.65 73.5078 23.02C67.8478 19.12 68.1178 12.58 73.8778 8.77C78.0178 6.04 82.7278 4.73 87.4878 3.68C96.2878 1.75 105.188 0.48 114.218 0.33C117.098 0.28 119.978 0.08 121.768 0L121.778 0.01ZM82.7578 16.03C84.3278 17.88 86.3378 18.37 88.2878 18.82C98.2778 21.09 108.468 21.64 118.658 21.93C130.018 22.25 141.348 21.61 152.578 19.81C155.688 19.31 158.738 18.31 161.738 17.31C163.288 16.8 163.298 15.87 161.858 15.1C160.548 14.39 159.128 13.82 157.698 13.42C149.088 11.03 140.248 10.19 131.368 9.83C117.828 9.28 104.338 9.71 91.0378 12.69C88.1978 13.33 85.2678 13.84 82.7478 16.04L82.7578 16.03Z" fill="#17415F"/>
<path d="M120.748 120.27C120.748 121.53 120.778 122.8 120.748 124.06C120.688 125.88 119.688 127.3 117.918 127.45C114.998 127.69 112.038 127.76 109.108 127.63C107.278 127.55 106.028 125.91 105.988 124.03C105.938 121.57 105.948 119.1 106.008 116.64C106.058 114.45 107.538 112.86 109.708 112.77C112.288 112.67 114.878 112.68 117.458 112.74C119.268 112.78 120.578 114.09 120.698 115.95C120.788 117.39 120.718 118.83 120.718 120.28C120.738 120.28 120.748 120.28 120.768 120.28L120.748 120.27Z" fill="#042638"/>
<path d="M131.868 112.72C133.008 112.72 134.158 112.69 135.298 112.72C137.698 112.79 139.378 114.38 139.458 116.79C139.538 119.13 139.518 121.48 139.458 123.82C139.408 125.78 138.328 127.28 136.378 127.45C133.458 127.71 130.498 127.74 127.578 127.54C125.888 127.43 124.768 126.12 124.718 124.33C124.638 121.51 124.628 118.68 124.718 115.86C124.778 114.14 126.298 112.83 128.078 112.72C128.738 112.68 129.398 112.71 130.058 112.7C130.658 112.7 131.258 112.7 131.858 112.7L131.868 112.72Z" fill="#042638"/>
<path d="M131.868 131.67C133.188 131.67 134.518 131.57 135.818 131.69C137.968 131.9 139.358 133.31 139.448 135.45C139.538 137.78 139.528 140.13 139.418 142.46C139.308 144.76 138.018 146.18 135.728 146.33C133.158 146.5 130.568 146.51 127.998 146.39C126.018 146.3 124.818 145.01 124.718 143C124.598 140.37 124.578 137.72 124.628 135.09C124.668 133.12 125.888 131.92 127.898 131.74C129.208 131.62 130.528 131.61 131.848 131.55C131.848 131.59 131.848 131.62 131.848 131.66L131.868 131.67Z" fill="#042638"/>
<path d="M120.738 139.38C120.738 140.58 120.778 141.79 120.738 142.99C120.678 144.75 119.538 146.16 117.788 146.27C115.038 146.44 112.258 146.52 109.508 146.39C107.408 146.29 106.108 144.82 106.028 142.71C105.938 140.19 105.928 137.66 106.028 135.14C106.098 133.25 107.498 131.9 109.398 131.8C111.738 131.68 114.088 131.6 116.428 131.63C119.408 131.67 120.688 133 120.738 135.95C120.758 137.09 120.738 138.23 120.738 139.38Z" fill="#042638"/>
</svg>
