<svg width="300" height="300" viewBox="0 0 300 300" fill="none" xmlns="http://www.w3.org/2000/svg">
<rect width="300" height="300" fill="#A93339"/>
<g clip-path="url(#clip0_3133_204)">
<path d="M46.0348 177.075C49.5933 173.385 53.0954 169.77 56.5739 166.132C66.0226 156.264 75.4759 146.395 84.8868 136.493C85.6672 135.668 86.2266 135.574 87.2749 136.005C98.223 140.53 109.195 145.002 120.185 149.419C120.698 149.625 121.699 149.4 122.098 149.001C130.184 140.998 138.222 132.949 146.251 124.88C147.487 123.638 148.601 122.283 150.087 120.628C153.011 123.666 155.568 126.385 158.196 129.043C164.547 135.471 170.977 141.814 177.253 148.312C178.574 149.681 179.655 149.892 181.324 149.212C192.286 144.74 203.276 140.333 214.648 135.748C227.537 149.301 240.737 163.183 253.758 176.873C251.643 181.965 247.271 181.374 243.012 181.135V205.101C246.731 205.692 250.449 206.156 254.116 206.892C259.63 208.003 265.101 209.34 270.606 210.507C272.082 210.821 272.688 211.496 272.477 213.006C272.359 213.864 272.453 214.75 272.453 215.458C260.626 213.958 248.86 212.462 236.732 210.924C236.732 210.732 236.732 210.057 236.732 209.386C236.718 199.189 236.676 188.997 236.727 178.8C236.737 177.169 236.314 176.006 235.129 174.806C227.965 167.539 220.904 160.174 213.811 152.836C213.322 152.33 212.894 151.772 212.349 151.13C207.361 156.315 202.553 161.322 197.363 166.718C199.807 168.927 202.186 171.074 204.748 173.38C203.182 174.876 201.866 176.207 200.456 177.426C200.033 177.792 199.337 178.003 198.759 178.012C195.412 178.073 192.065 178.05 188.713 178.064C188.14 178.064 187.571 178.111 186.8 178.144V213.822H180.369C180.369 212.79 180.369 211.81 180.369 210.83C180.374 198.936 180.346 187.042 180.431 175.148C180.445 173.366 179.951 172.077 178.705 170.821C170.785 162.818 162.939 154.74 155.027 146.723C153.302 144.974 151.427 143.375 149.471 141.57C149.194 141.833 148.634 142.316 148.122 142.846C139.332 151.885 130.574 160.961 121.732 169.949C120.171 171.533 119.593 173.169 119.607 175.373C119.692 187.675 119.635 199.982 119.621 212.289C119.621 212.8 119.569 213.311 119.541 213.901H113.256V178.017C109.035 178.017 105.058 178.05 101.081 177.984C100.484 177.975 99.7508 177.656 99.323 177.239C98.1102 176.057 97.0196 174.749 95.7927 173.395C98.0256 171.06 100.193 168.791 102.534 166.343C97.5978 161.266 92.6385 156.17 87.8296 151.224C80.0215 159.292 72.3357 167.183 64.7345 175.162C64.067 175.861 63.6674 177.103 63.658 178.097C63.5264 188.524 63.4982 198.955 63.4418 209.382C63.4418 210.01 63.4418 210.634 63.4418 210.859C51.4031 212.396 39.6182 213.906 27.7298 215.425C27.8098 215.566 27.711 215.467 27.7016 215.364C27.3021 211.074 27.2739 210.938 31.4247 210.104C39.5759 208.463 47.7694 207 55.9299 205.411C56.4094 205.317 57.1615 204.75 57.1662 204.398C57.2368 196.737 57.2227 189.077 57.2227 181.224C55.3705 181.224 53.6783 181.116 52.0048 181.257C50.5146 181.383 49.4193 180.966 48.5074 179.789C47.7976 178.875 46.9467 178.073 46.0254 177.075H46.0348ZM149.828 135.279C150.36 135.945 150.651 136.39 151.022 136.765C162.596 148.411 174.24 159.991 185.695 171.749C187.604 173.709 189.442 173.432 192.084 173.198C177.779 158.767 163.78 144.641 149.701 130.436C135.674 144.773 121.91 158.847 108.095 172.968C111.023 173.985 112.969 173.123 114.746 171.102C116.946 168.594 119.41 166.32 121.751 163.934C131.02 154.477 140.29 145.016 149.833 135.279H149.828ZM101.913 155.771C105.401 156.793 108.682 157.759 111.963 158.72C105.561 155.457 98.2277 153.666 94.1521 147.046C98.8905 148.744 103.709 150.474 108.532 152.199C108.56 152.114 108.593 152.03 108.621 151.946C101.42 148.594 94.2179 145.246 86.786 141.786C76.2844 152.883 65.5478 164.234 54.5573 175.846C56.5128 176.025 57.8056 176.826 59.3427 175.167C66.676 167.253 74.2066 159.531 81.6621 151.73C83.6693 149.63 85.6484 147.511 87.8672 145.157C94.1051 151.51 100.216 157.726 106.435 164.06C107.15 163.408 107.681 162.921 108.01 162.616C105.975 160.328 104.047 158.162 101.913 155.767V155.771ZM212.612 144.791C213.2 145.71 213.449 146.273 213.849 146.695C222.813 156.137 231.834 165.528 240.728 175.035C242.138 176.545 243.327 176.545 245.302 175.575C234.443 164.112 223.748 152.818 213.383 141.875C205.251 145.588 197.645 149.062 190.044 152.536C190.067 152.602 190.091 152.668 190.119 152.733C195.45 150.849 200.78 148.964 206.238 147.032C204.503 148.856 203.112 150.736 201.316 152.096C199.478 153.488 197.278 154.435 195.177 155.462C193.203 156.428 191.153 157.234 189.136 158.115C189.174 158.209 189.216 158.303 189.254 158.397C192.22 157.586 195.186 156.779 198.237 155.945C196.155 158.144 194.171 160.239 192.107 162.415C192.841 162.968 193.348 163.348 193.837 163.713C199.972 157.539 206.036 151.43 212.617 144.801L212.612 144.791Z" fill="white"/>
<path d="M58.1535 159.794C57.2039 160.849 56.527 161.749 55.6903 162.457C55.2296 162.846 54.4634 163.137 53.8758 163.08C51.2621 162.832 48.6626 162.438 46.0583 162.1C45.9925 162.246 45.922 162.396 45.8562 162.541C48.1173 163.507 50.3831 164.473 52.7946 165.509C51.6993 166.69 50.6416 167.909 49.4805 169.02C49.2032 169.288 48.4369 169.409 48.1267 169.222C45.8374 167.834 43.4494 166.536 41.3998 164.838C39.402 163.179 39.3973 161.646 40.6524 158.983C37.7896 157.482 34.7952 155.963 34.029 152.489C33.7469 151.21 34.3815 149.733 34.6401 148.064C33.5683 147.074 32.0265 145.809 30.682 144.365C28.9991 142.555 28.2141 140.422 28.9662 137.89C29.079 137.506 28.8722 136.859 28.5808 136.549C26.597 134.44 25.9953 131.894 26 128.804C39.6888 137.731 54.9193 142.344 70.4743 146.582C69.3367 147.89 68.3354 149.18 67.1743 150.305C66.8265 150.642 65.9756 150.703 65.435 150.567C55.3377 148.082 45.3861 145.157 35.9328 140.75C35.7448 140.661 35.5332 140.623 35.27 140.717C43.9853 146.578 53.73 150.202 63.738 153.558C62.7697 154.665 61.994 155.687 61.0633 156.54C60.7295 156.85 59.9868 156.901 59.4838 156.807C51.5019 155.326 43.7408 153.127 36.4311 149.498C42.7396 154.66 50.1997 157.482 58.1535 159.789V159.794Z" fill="white"/>
<path d="M229.925 146.667C245.504 142.696 260.457 137.881 274 128.879C273.944 131.805 273.412 134.196 271.523 136.08C270.883 136.718 270.568 137.192 270.94 138.162C271.795 140.389 270.775 142.26 269.478 144.013C268.256 145.668 267.024 147.318 265.562 149.297C267.189 152.635 265.628 155.377 258.962 158.917C260.875 161.186 260.955 163.226 258.581 165.124C256.518 166.775 254.017 167.9 251.657 169.152C251.3 169.339 250.477 169.119 250.148 168.805C249.231 167.928 248.461 166.897 247.506 165.776C249.927 164.665 252.169 163.634 254.416 162.607C254.374 162.471 254.337 162.335 254.294 162.199C252.202 162.443 250.082 162.541 248.028 162.958C245.297 163.512 243.708 162.25 242.523 160.075C246.11 158.645 249.758 157.398 253.227 155.753C256.696 154.107 259.982 152.072 263.348 150.206C263.268 150.033 263.193 149.864 263.113 149.691C262.93 149.709 262.718 149.676 262.568 149.752C255.789 153.282 248.545 155.377 241.066 156.784C239.962 156.99 239.162 156.911 238.504 155.907C238.034 155.19 237.395 154.585 236.812 153.905C241.696 151.974 246.491 150.267 251.116 148.186C255.719 146.118 260.151 143.68 264.659 141.406C264.565 141.224 264.476 141.036 264.382 140.853C261.468 142.025 258.614 143.399 255.625 144.337C248.691 146.512 241.696 148.476 234.73 150.539C233.761 150.825 233.075 150.619 232.468 149.77C231.735 148.744 230.87 147.806 229.935 146.667H229.925Z" fill="white"/>
<path d="M164.439 181.28V213.808H158.901V186.794H141.358V213.789H135.745V181.28H164.439Z" fill="white"/>
<path d="M98.4016 119.615C101.25 119.109 103.065 117.618 103.601 114.622C104.165 117.552 106.017 119.015 108.927 119.517C104.771 120.956 104.79 121.486 103.455 124.758C102.994 121.791 101.274 120.192 98.4063 119.615H98.4016Z" fill="#99A1A6"/>
<path d="M151.76 174.834V165.935H159.695V174.834H151.76Z" fill="white"/>
<path d="M140.258 165.851H148.282V174.871H140.258V165.851Z" fill="white"/>
<path d="M206.515 204.332H198.778V195.092H206.515V204.332Z" fill="white"/>
<path d="M101.608 195.078V204.3H94.0205V195.078H101.608Z" fill="white"/>
<path d="M72.585 195.022H80.2567V204.267H72.585V195.022Z" fill="white"/>
<path d="M227.909 204.318H220.34V195.087H227.909V204.318Z" fill="white"/>
<path d="M217.2 204.309H209.797V195.078H217.2V204.309Z" fill="white"/>
<path d="M192.531 119.601C195.262 118.996 196.949 117.501 197.443 114.65C198.021 117.463 199.713 119.067 202.534 119.568C199.77 120.225 197.979 121.786 197.372 124.936C196.902 121.837 195.248 120.243 192.531 119.601Z" fill="#99A1A6"/>
<path d="M90.7489 195.031V204.281H83.4062V195.031H90.7489Z" fill="white"/>
<path d="M80.219 192.152H72.552V183.263H80.219V192.152Z" fill="white"/>
<path d="M93.9783 183.221H101.561V192.105H93.9783V183.221Z" fill="white"/>
<path d="M206.492 192.152H198.782V183.263H206.492V192.152Z" fill="white"/>
<path d="M217.28 183.216V192.073H209.801V183.216H217.28Z" fill="white"/>
<path d="M220.317 183.231H227.937V192.101H220.317V183.231Z" fill="white"/>
<path d="M83.4109 183.198H90.7018V192.077H83.4109V183.198Z" fill="white"/>
<path d="M148.343 162.541H140.197C140.079 162.391 139.962 162.246 139.844 162.096C142.589 159.062 145.339 156.029 148.343 152.71V162.541Z" fill="white"/>
<path d="M151.756 152.865C154.699 156.057 157.472 159.058 160.241 162.063C160.128 162.218 160.01 162.377 159.898 162.532H151.756V152.86V152.865Z" fill="white"/>
<path d="M84.2146 173.16C85.2723 172.387 85.9633 171.885 86.9129 171.191C85.9257 170.619 85.1595 170.174 84.2193 169.63C85.277 168.5 86.3723 167.333 87.6462 165.978C88.9107 167.178 90.0295 168.242 91.2517 169.4C90.0953 169.991 89.2539 170.417 88.2056 170.952C89.0893 171.702 89.7803 172.283 90.7581 173.113C89.6816 174.131 88.6239 175.884 87.6509 175.837C86.5039 175.786 85.4274 174.177 84.2193 173.16H84.2146Z" fill="white"/>
<path d="M212.255 171.074C211.226 170.563 210.403 170.15 209.28 169.588C210.267 168.598 211.174 167.567 212.222 166.714C212.495 166.493 213.365 166.653 213.703 166.939C214.582 167.689 215.32 168.608 216.124 169.47C215.221 169.996 214.385 170.478 213.383 171.06C214.309 171.824 215.047 172.438 215.781 173.048C213.101 176.456 212.73 177.122 209.867 172.93C210.572 172.382 211.287 171.824 212.255 171.069V171.074Z" fill="white"/>
<path d="M143.877 191.594H147.483V196.723H143.877V191.594Z" fill="white"/>
<path d="M152.357 196.714V191.66H155.972V196.714H152.357Z" fill="white"/>
<path d="M149.828 135.279C140.281 145.021 131.016 154.477 121.746 163.934C119.405 166.32 116.942 168.594 114.742 171.102C112.97 173.123 111.019 173.985 108.09 172.968C121.906 158.847 135.67 144.773 149.697 130.436C163.78 144.646 177.779 158.767 192.079 173.198C189.437 173.432 187.604 173.713 185.691 171.749C174.235 159.991 162.591 148.411 151.018 136.765C150.646 136.39 150.35 135.945 149.824 135.279H149.828Z" fill="#99A1A6"/>
<path d="M101.913 155.771C104.047 158.167 105.975 160.333 108.01 162.621C107.681 162.921 107.15 163.408 106.435 164.065C100.216 157.731 94.1052 151.51 87.8672 145.162C85.6485 147.515 83.6647 149.634 81.6622 151.735C74.2067 159.531 66.676 167.258 59.3428 175.171C57.8056 176.831 56.5129 176.034 54.5574 175.851C65.5478 164.234 76.2845 152.888 86.786 141.791C94.218 145.251 101.42 148.598 108.621 151.95C108.593 152.035 108.56 152.119 108.532 152.203C103.714 150.478 98.8953 148.748 94.1522 147.051C98.2325 153.671 105.561 155.462 111.964 158.725C108.682 157.764 105.401 156.798 101.913 155.776V155.771Z" fill="#99A1A6"/>
<path d="M212.612 144.791C206.031 151.421 199.967 157.529 193.833 163.704C193.344 163.333 192.836 162.954 192.103 162.405C194.166 160.23 196.15 158.134 198.233 155.935C195.182 156.765 192.216 157.576 189.249 158.387C189.212 158.294 189.169 158.2 189.132 158.106C191.148 157.229 193.198 156.418 195.172 155.452C197.274 154.426 199.469 153.483 201.312 152.086C203.103 150.731 204.499 148.847 206.233 147.023C200.776 148.954 195.445 150.839 190.114 152.724C190.091 152.658 190.067 152.593 190.039 152.527C197.645 149.053 205.251 145.579 213.379 141.866C223.739 152.808 234.438 164.102 245.297 175.565C243.323 176.54 242.133 176.536 240.723 175.026C231.829 165.518 222.808 156.132 213.844 146.685C213.444 146.263 213.195 145.696 212.608 144.782L212.612 144.791Z" fill="#99A1A6"/>
<path d="M104.484 97.1959C104.484 97.1959 104.461 97.2334 104.423 97.3131C104.456 97.2756 104.489 97.2334 104.522 97.1959H104.484Z" fill="white"/>
<path d="M104.522 97.1959C104.484 97.2334 104.456 97.2756 104.423 97.3131C104.461 97.2334 104.484 97.1959 104.484 97.1959H104.522Z" fill="white"/>
<path d="M199.741 97.0786C199.224 96.2488 198.547 95.5315 197.833 94.8986C196.841 94.0688 195.769 93.314 194.655 92.681C192.869 91.6918 191.003 90.8573 189.094 90.1447C183.293 88.0068 177.337 86.7785 171.259 85.9065C168.796 85.5502 166.333 85.2736 163.832 85.0766C160.894 84.8375 157.951 84.6406 155.013 84.5609C149.415 84.4437 143.811 84.4812 138.213 84.9172C135.909 85.1142 133.564 85.3157 131.26 85.5924C128.477 85.9487 125.737 86.3472 122.996 86.9004C119.221 87.6552 115.527 88.5647 111.912 89.8306C109.411 90.7401 106.948 91.7715 104.682 93.1592C103.568 93.8344 102.538 94.6267 101.622 95.5362C101.025 96.1691 100.47 96.8442 100.07 97.6366C99.2384 99.2212 99.1961 100.806 99.9905 102.39C100.348 103.183 100.902 103.858 101.499 104.491C102.454 105.443 103.526 106.235 104.64 106.947C106.228 107.937 107.935 108.729 109.684 109.442C113.773 111.106 118.065 112.217 122.437 113.084C127.678 114.153 133.004 114.786 138.326 115.185C142.218 115.504 146.11 115.621 150.402 115.621L150.439 115.504C152.428 115.541 154.769 115.424 157.152 115.344C160.17 115.264 163.23 115.025 166.248 114.711C169.308 114.392 172.364 113.999 175.387 113.445C179.039 112.77 182.616 111.978 186.151 110.872C189.052 109.962 191.872 108.888 194.495 107.426C195.689 106.751 196.879 105.958 197.913 105.049C198.59 104.453 199.224 103.741 199.741 102.948C200.935 101.007 200.935 99.0243 199.741 97.0833V97.0786ZM104.423 97.3131C104.461 97.2334 104.484 97.1959 104.484 97.1959H104.522C104.484 97.2334 104.456 97.2756 104.423 97.3131ZM191.595 100.998C191.195 101.631 190.641 102.147 190.044 102.583C189.249 103.178 188.417 103.614 187.543 104.05C185.874 104.842 184.125 105.438 182.339 105.954C179.359 106.826 176.341 107.421 173.323 107.937C170.465 108.41 167.602 108.729 164.744 109.006C162.558 109.203 160.335 109.324 158.149 109.442C155.324 109.634 152.461 109.639 149.25 109.639C146.392 109.718 143.134 109.601 139.914 109.399C136.657 109.24 133.399 108.926 130.141 108.527C126.686 108.091 123.269 107.538 119.894 106.746C117.51 106.193 115.207 105.518 112.941 104.608C112.067 104.252 111.272 103.895 110.478 103.417C109.961 103.098 109.444 102.742 108.969 102.386C108.532 102.029 108.137 101.631 107.817 101.195C107.023 100.084 107.023 98.9352 107.817 97.7866C108.137 97.2709 108.612 96.8771 109.087 96.4785C109.919 95.8456 110.793 95.3299 111.747 94.8939C113.891 93.9047 116.119 93.1921 118.422 92.5967C121.44 91.8418 124.5 91.2511 127.561 90.8151C131.415 90.2197 135.308 89.8634 139.237 89.6243C143.727 89.3477 148.254 89.268 152.743 89.3477C156.555 89.4274 160.368 89.5868 164.185 89.9431C167.997 90.2619 171.772 90.7354 175.546 91.448C179.161 92.1231 182.734 92.953 186.194 94.3407C187.148 94.7392 188.102 95.1705 188.977 95.6862C189.574 96.0425 190.128 96.3988 190.645 96.8771C191.003 97.2334 191.322 97.5897 191.6 97.9882C192.197 98.9774 192.234 100.009 191.6 100.998H191.595Z" fill="white"/>
</g>
<defs>
<clipPath id="clip0_3133_204">
<rect width="248" height="131" fill="white" transform="translate(26 84.5)"/>
</clipPath>
</defs>
</svg>
