<svg width="486" height="505" viewBox="0 0 486 505" fill="none" xmlns="http://www.w3.org/2000/svg">
<path d="M151.234 476.684C223.45 514.439 340.549 514.439 412.765 476.684C484.98 438.929 484.98 377.733 412.765 339.978C340.549 302.224 223.45 302.237 151.234 339.978C79.0186 377.719 79.0186 438.876 151.234 476.684Z" fill="#F5F5F5"/>
<path d="M199.673 323.155C199.338 322.699 199.526 292.127 189.167 283.037C178.808 273.948 169.671 281.158 175.668 292.046C179.694 299.23 190.817 311.944 190.831 324.122L199.673 323.155Z" fill="black"/>
<path opacity="0.6" d="M199.673 323.155C199.338 322.699 199.526 292.127 189.167 283.037C178.808 273.948 169.671 281.158 175.668 292.046C179.694 299.23 190.817 311.944 190.831 324.122L199.673 323.155Z" fill="white"/>
<path d="M196.037 323.867C195.9 323.867 195.768 323.817 195.666 323.725C195.564 323.633 195.5 323.506 195.487 323.37C192.374 294.06 180.647 283.561 180.526 283.454C180.415 283.357 180.348 283.221 180.338 283.075C180.328 282.929 180.376 282.785 180.472 282.675C180.568 282.565 180.704 282.497 180.85 282.487C180.996 282.477 181.14 282.525 181.25 282.621C181.747 283.051 193.434 293.456 196.587 323.249C196.602 323.397 196.559 323.544 196.466 323.66C196.373 323.775 196.238 323.85 196.091 323.867H196.037Z" fill="white"/>
<path d="M197.674 355.512C193.877 338.26 188.456 328.244 167 317.194C147.236 307.003 130.235 296.235 150 292.328C166.41 289.079 197.996 315.153 199.123 337.978L197.674 355.512Z" fill="black"/>
<path d="M195.567 333.829C195.455 333.831 195.345 333.799 195.251 333.737C195.157 333.674 195.085 333.585 195.044 333.48C188.563 316.187 167.859 299.458 149.919 296.947C149.774 296.924 149.644 296.845 149.556 296.727C149.469 296.609 149.43 296.462 149.45 296.316C149.46 296.243 149.484 296.173 149.521 296.11C149.558 296.047 149.608 295.992 149.666 295.948C149.725 295.905 149.792 295.873 149.863 295.855C149.934 295.838 150.008 295.835 150.08 295.846C168.409 298.41 189.476 315.462 196.091 333.09C196.138 333.229 196.13 333.382 196.067 333.514C196.005 333.647 195.893 333.751 195.755 333.802L195.567 333.829Z" fill="white"/>
<path d="M355.617 381.68C355.054 382.432 354.96 384.164 354.383 386.513C353.799 388.241 353.666 390.09 353.994 391.884C355.343 394.136 357.48 395.807 359.992 396.57C363.078 397.536 366.875 396.731 370.551 394.529C374.228 392.327 377.006 389.655 382.252 388.165C387.498 386.674 390.102 385.48 392.584 383.466C395.496 381.129 399.373 374.685 393.818 373.195C388.263 371.704 376.174 376.967 365.184 377.451L355.617 381.68Z" fill="#A93339"/>
<path d="M355.617 374.806V383.05C355.95 383.978 356.536 384.795 357.309 385.408C358.082 386.02 359.012 386.403 359.991 386.513C360.895 386.658 361.821 386.561 362.675 386.232C364.009 385.718 365.166 384.829 366.004 383.67C366.843 382.512 367.327 381.135 367.398 379.706L367.72 374.806H355.617Z" fill="#FFA8A7"/>
<path d="M371.343 323.893C371.41 334.138 368.472 378.417 368.472 378.417C368.472 378.417 364.285 383.721 355.188 378.417L352.088 328.995L371.343 323.893Z" fill="black"/>
<path opacity="0.5" d="M371.343 323.893C371.41 334.138 368.472 378.417 368.472 378.417C368.472 378.417 364.285 383.721 355.188 378.417L352.088 328.995L371.343 323.893Z" fill="black"/>
<path d="M344.775 416.83C345.929 408.277 354.799 392.193 370.028 385.399C385.258 378.605 403.68 380.525 407.182 383.479C410.685 386.433 411.597 392.609 404.271 394.596C396.945 396.583 391.188 399.966 395.724 403.793C400.259 407.619 401.668 412.896 394.248 414.333C386.827 415.769 378.065 410.479 375.999 415.205C373.933 419.931 378.294 423.556 370.028 425.262C361.763 426.967 351.605 420.576 345.876 430.001L344.775 416.83Z" fill="black"/>
<path d="M345.272 423.301C345.201 423.314 345.128 423.314 345.057 423.301C344.99 423.273 344.929 423.232 344.877 423.181C344.826 423.129 344.786 423.068 344.758 423C344.731 422.933 344.717 422.861 344.718 422.788C344.718 422.715 344.733 422.643 344.762 422.576C356.06 395.724 388.719 383.64 400.111 384.365C400.258 384.376 400.395 384.443 400.493 384.554C400.591 384.664 400.642 384.809 400.634 384.956C400.631 385.029 400.613 385.102 400.581 385.168C400.55 385.234 400.505 385.294 400.45 385.343C400.395 385.391 400.33 385.429 400.261 385.452C400.191 385.476 400.117 385.485 400.044 385.48C391 384.929 357.549 395.12 345.782 423.006C345.733 423.098 345.66 423.175 345.57 423.228C345.479 423.28 345.376 423.305 345.272 423.301Z" fill="white"/>
<path d="M389.994 406.868C389.919 406.88 389.842 406.88 389.766 406.868C389.618 406.787 374.282 399.993 360.112 403.175C360.042 403.193 359.968 403.196 359.896 403.185C359.825 403.173 359.756 403.147 359.694 403.108C359.633 403.069 359.58 403.018 359.539 402.958C359.498 402.898 359.469 402.831 359.455 402.759C359.439 402.689 359.437 402.616 359.449 402.544C359.462 402.473 359.488 402.405 359.527 402.344C359.605 402.221 359.728 402.133 359.871 402.101C374.402 398.839 390.075 405.78 390.222 405.847C390.343 405.896 390.442 405.985 390.503 406.1C390.564 406.214 390.582 406.347 390.555 406.474C390.527 406.601 390.456 406.714 390.354 406.793C390.251 406.873 390.124 406.913 389.994 406.908V406.868Z" fill="white"/>
<path d="M263.999 282.527L216.003 310.252L330.002 376.108L366.003 355.311L377.998 348.383L263.999 282.527Z" fill="black"/>
<path d="M377.999 348.383V355.324L341.998 376.122L341.985 369.18L377.999 348.383Z" fill="black"/>
<path opacity="0.2" d="M377.999 348.383V355.324L341.998 376.122L341.985 369.18L377.999 348.383Z" fill="black"/>
<path d="M269.138 317.194C269.138 317.194 311.177 304.493 318.476 302.492C325.776 300.492 339.811 297.122 343.904 298.961C347.996 300.8 350.076 302.922 350.451 308.843C350.532 309.957 350.451 315.368 350.451 315.368C350.451 315.368 330.137 321.651 313.498 321.651C296.86 321.651 269.138 317.194 269.138 317.194Z" fill="black"/>
<path opacity="0.6" d="M269.138 317.194C269.138 317.194 311.177 304.493 318.476 302.492C325.776 300.492 339.811 297.122 343.904 298.961C347.996 300.8 350.076 302.922 350.451 308.843C350.532 309.957 350.451 315.368 350.451 315.368C350.451 315.368 330.137 321.651 313.498 321.651C296.86 321.651 269.138 317.194 269.138 317.194Z" fill="black"/>
<path d="M305.072 245.713L302.281 260.79L286.823 262.576L289.051 241.765L305.072 245.713Z" fill="#FFA8A7"/>
<path d="M319.482 233.669C319.482 233.669 321.509 239.886 320.891 240.275C319.781 240.511 318.64 240.574 317.51 240.463L319.482 233.669Z" fill="#F28F8F"/>
<path d="M315.457 213.731C318.141 216.537 320.65 221.223 319.483 233.105C318.262 246.129 314.37 249.606 312.774 250.358C310.318 251.499 302.039 249.512 299.275 247.512C295.894 245.014 289.507 238.785 287.843 231.118C285.884 222.096 288.393 211.838 294.981 209.757C304.32 206.817 313.257 211.355 315.457 213.731Z" fill="#FFA8A7"/>
<path d="M321.589 220.136C320.006 223.116 317.027 230.541 308.56 232.635C308.56 232.635 308.091 227.587 303.904 227.533C299.718 227.48 298.295 232.649 300.375 236.247C302.455 239.845 305.071 239.026 305.071 239.026C305.071 239.026 304.642 246.129 299.53 248.666C299.53 248.666 293.371 251.472 287.762 247.888C285.24 246.276 282.315 239.281 280.812 233.669C277.618 221.8 278.195 212.711 285.736 210.845C287.319 205.863 289.882 204.266 294.619 203.957C304.843 203.272 311.445 210.845 319.939 210.845C324.367 210.845 323.387 216.739 321.589 220.136Z" fill="#A93339"/>
<path d="M285.937 211.704L280.812 209.502C280.955 209.166 281.164 208.862 281.425 208.606C281.686 208.351 281.995 208.15 282.334 208.014C282.673 207.878 283.035 207.81 283.4 207.814C283.765 207.819 284.126 207.895 284.461 208.039C284.797 208.182 285.101 208.391 285.356 208.652C285.612 208.913 285.813 209.222 285.949 209.561C286.084 209.9 286.152 210.263 286.148 210.628C286.144 210.994 286.068 211.355 285.924 211.69L285.937 211.704Z" fill="#A93339"/>
<path d="M269.246 312.132C269.246 320.188 268.481 328.619 271.849 334.54C275.217 340.461 290.473 352.652 307.648 349.752C318.865 347.859 355.134 334.03 355.134 334.03C355.134 334.03 371.236 328.109 371.343 323.893C371.45 317.664 371.021 308.91 356.946 309.286C344.118 309.621 306.051 315.865 306.051 315.865L269.246 312.132Z" fill="black"/>
<path opacity="0.5" d="M269.246 312.132C269.246 320.188 268.481 328.619 271.849 334.54C275.217 340.461 290.473 352.652 307.648 349.752C318.865 347.859 355.134 334.03 355.134 334.03C355.134 334.03 371.236 328.109 371.343 323.893C371.45 317.664 371.021 308.91 356.946 309.286C344.118 309.621 306.051 315.865 306.051 315.865L269.246 312.132Z" fill="black"/>
<path d="M272.238 259.904C273.58 255.688 278.947 251.096 284.314 252.09C294.149 253.916 304.911 257.111 307.755 257.944C307.755 257.944 306.413 279.641 317.591 286.139L319.053 313.757C319.053 313.757 316.302 319.248 312.062 321.96C307.46 324.874 301.073 329.264 289.52 328.297C285.523 327.982 281.638 326.824 278.121 324.898C274.603 322.973 271.533 320.324 269.111 317.127C269.111 317.127 269.246 291.026 269.688 279.345C270.091 269.49 271.285 262.804 272.238 259.904Z" fill="black"/>
<path opacity="0.2" d="M272.238 259.904C273.58 255.688 278.947 251.096 284.314 252.09C294.149 253.916 304.911 257.111 307.755 257.944C307.755 257.944 306.413 279.641 317.591 286.139L319.053 313.757C319.053 313.757 316.302 319.248 312.062 321.96C307.46 324.874 301.073 329.264 289.52 328.297C285.523 327.982 281.638 326.824 278.121 324.898C274.603 322.973 271.533 320.324 269.111 317.127C269.111 317.127 269.246 291.026 269.688 279.345C270.091 269.49 271.285 262.804 272.238 259.904Z" fill="black"/>
<path d="M317.899 291.55C317.899 291.55 312.089 285.521 310.05 278.526C310.05 278.526 310.05 288.757 318.02 294.289L317.899 291.55Z" fill="black"/>
<path opacity="0.4" d="M317.899 291.55C317.899 291.55 312.089 285.521 310.05 278.526C310.05 278.526 310.05 288.757 318.02 294.289L317.899 291.55Z" fill="black"/>
<path d="M356.1 271.733L362.34 262.764C362.34 262.764 363.829 260.602 364.379 259.703C364.929 258.803 365.305 255.796 363.467 255.03C360.139 253.688 353.215 250.371 351.189 250.358C350.357 250.358 346.882 256.185 340.925 264.039C337.355 268.739 332.431 275.264 332.431 275.841C332.431 276.418 331.156 277.009 336.336 279.654C340.048 281.478 343.892 283.022 347.835 284.273L356.1 271.733Z" fill="black"/>
<path opacity="0.6" d="M356.1 271.733L362.34 262.764C362.34 262.764 363.829 260.602 364.379 259.703C364.929 258.803 365.305 255.796 363.467 255.03C360.139 253.688 353.215 250.371 351.189 250.358C350.357 250.358 346.882 256.185 340.925 264.039C337.355 268.739 332.431 275.264 332.431 275.841C332.431 276.418 331.156 277.009 336.336 279.654C340.048 281.478 343.892 283.022 347.835 284.273L356.1 271.733Z" fill="black"/>
<path d="M360.072 261.998C356.248 267.503 348.09 281.117 347.848 281.493C347.607 281.869 335.772 276.754 332.592 275.371C332.513 275.518 332.459 275.677 332.431 275.841C332.431 276.405 331.156 277.009 336.336 279.654C340.048 281.478 343.892 283.022 347.835 284.273L356.1 271.733L362.34 262.764C362.34 262.764 363.829 260.602 364.379 259.703C364.929 258.803 365.305 255.796 363.467 255.03C363.829 255.218 363.883 256.494 360.072 261.998Z" fill="#A93339"/>
<path d="M349.982 253.218L361.79 258.011L348.613 278.164L336.845 273.115L349.982 253.218Z" fill="black"/>
<path opacity="0.8" d="M349.982 253.218L361.79 258.011L348.613 278.164L336.845 273.115L349.982 253.218Z" fill="white"/>
<path d="M307.782 257.944C313.847 259.77 317.55 260.105 324.259 270.43C330.968 280.755 345.661 301.23 347.07 303.7C349.096 307.124 349.968 311.192 348.224 314.347C346.587 317.274 341.837 315.999 335.182 310.145C328.741 304.493 315.994 288.515 315.994 288.515C311.795 278.775 309.029 268.478 307.782 257.944Z" fill="#FFA8A7"/>
<path d="M346.788 315.865C349.861 314.978 354.49 303.553 358.033 290.596C361.575 277.64 363.4 274.753 363.4 270.672C363.4 266.59 363.212 261.381 363.212 261.381L357.147 270.121C356.904 268.408 356.387 266.744 355.617 265.194C354.839 263.596 353.377 262.348 352.182 263.301C351.538 263.811 353.229 265.986 352.867 270.914C352.76 272.877 352.881 274.846 353.229 276.781L341.931 304.144L346.788 315.865Z" fill="#FFA8A7"/>
<path d="M307.782 257.944C310.792 258.583 313.732 259.518 316.557 260.737C319.285 261.81 321.605 263.718 323.186 266.188C327.882 273.988 334.591 285.092 334.591 285.092C334.591 285.092 335.745 294.759 324.004 298.142L317.752 291.429C315.197 288.695 313.099 285.567 311.539 282.165C308.896 276.311 305.877 267.074 307.782 257.944Z" fill="black"/>
<path opacity="0.2" d="M307.782 257.944C310.792 258.583 313.732 259.518 316.557 260.737C319.285 261.81 321.605 263.718 323.186 266.188C327.882 273.988 334.591 285.092 334.591 285.092C334.591 285.092 335.745 294.759 324.004 298.142L317.752 291.429C315.197 288.695 313.099 285.567 311.539 282.165C308.896 276.311 305.877 267.074 307.782 257.944Z" fill="black"/>
<path d="M323.602 129.79L198.398 57.4633C195.245 55.6373 192.629 56.7651 192.105 59.9471C192.397 57.9487 193.109 56.0349 194.194 54.3316C195.279 52.6284 196.712 51.1744 198.398 50.0654L203.605 47.0445C205.586 46.0385 207.777 45.5142 209.998 45.5142C212.22 45.5142 214.411 46.0385 216.392 47.0445L341.609 119.372C343.493 120.56 345.048 122.204 346.131 124.151L328.124 134.557C327.051 132.605 325.493 130.964 323.602 129.79Z" fill="black"/>
<path d="M347.996 427.651C347.877 429.872 347.235 432.032 346.122 433.957C345.01 435.882 343.459 437.517 341.595 438.728L336.389 441.776C334.585 442.681 332.61 443.195 330.593 443.283C328.577 443.371 326.565 443.031 324.689 442.286C327.708 443.427 330.056 441.722 330.056 438.07V140.867C329.976 138.642 329.329 136.475 328.177 134.57L346.184 124.165C347.331 126.076 347.973 128.247 348.049 130.475L347.996 427.651Z" fill="#A93339"/>
<path d="M323.602 129.79L198.398 57.4633C194.87 55.4225 192.011 57.0739 192.011 61.1555V358.332C192.132 360.55 192.774 362.709 193.883 364.633C194.993 366.557 196.54 368.193 198.398 369.408L323.602 441.776C327.144 443.803 329.989 442.152 329.989 438.07V140.867C329.871 138.648 329.231 136.488 328.121 134.563C327.011 132.638 325.463 131.003 323.602 129.79ZM323.991 395.939C323.991 398.396 322.287 399.389 320.153 398.154L201.847 329.801C200.717 329.069 199.779 328.079 199.109 326.911C198.439 325.743 198.058 324.433 197.996 323.088V103.26C197.996 100.803 199.713 99.8096 201.847 101.045L206.557 103.73L320.153 169.371C321.281 170.103 322.218 171.094 322.885 172.262C323.553 173.43 323.932 174.74 323.991 176.084V395.939Z" fill="black"/>
<path d="M260.994 104.898C261.65 105.322 262.197 105.896 262.589 106.573C262.981 107.25 263.207 108.011 263.248 108.792C263.248 110.228 262.241 110.819 260.994 110.134C260.341 109.707 259.797 109.132 259.408 108.456C259.019 107.779 258.794 107.02 258.753 106.241C258.753 104.777 259.759 104.173 260.994 104.898Z" fill="#A93339"/>
<path d="M260.994 374.537C263.571 376.23 265.715 378.506 267.251 381.182C268.787 383.857 269.672 386.856 269.836 389.937C269.836 395.603 265.811 397.912 260.953 395.066C258.369 393.379 256.218 391.108 254.675 388.434C253.132 385.761 252.24 382.762 252.071 379.679C252.111 374 256.096 371.704 260.994 374.537Z" fill="#A93339"/>
<path d="M282.247 127.776C283.557 128.629 284.647 129.779 285.431 131.132C286.214 132.484 286.668 134.003 286.756 135.564C286.756 138.437 284.73 139.592 282.247 138.168C280.939 137.313 279.85 136.16 279.069 134.805C278.288 133.45 277.837 131.93 277.752 130.368C277.752 127.495 279.765 126.34 282.247 127.776Z" fill="#A93339"/>
<path d="M271.245 126.796C271.245 128.716 269.823 129.482 268.051 128.421L238.451 111.316C237.53 110.739 236.758 109.951 236.2 109.018C235.643 108.084 235.315 107.031 235.244 105.945C235.244 104.025 236.68 103.26 238.451 104.321L268.051 121.426C268.972 122.002 269.742 122.79 270.298 123.724C270.853 124.658 271.178 125.712 271.245 126.796Z" fill="#A93339"/>
<path d="M216.003 109.221L201.834 101.045C199.714 99.8096 197.996 100.803 197.996 103.26V323.155C198.058 324.498 198.439 325.807 199.106 326.975C199.773 328.142 200.708 329.133 201.834 329.868L216.003 338.058V109.221Z" fill="#A93339"/>
<g opacity="0.15">
<path d="M323.991 176.044V372.644L206.557 304.828V103.757L320.154 169.398C321.273 170.124 322.204 171.104 322.871 172.259C323.538 173.415 323.922 174.711 323.991 176.044Z" fill="white"/>
</g>
<path d="M207.295 105.046L319.791 170.042C320.792 170.708 321.624 171.596 322.225 172.637C322.825 173.678 323.177 174.844 323.253 176.044V371.369L207.295 304.385V105.046ZM206.557 103.703V304.828L323.991 372.658V176.044C323.932 174.7 323.553 173.39 322.886 172.222C322.218 171.054 321.281 170.063 320.154 169.331L206.557 103.69V103.703Z" fill="white"/>
<path d="M324.004 395.939V379.585L216.003 317.194L199.123 326.928C199.757 328.1 200.681 329.089 201.807 329.801L320.14 398.154C322.273 399.389 324.004 398.396 324.004 395.939Z" fill="black"/>
<path d="M324.004 386.513L288.004 407.311V400.383L324.004 379.585V386.513Z" fill="black"/>
<path opacity="0.2" d="M324.004 386.513L288.004 407.311V400.383L324.004 379.585V386.513Z" fill="black"/>
<path d="M174.004 334.527L288.004 400.383V407.311L174.004 341.455V334.527Z" fill="black"/>
<path opacity="0.2" d="M174.004 334.527L288.004 400.383V407.311L174.004 341.455V334.527Z" fill="black"/>
<path d="M216.003 310.252L174.004 334.527L288.004 400.383L324.004 379.585V372.644L216.003 310.252Z" fill="black"/>
<path d="M216.003 310.252L174.004 334.527L288.004 400.383L324.004 379.585V372.644L216.003 310.252Z" fill="black"/>
<path d="M217.049 255.42C213.48 255.42 210.756 255.635 204.168 265.194C198.586 273.25 180.324 298.518 179.238 299.713C178.151 300.908 187.476 305.164 187.476 305.164L212.138 280.366L217.049 255.42Z" fill="#FFA8A7"/>
<path d="M182.941 297.672C182.941 297.672 184.9 296.625 189.851 296.665C192.924 296.665 194.843 296.88 195.218 295.886C195.715 294.396 196.922 291.657 197.553 291.671V298.961L182.941 297.672Z" fill="#F28F8F"/>
<path d="M174.273 406.962C166.021 417.864 159.58 420.388 157.326 422.751C155.072 425.114 156.373 429.773 161.888 430.807C167.403 431.84 173.374 430.578 176.93 427.02C180.485 423.462 182.941 418.83 186.564 416.279C190.187 413.728 192.052 413.003 192.602 409.942C193.152 406.881 190.388 397.778 190.388 397.778L174.273 406.962Z" fill="#A93339"/>
<path d="M178.231 390.34C178.996 394.301 179.855 397.765 177.158 402.531C176.282 404.062 175.319 405.541 174.273 406.962C169.456 413.446 165.538 418.508 164.88 419.394C164.223 420.28 168.275 423.1 172.931 421.166C177.587 419.233 181.599 412.332 184.632 408.17C185.973 406.317 187.315 404.639 188.362 403.336C189.78 401.604 190.515 399.412 190.428 397.174L190.173 390.85L178.231 390.34Z" fill="#FFA8A7"/>
<path d="M194.36 422.455C186.108 433.371 179.667 435.882 177.413 438.258C175.159 440.635 176.474 445.267 181.975 446.314C187.476 447.361 193.461 446.072 197.017 442.528C200.572 438.983 203.028 434.324 206.664 431.787C210.3 429.249 212.152 428.497 212.689 425.436C213.226 422.375 210.488 413.272 210.488 413.272L194.36 422.455Z" fill="#A93339"/>
<path d="M198.318 405.834C199.096 409.794 199.942 413.258 197.244 418.025C196.375 419.56 195.412 421.04 194.36 422.455C189.543 428.94 185.625 434.002 184.967 434.888C184.31 435.774 188.362 438.607 193.018 436.674C197.674 434.74 201.686 427.839 204.718 423.677C206.06 421.824 207.402 420.133 208.449 418.844C209.865 417.105 210.6 414.909 210.515 412.668L210.273 406.344L198.318 405.834Z" fill="#FFA8A7"/>
<path d="M252.124 308.856C258.444 321.853 255.948 334.728 238.867 343.16C229.327 347.873 210.864 356.197 210.864 356.197C210.864 356.197 213.548 363.581 213.641 376.028C213.735 386.983 210.824 410.815 210.824 410.815C210.824 410.815 203.685 414.131 198.573 410.815C198.573 410.815 196.305 396.046 194.548 381.156C192.414 362.454 190.616 351.458 191.569 347.43C192.414 343.872 199.848 338.662 205.524 334.675L185.719 343.993C185.719 343.993 189.972 349.873 190.978 360.467C192.199 373.275 190.656 395.294 190.656 395.294C188.763 396.221 186.697 396.744 184.591 396.832C182.485 396.92 180.383 396.57 178.419 395.804C178.419 395.804 164.478 341.495 166.571 333.963C169.577 323.155 210.716 306.694 212.81 302.452L252.124 308.856Z" fill="black"/>
<path opacity="0.2" d="M252.124 308.856C258.444 321.853 255.948 334.728 238.867 343.16C229.327 347.873 210.864 356.197 210.864 356.197C210.864 356.197 213.548 363.581 213.641 376.028C213.735 386.983 210.824 410.815 210.824 410.815C210.824 410.815 203.685 414.131 198.573 410.815C198.573 410.815 196.305 396.046 194.548 381.156C192.414 362.454 190.616 351.458 191.569 347.43C192.414 343.872 199.848 338.662 205.524 334.675L185.719 343.993C185.719 343.993 189.972 349.873 190.978 360.467C192.199 373.275 190.656 395.294 190.656 395.294C188.763 396.221 186.697 396.744 184.591 396.832C182.485 396.92 180.383 396.57 178.419 395.804C178.419 395.804 164.478 341.495 166.571 333.963C169.577 323.155 210.716 306.694 212.81 302.452L252.124 308.856Z" fill="black"/>
<path d="M238.089 255.447C250.97 256.655 253.023 254.587 256.874 265.033L245.066 295.148L252.124 308.856C250.46 311.34 230.79 321.92 213.507 309.299C210.474 298.253 208.055 287.047 206.262 275.734C204.92 266.214 213.346 255.715 217.519 255.299C219.024 255.12 220.539 255.035 222.055 255.044L238.089 255.447Z" fill="black"/>
<path opacity="0.6" d="M238.089 255.447C250.97 256.655 253.023 254.587 256.874 265.033L245.066 295.148L252.124 308.856C250.46 311.34 230.79 321.92 213.507 309.299C210.474 298.253 208.055 287.047 206.262 275.734C204.92 266.214 213.346 255.715 217.519 255.299C219.024 255.12 220.539 255.035 222.055 255.044L238.089 255.447Z" fill="white"/>
<path d="M193.179 297.645C195.862 297.726 195.755 296.007 196.426 294.329C197.218 292.355 197.942 290.596 197.942 290.596L199.713 296.987L202.142 308.829C202.142 308.829 195.017 308.735 189.784 308.829C184.551 308.923 178.607 307.178 178.003 303.459C177.627 301.149 179.345 297.914 184.712 297.404C187.536 297.267 190.367 297.348 193.179 297.645Z" fill="#FFA8A7"/>
<path d="M198.224 282.527C195.541 283.467 196.238 287.965 197.366 293C198.493 298.035 200.358 306.493 200.935 308.722C201.512 310.951 202.277 312.334 205.604 312.334C208.932 312.334 214.353 312.696 216.701 312.334C219.049 311.971 219.384 309.89 218.901 305.15C218.335 299.74 217.494 294.363 216.379 289.039C215.44 284.541 214.863 282.151 212.072 282.151C208.824 282.111 201.042 281.547 198.224 282.527Z" fill="#A93339"/>
<path d="M198.05 296.128C198.318 297.31 200.733 298.29 202.934 298.384C206.119 298.509 209.308 298.292 212.447 297.739C214.688 297.135 216.11 301.002 213.95 304.533C211.79 308.064 206.905 309.138 200.948 308.816C199.159 307.054 197.975 304.769 197.567 302.291C197.387 300.224 197.55 298.142 198.05 296.128Z" fill="#FFA8A7"/>
<path d="M245.12 295.148C245.12 295.148 243.778 297.377 239.605 297.377C243.295 294.866 246.502 289.898 249.508 283.95L245.12 295.148Z" fill="black"/>
<path opacity="0.1" d="M245.12 295.148C245.12 295.148 243.778 297.377 239.605 297.377C243.295 294.866 246.502 289.898 249.508 283.95L245.12 295.148Z" fill="white"/>
<path d="M250.957 256.803C258.068 258.145 261.034 264.858 261.249 278.016C261.463 291.174 259.773 334.782 259.625 336.716C259.473 338.197 259.717 339.693 260.332 341.05C260.947 342.406 261.912 343.575 263.127 344.436C268.199 348.061 274.318 350.974 277.31 353.002C281.255 355.687 277.31 360.064 272.466 360.359C267.931 360.641 260.672 356.707 258.82 355.163C259.737 356.382 260.449 357.742 260.926 359.191C261.718 362.279 260.926 364.092 259.504 363.447C258.699 363.085 257.72 361.863 254.942 358.466C250.125 352.545 249.092 349.887 249.038 342.529C249.038 337.548 248.622 311.864 248.22 302.089C247.965 296.101 248.018 283.091 248.126 275.009C248.233 266.926 249.467 257.944 250.957 256.803Z" fill="#FFA8A7"/>
<path d="M206.879 230.984C206.879 230.984 202.357 223.761 205.537 216.819C208.717 209.878 221.719 200.815 236.546 207.26C250.635 213.396 249.387 229.614 249.441 236.959C249.535 243.913 206.879 230.984 206.879 230.984Z" fill="#A93339"/>
<path d="M211.011 216.39C213.064 212.362 226.107 205.931 238.505 212.227C250.903 218.524 249.467 235.482 249.467 247.136V268.618C249.467 271.679 242.289 275.895 235.392 273.451L235.888 242.074C235.888 242.074 237.821 222.915 231.863 218.323C225.905 213.731 211.011 216.39 211.011 216.39Z" fill="#A93339"/>
<path d="M235.888 233.24C236.694 233.723 237.848 232.165 238.84 231.118C239.833 230.071 243.094 228.661 244.704 232.071C246.314 235.482 242.611 240.194 240.41 241.725C239.795 242.261 239.026 242.587 238.213 242.657C237.4 242.727 236.586 242.537 235.888 242.114L235.674 255.353C235.674 255.353 232.413 262.522 224.604 263.583C216.795 264.644 218.391 258.212 220.954 255.03V250.183C219.002 250.601 216.994 250.701 215.01 250.479C213.99 250.21 211.548 247.27 209.978 243.981C208.221 240.275 205.282 233.709 207.899 222.606C210.703 210.683 223.504 210.321 231.152 215.128C238.8 219.934 235.888 233.24 235.888 233.24Z" fill="#FFA8A7"/>
<path d="M220.968 250.183C220.968 250.183 228.213 248.72 230.736 247.377C232.227 246.605 233.449 245.397 234.238 243.913C233.852 245.375 233.177 246.745 232.252 247.941C230.4 250.304 220.968 252.05 220.968 252.05V250.183Z" fill="#F28F8F"/>
<path d="M221.048 232.931C221.059 233.218 221.154 233.496 221.321 233.73C221.489 233.964 221.722 234.143 221.99 234.245C222.259 234.347 222.552 234.368 222.832 234.304C223.113 234.241 223.368 234.096 223.567 233.888C223.766 233.68 223.899 233.418 223.949 233.135C224 232.852 223.966 232.56 223.852 232.296C223.738 232.032 223.549 231.807 223.308 231.65C223.067 231.494 222.785 231.411 222.497 231.414C222.302 231.417 222.11 231.459 221.931 231.537C221.753 231.616 221.591 231.729 221.457 231.87C221.322 232.011 221.216 232.177 221.146 232.359C221.076 232.541 221.043 232.736 221.048 232.931Z" fill="#A93339"/>
<path d="M222.591 227.439L225.691 229.158C225.91 228.732 225.957 228.238 225.822 227.778C225.688 227.318 225.381 226.927 224.966 226.688C224.762 226.577 224.537 226.508 224.306 226.486C224.074 226.464 223.841 226.489 223.619 226.559C223.398 226.629 223.192 226.743 223.016 226.894C222.839 227.046 222.695 227.231 222.591 227.439Z" fill="#A93339"/>
<path d="M238.465 204.467L239.31 209.596C240.005 209.474 240.625 209.083 241.034 208.508C241.444 207.932 241.61 207.219 241.497 206.521C241.438 206.185 241.312 205.863 241.126 205.577C240.94 205.29 240.698 205.043 240.416 204.852C240.133 204.66 239.814 204.527 239.479 204.461C239.144 204.395 238.799 204.397 238.465 204.467Z" fill="#A93339"/>
<path d="M244.664 207.005L239.914 209.072C240.207 209.709 240.737 210.206 241.392 210.457C242.046 210.708 242.773 210.693 243.416 210.415C243.726 210.278 244.005 210.079 244.236 209.832C244.467 209.585 244.647 209.293 244.763 208.975C244.88 208.657 244.931 208.318 244.914 207.98C244.897 207.641 244.812 207.31 244.664 207.005Z" fill="#A93339"/>
<path d="M222.041 241.899L218.727 243.148C218.798 243.372 218.913 243.579 219.066 243.757C219.219 243.935 219.407 244.079 219.618 244.182C219.829 244.285 220.058 244.344 220.293 244.356C220.527 244.367 220.761 244.331 220.981 244.249C221.426 244.069 221.784 243.724 221.982 243.287C222.179 242.849 222.2 242.352 222.041 241.899Z" fill="#F28F8F"/>
<path d="M208.113 228.661L210.944 226.473C210.81 226.282 210.638 226.12 210.44 225.998C210.242 225.875 210.02 225.793 209.79 225.758C209.559 225.723 209.324 225.735 209.098 225.793C208.872 225.851 208.66 225.955 208.475 226.097C208.098 226.396 207.85 226.829 207.782 227.307C207.715 227.784 207.833 228.269 208.113 228.661Z" fill="#A93339"/>
<path d="M208.985 232.515C208.998 232.798 209.095 233.072 209.262 233.301C209.429 233.53 209.659 233.706 209.925 233.805C210.191 233.905 210.48 233.924 210.756 233.861C211.033 233.798 211.285 233.655 211.481 233.449C211.677 233.244 211.808 232.986 211.859 232.707C211.909 232.427 211.877 232.139 211.766 231.878C211.654 231.617 211.469 231.394 211.232 231.238C210.996 231.081 210.718 230.998 210.435 230.997C210.042 231.008 209.669 231.173 209.398 231.457C209.126 231.742 208.978 232.122 208.985 232.515Z" fill="#A93339"/>
<path d="M215.024 231.857L216.204 240.517L211.427 239.845L215.024 231.857Z" fill="#F28F8F"/>
<path d="M210.944 215.101C210.944 215.101 217.506 229.158 237.056 227.184C237.056 227.184 239.31 217.383 231.595 213.597C223.879 209.811 214.648 209.596 210.944 215.101Z" fill="#A93339"/>
<path d="M231.138 225.426C233.433 225.721 234.104 229.225 233.54 232.139C232.977 235.052 235.741 235.294 237.901 232.139C239.291 229.721 240.078 227.004 240.196 224.217L231.138 225.426Z" fill="#A93339"/>
<path d="M205.577 334.715C205.577 334.715 217.492 326.659 220.968 325.062C220.968 325.062 214.259 323.719 211.011 319.315C211.557 321.4 212.515 323.354 213.829 325.062L185.772 344.033L205.577 334.715Z" fill="black"/>
<path opacity="0.4" d="M205.577 334.715C205.577 334.715 217.492 326.659 220.968 325.062C220.968 325.062 214.259 323.719 211.011 319.315C211.557 321.4 212.515 323.354 213.829 325.062L185.772 344.033L205.577 334.715Z" fill="black"/>
<path d="M482.163 214.456L399.83 166.901C397.71 165.679 395.992 166.659 395.992 169.116V285.025C396.056 286.368 396.437 287.676 397.104 288.843C397.771 290.01 398.705 291.002 399.83 291.738L482.163 339.293C484.283 340.515 486 339.522 486 337.078V221.102C485.927 219.771 485.542 218.475 484.875 217.32C484.209 216.166 483.279 215.184 482.163 214.456Z" fill="#E0E0E0"/>
<path d="M375.838 263.945L401.99 279.063V258.266L376.402 261.22C373.973 261.502 373.718 262.724 375.838 263.945Z" fill="#E0E0E0"/>
<path d="M411.195 190.786L470.797 225.224C471.718 225.801 472.488 226.589 473.044 227.523C473.599 228.457 473.924 229.51 473.991 230.595C473.991 232.501 472.569 233.28 470.797 232.206L411.195 197.781C410.275 197.203 409.507 196.414 408.951 195.481C408.396 194.547 408.071 193.495 408.001 192.41C408.041 190.49 409.383 189.765 411.195 190.786Z" fill="#F0F0F0"/>
<path d="M411.168 211.57L470.771 246.008C471.692 246.585 472.464 247.372 473.021 248.306C473.579 249.24 473.907 250.293 473.978 251.378C473.978 253.285 472.542 254.064 470.771 252.99L411.168 218.565C410.251 217.984 409.484 217.195 408.929 216.262C408.374 215.329 408.047 214.278 407.974 213.194C408.041 211.274 409.383 210.549 411.168 211.57Z" fill="#F0F0F0"/>
<path d="M411.195 232.327L470.797 266.765C471.709 267.335 472.474 268.112 473.029 269.034C473.584 269.956 473.913 270.995 473.991 272.068C473.991 273.988 472.569 274.754 470.797 273.693L411.195 239.308C410.283 238.738 409.518 237.961 408.963 237.039C408.408 236.118 408.079 235.078 408.001 234.005C408.041 232.085 409.383 231.36 411.195 232.327Z" fill="#F0F0F0"/>
<path d="M411.195 253.178L470.797 287.602C471.717 288.181 472.486 288.969 473.041 289.903C473.596 290.836 473.922 291.889 473.991 292.973C473.991 294.893 472.569 295.658 470.797 294.597L411.195 260.159C410.274 259.583 409.504 258.795 408.949 257.861C408.393 256.927 408.068 255.873 408.001 254.789C408.041 252.882 409.383 252.157 411.195 253.178Z" fill="#F0F0F0"/>
<path d="M411.195 273.948L470.797 308.386C471.718 308.963 472.488 309.751 473.044 310.685C473.599 311.619 473.924 312.672 473.991 313.757C473.991 315.663 472.569 316.442 470.797 315.368L411.195 280.943C410.275 280.365 409.507 279.576 408.951 278.643C408.396 277.709 408.071 276.657 408.001 275.572C408.041 273.679 409.383 272.954 411.195 273.948Z" fill="#F0F0F0"/>
<path d="M401.99 75.5216V129.039C402.056 130.381 402.439 131.688 403.105 132.855C403.772 134.021 404.705 135.014 405.827 135.752L470.153 172.902C472.273 174.137 473.991 173.144 473.991 170.687V117.116C473.927 115.773 473.546 114.464 472.879 113.297C472.212 112.13 471.278 111.138 470.153 110.403L405.827 73.2526C403.721 72.0845 401.99 73.0646 401.99 75.5216Z" fill="#F0F0F0"/>
<path d="M383.044 99.4069L408.041 102.294V123.091L381.957 102.092C381.671 101.905 381.46 101.624 381.358 101.298C381.256 100.971 381.271 100.62 381.399 100.303C381.527 99.9865 381.761 99.724 382.061 99.5606C382.361 99.3972 382.708 99.3429 383.044 99.4069Z" fill="#F0F0F0"/>
<path d="M473.991 102.28C476.612 103.989 478.794 106.292 480.358 109.003C481.923 111.714 482.826 114.756 482.994 117.881C482.994 123.628 478.969 125.937 473.991 123.077C471.369 121.366 469.188 119.06 467.623 116.347C466.059 113.634 465.156 110.59 464.987 107.463C464.987 101.743 469.026 99.4069 473.991 102.28Z" fill="black"/>
<path opacity="0.7" d="M473.991 102.28C476.612 103.989 478.794 106.292 480.358 109.003C481.923 111.714 482.826 114.756 482.994 117.881C482.994 123.628 478.969 125.937 473.991 123.077C471.369 121.366 469.188 119.06 467.623 116.347C466.059 113.634 465.156 110.59 464.987 107.463C464.987 101.743 469.026 99.4069 473.991 102.28Z" fill="white"/>
<path d="M417.193 90.7738L458.788 114.807C459.707 115.386 460.475 116.174 461.03 117.108C461.585 118.041 461.911 119.093 461.982 120.177C461.982 122.084 460.546 122.862 458.788 121.788L417.193 97.7554C416.274 97.1764 415.506 96.3878 414.951 95.4543C414.396 94.5208 414.069 93.4689 413.999 92.385C413.999 90.4784 415.435 89.7534 417.193 90.7738Z" fill="#E6E6E6"/>
<path d="M417.193 107.597L458.788 131.63C459.707 132.209 460.475 132.998 461.03 133.931C461.585 134.865 461.911 135.916 461.982 137C461.982 138.907 460.546 139.686 458.788 138.612L417.193 114.579C416.274 114 415.506 113.211 414.951 112.277C414.396 111.344 414.069 110.292 413.999 109.208C413.999 107.302 415.435 106.577 417.193 107.597Z" fill="#E6E6E6"/>
<path d="M417.193 124.42L458.788 148.453C459.707 149.032 460.475 149.821 461.03 150.754C461.585 151.688 461.911 152.739 461.982 153.823C461.982 155.73 460.546 156.509 458.788 155.435L417.193 131.402C416.274 130.823 415.506 130.034 414.951 129.1C414.396 128.167 414.069 127.115 413.999 126.031C413.999 124.125 415.435 123.4 417.193 124.42Z" fill="#E6E6E6"/>
<path d="M146.162 145.056L63.8427 97.5004C61.7226 96.2786 60.0051 97.2721 60.0051 99.7157V215.678C60.0675 217.021 60.4479 218.33 61.1151 219.498C61.7823 220.665 62.7172 221.656 63.8427 222.391L146.162 269.92C148.282 271.142 150 270.148 150 267.705V151.769C149.937 150.426 149.557 149.117 148.89 147.95C148.222 146.783 147.288 145.791 146.162 145.056Z" fill="#E0E0E0"/>
<path d="M75.1945 121.453L134.797 155.878C135.719 156.454 136.49 157.242 137.048 158.176C137.606 159.11 137.933 160.163 138.004 161.248C138.004 163.168 136.568 163.933 134.797 162.873L75.1945 128.434C74.276 127.855 73.5077 127.067 72.9526 126.133C72.3975 125.2 72.0714 124.148 72.001 123.064C72.001 121.157 73.4367 120.432 75.1945 121.453Z" fill="#F0F0F0"/>
<path d="M75.181 142.237L134.784 176.661C135.702 177.24 136.471 178.029 137.026 178.963C137.581 179.896 137.907 180.948 137.977 182.032C137.977 183.952 136.542 184.717 134.784 183.643L75.181 149.218C74.2603 148.642 73.4903 147.854 72.9349 146.92C72.3795 145.986 72.0547 144.933 71.9875 143.848C71.9875 141.941 73.4099 141.216 75.181 142.237Z" fill="#F0F0F0"/>
<path d="M75.1945 163.034L134.797 197.418C135.719 197.995 136.49 198.783 137.048 199.717C137.606 200.65 137.933 201.703 138.004 202.789C138.004 204.695 136.568 205.474 134.797 204.4L75.1945 169.975C74.2774 169.394 73.5103 168.606 72.9554 167.672C72.4005 166.739 72.0735 165.688 72.001 164.605C72.001 162.738 73.4367 162.013 75.1945 163.034Z" fill="#F0F0F0"/>
<path d="M75.1945 183.831L134.797 218.269C135.711 218.839 136.478 219.616 137.035 220.537C137.592 221.459 137.924 222.499 138.004 223.573C138.004 225.493 136.568 226.258 134.797 225.197L75.1945 190.705C74.2847 190.133 73.5219 189.355 72.9672 188.434C72.4126 187.513 72.0816 186.474 72.001 185.402C72.001 183.536 73.4367 182.811 75.1945 183.831Z" fill="#F0F0F0"/>
<path d="M75.1945 204.642L134.797 239.04C135.719 239.616 136.49 240.404 137.048 241.338C137.606 242.272 137.933 243.325 138.004 244.41C138.004 246.317 136.568 247.096 134.797 246.021L75.1945 211.597C74.276 211.018 73.5077 210.229 72.9526 209.295C72.3975 208.362 72.0714 207.31 72.001 206.226C72.001 204.346 73.4367 203.621 75.1945 204.642Z" fill="#F0F0F0"/>
<path d="M144.002 254.789L167.416 268.309C167.71 268.473 168.05 268.53 168.381 268.473C168.712 268.415 169.012 268.245 169.233 267.991C169.453 267.738 169.579 267.416 169.591 267.08C169.602 266.745 169.498 266.415 169.295 266.147L144.002 233.991V254.789Z" fill="#E0E0E0"/>
<path d="M0 252.305V305.822C0.0634155 307.165 0.44432 308.473 1.11143 309.64C1.77855 310.807 2.71284 311.799 3.83755 312.535L68.1634 349.685C70.2835 350.907 72.001 349.927 72.001 347.47V293.899C71.9376 292.556 71.5567 291.248 70.8895 290.081C70.2224 288.914 69.2881 287.922 68.1634 287.186L3.83755 250.09C1.7175 248.854 0 249.848 0 252.305Z" fill="#F0F0F0"/>
<path d="M91.7389 333.547L66.0032 306.788V327.653L90.1556 336.044C90.4838 336.199 90.8573 336.229 91.2058 336.127C91.5543 336.026 91.8539 335.801 92.0483 335.495C92.2427 335.188 92.3185 334.821 92.2616 334.462C92.2046 334.104 92.0188 333.778 91.7389 333.547Z" fill="#F0F0F0"/>
<path d="M72.001 279.063C74.6224 280.772 76.804 283.075 78.3685 285.786C79.9329 288.497 80.8361 291.539 81.0045 294.665C81.0045 300.398 76.9791 302.72 72.001 299.861C69.3811 298.15 67.2007 295.847 65.6364 293.136C64.0722 290.426 63.1681 287.385 62.9976 284.259C62.9976 278.513 67.0364 276.19 72.001 279.063Z" fill="black"/>
<path opacity="0.7" d="M72.001 279.063C74.6224 280.772 76.804 283.075 78.3685 285.786C79.9329 288.497 80.8361 291.539 81.0045 294.665C81.0045 300.398 76.9791 302.72 72.001 299.861C69.3811 298.15 67.2007 295.847 65.6364 293.136C64.0722 290.426 63.1681 287.385 62.9976 284.259C62.9976 278.513 67.0364 276.19 72.001 279.063Z" fill="white"/>
<path d="M15.2028 267.557L56.7986 291.59C57.7171 292.169 58.4853 292.958 59.0404 293.891C59.5956 294.825 59.9217 295.877 59.992 296.961C59.992 298.867 58.5563 299.646 56.7851 298.572L15.1893 274.539C14.2686 273.962 13.4986 273.174 12.9432 272.24C12.3878 271.306 12.063 270.253 11.9958 269.168C12.0093 267.235 13.4316 266.537 15.2028 267.557Z" fill="#E6E6E6"/>
<path d="M15.2028 284.38L56.7986 308.413C57.7171 308.992 58.4853 309.781 59.0404 310.714C59.5956 311.648 59.9217 312.7 59.992 313.784C59.992 315.69 58.5563 316.469 56.7851 315.395L15.1893 291.362C14.2686 290.785 13.4986 289.997 12.9432 289.063C12.3878 288.129 12.063 287.076 11.9958 285.991C12.0093 284.085 13.4316 283.346 15.2028 284.38Z" fill="#E6E6E6"/>
<path d="M15.2028 301.203L56.7986 325.236C57.7171 325.815 58.4853 326.604 59.0404 327.537C59.5956 328.471 59.9217 329.523 59.992 330.607C59.992 332.513 58.5563 333.292 56.7851 332.218L15.1893 308.185C14.2686 307.608 13.4986 306.82 12.9432 305.886C12.3878 304.952 12.063 303.899 11.9958 302.814C12.0093 300.908 13.4316 300.183 15.2028 301.203Z" fill="#E6E6E6"/>
<path d="M47.9961 2.73802V56.255C48.0584 57.5982 48.4389 58.9073 49.1061 60.0744C49.7733 61.2416 50.7082 62.2334 51.8336 62.9681L116.16 100.132C118.28 101.354 119.997 100.36 119.997 97.9032V44.3593C119.935 43.0162 119.554 41.7071 118.887 40.5399C118.22 39.3727 117.285 38.3809 116.16 37.6462L51.8336 0.522693C49.7807 -0.699095 47.9961 0.294448 47.9961 2.73802Z" fill="#F0F0F0"/>
<path d="M139.682 83.9936L113.946 57.2217V78.0189L138.098 86.4103C138.413 86.5333 138.761 86.5441 139.084 86.441C139.406 86.3379 139.683 86.1271 139.869 85.844C140.054 85.5608 140.137 85.2225 140.103 84.8856C140.069 84.5488 139.92 84.2338 139.682 83.9936Z" fill="#F0F0F0"/>
<path d="M119.997 29.4965C122.609 31.211 124.78 33.5169 126.335 36.2274C127.889 38.9379 128.784 41.9767 128.947 45.0978C128.947 50.8442 124.921 53.1535 119.943 50.2937C117.323 48.5837 115.143 46.28 113.579 43.5695C112.015 40.859 111.111 37.8178 110.94 34.6925C110.994 28.9595 115.032 26.6233 119.997 29.4965Z" fill="black"/>
<path opacity="0.7" d="M119.997 29.4965C122.609 31.211 124.78 33.5169 126.335 36.2274C127.889 38.9379 128.784 41.9767 128.947 45.0978C128.947 50.8442 124.921 53.1535 119.943 50.2937C117.323 48.5837 115.143 46.28 113.579 43.5695C112.015 40.859 111.111 37.8178 110.94 34.6925C110.994 28.9595 115.032 26.6233 119.997 29.4965Z" fill="white"/>
<path d="M63.1986 17.9902L104.794 42.0232C105.713 42.6022 106.481 43.3908 107.036 44.3243C107.591 45.2578 107.918 46.3097 107.988 47.3937C107.988 49.3002 106.552 50.0789 104.794 49.0048L63.1986 24.9718C62.2779 24.3953 61.5078 23.6073 60.9524 22.6732C60.397 21.7392 60.0723 20.6861 60.0051 19.6014C60.0051 17.6948 61.4274 16.9698 63.1986 17.9902Z" fill="#E6E6E6"/>
<path d="M63.1986 34.8133L104.794 58.8463C105.713 59.4253 106.481 60.2139 107.036 61.1474C107.591 62.0809 107.918 63.1328 107.988 64.2168C107.988 66.1233 106.552 66.902 104.794 65.8279L63.1986 41.7949C62.2779 41.2184 61.5078 40.4304 60.9524 39.4963C60.397 38.5623 60.0723 37.5092 60.0051 36.4244C60.0051 34.5179 61.4274 33.7929 63.1986 34.8133Z" fill="#E6E6E6"/>
<path d="M63.1986 51.6364L104.794 75.6694C105.713 76.2484 106.481 77.037 107.036 77.9705C107.591 78.904 107.918 79.9559 107.988 81.0399C107.988 82.9464 106.552 83.7251 104.794 82.651L63.1986 58.6181C62.2779 58.0415 61.5078 57.2535 60.9524 56.3195C60.397 55.3854 60.0723 54.3323 60.0051 53.2476C60.0051 51.341 61.4274 50.616 63.1986 51.6364Z" fill="#E6E6E6"/>
</svg>
