<svg width="228" height="163" viewBox="0 0 228 163" fill="none" xmlns="http://www.w3.org/2000/svg">
<path d="M180.608 105.73C179.798 104.3 178.628 103.01 177.418 101.87C167.218 92.27 156.958 82.72 146.728 73.15C139.258 66.16 131.878 59.08 124.308 52.22C119.068 47.47 110.448 47.62 105.138 52.28C102.788 54.34 100.488 56.46 98.2079 58.6C85.4579 70.59 72.7179 82.59 59.9879 94.61C56.6679 97.74 53.2279 100.78 50.1579 104.16C46.0779 108.65 48.2279 115.58 54.0079 117.09C56.8579 117.83 59.3779 116.86 61.5479 115.07C63.1979 113.71 64.6779 112.13 66.4679 110.42C66.4679 120.44 66.4179 130.12 66.4979 139.79C66.4979 140.16 66.5079 162.52 66.5079 162.89H80.9479C80.9379 162.66 80.9379 140.43 80.9379 140.19C80.9079 132.49 80.9579 124.78 80.9179 117.08C80.9079 113.71 82.0479 111 84.5979 108.66C93.4179 100.57 102.118 92.35 110.848 84.16C114.368 80.85 114.998 80.83 118.548 84.16C127.328 92.38 136.068 100.64 144.928 108.78C147.428 111.08 148.518 113.74 148.458 117.07C148.378 121.4 148.438 125.73 148.438 130.07H148.288C148.288 133.68 148.298 159.29 148.278 162.9H162.838C162.598 153.35 162.778 121.8 162.768 112.25V110.2C164.928 112.22 166.688 114.04 168.638 115.63C171.668 118.11 175.968 117.89 179.098 115.28C181.658 113.14 182.428 108.95 180.608 105.74V105.73Z" fill="#040A19"/>
<path d="M156 71.9581C160.64 69.1113 164.817 66.4125 169.117 63.9226C177.594 59.0125 186.184 54.2852 194.652 49.3577C204.769 43.4725 213.49 35.9158 220.885 26.8529C221.313 26.3219 221.74 25.7908 222.185 25.2685C223.188 24.0932 224.051 22.4391 225.97 23.1878C227.836 23.9191 227.958 25.756 227.993 27.4449C228.098 33.008 226.99 38.3534 224.827 43.4812C219.874 55.2167 210.891 62.8257 199.362 67.5268C193.702 69.8339 187.745 71.401 181.928 73.3076C181.1 73.5774 180.271 73.8212 179.442 74.0824C179.434 74.2565 179.416 74.4219 179.408 74.596C181.318 75.1097 183.21 75.78 185.155 76.1109C190.902 77.0859 196.702 77.556 202.527 77.112C209.609 76.5636 216.49 75.0487 223.066 72.2977C223.31 72.1932 223.563 72.1323 223.798 72.0104C226.066 70.8351 227.723 72.3847 227.226 74.7614C226.772 76.9205 226.022 79.1492 224.888 81.021C219.63 89.6833 211.807 94.6805 201.821 96.2302C199.248 96.6306 196.606 96.7612 193.989 96.7351C191.39 96.709 188.792 96.3433 186.062 96.1083C187.911 98.7462 190.344 100.583 193.187 101.872C198.838 104.431 204.777 105.006 210.856 104.039C213.22 103.665 215.505 102.821 217.842 102.307C218.574 102.141 219.778 102.063 220.083 102.464C220.502 103.012 220.615 104.257 220.266 104.858C218.696 107.557 217.135 110.316 215.173 112.737C209.722 119.457 202.65 123.07 193.859 122.966C192.734 122.957 191.609 122.801 189.986 122.679C190.937 123.506 191.504 124.098 192.175 124.55C194.26 125.961 196.388 127.301 198.481 128.694C200.661 130.148 200.67 131.768 198.411 133.161C195.114 135.206 191.495 136.399 187.632 136.808C184.483 137.139 181.352 137.113 178.283 136.155C174.332 134.919 173.294 133.483 173.399 129.13C174.149 128.921 174.942 128.703 175.736 128.477C182.887 126.44 187.675 121.991 189.184 114.617C190.361 108.836 188.888 103.456 184.911 99.1466C180.943 94.8459 176.53 90.9457 172.256 86.9236C167.564 82.501 162.82 78.1393 158.084 73.7603C157.509 73.2292 156.89 72.7417 156 71.9756V71.9581Z" fill="#A93339"/>
<path d="M72 71.9581C67.3603 69.1113 63.1829 66.4125 58.8834 63.9226C50.4064 59.0125 41.8161 54.2852 33.3478 49.3577C23.2313 43.4725 14.5101 35.9158 7.11454 26.8529C6.6872 26.3219 6.25986 25.7908 5.81509 25.2685C4.81215 24.0932 3.94876 22.4391 2.0301 23.1878C0.163773 23.9191 0.0416718 25.756 0.00678253 27.4449C-0.0978699 33.008 1.00972 38.3534 3.17257 43.4812C8.12619 55.2167 17.109 62.8257 28.6384 67.5268C34.2984 69.8339 40.255 71.401 46.072 73.3076C46.9005 73.5774 47.729 73.8212 48.5575 74.0824C48.5662 74.2565 48.5837 74.4219 48.5924 74.596C46.6825 75.1097 44.79 75.78 42.8452 76.1109C37.0979 77.0859 31.2983 77.556 25.4726 77.112C18.391 76.5636 11.51 75.0487 4.93425 72.2977C4.69006 72.1932 4.43713 72.1323 4.20166 72.0104C1.93416 70.8351 0.277145 72.3847 0.774254 74.7614C1.22775 76.9205 1.97777 79.1492 3.11152 81.021C8.37038 89.6833 16.1933 94.6805 26.179 96.2302C28.7518 96.6306 31.3943 96.7612 34.0106 96.7351C36.6095 96.709 39.2084 96.3433 41.9381 96.1083C40.0893 98.7462 37.6561 100.583 34.813 101.872C29.1616 104.431 23.2225 105.006 17.1439 104.039C14.7804 103.665 12.4955 102.821 10.1582 102.307C9.42564 102.141 8.22213 102.063 7.91689 102.464C7.49827 103.012 7.38489 104.257 7.73373 104.858C9.30355 107.557 10.8646 110.316 12.8269 112.737C18.2776 119.457 25.3505 123.07 34.1414 122.966C35.2665 122.957 36.3915 122.801 38.0136 122.679C37.063 123.506 36.4961 124.098 35.8246 124.55C33.7403 125.961 31.6123 127.301 29.5192 128.694C27.3389 130.148 27.3302 131.768 29.589 133.161C32.8856 135.206 36.5049 136.399 40.3683 136.808C43.5167 137.139 46.6476 137.113 49.7174 136.155C53.6681 134.919 54.7059 133.483 54.6013 129.13C53.8513 128.921 53.0576 128.703 52.264 128.477C45.1126 126.44 40.3247 121.991 38.816 114.617C37.6386 108.836 39.1125 103.456 43.0893 99.1466C47.0575 94.8459 51.4704 90.9457 55.7437 86.9236C60.4357 82.501 65.18 78.1393 69.9156 73.7603C70.4912 73.2292 71.1104 72.7417 72 71.9756V71.9581Z" fill="#A93339"/>
<path d="M113.778 0.01C127.798 0.13 140.638 1.11 153.208 4.33C157.238 5.36 161.158 6.74 164.528 9.29C169.898 13.34 169.628 19.63 163.948 23.29C159.828 25.95 155.178 27.16 150.468 28.19C141.638 30.13 132.688 31.01 123.668 31.19C118.978 31.28 114.288 31.54 109.598 31.39C97.4081 30.99 85.2181 30.38 73.4681 26.71C70.6881 25.84 67.8881 24.65 65.5081 23.02C59.8481 19.12 60.1181 12.58 65.8781 8.77C70.0181 6.04 74.7281 4.73 79.4881 3.68C88.2881 1.75 97.1881 0.48 106.218 0.33C109.098 0.28 111.978 0.08 113.768 0L113.778 0.01ZM74.7581 16.03C76.3281 17.88 78.3381 18.37 80.2881 18.82C90.2781 21.09 100.468 21.64 110.658 21.93C122.018 22.25 133.348 21.61 144.578 19.81C147.688 19.31 150.738 18.31 153.738 17.31C155.288 16.8 155.298 15.87 153.858 15.1C152.548 14.39 151.128 13.82 149.698 13.42C141.088 11.03 132.248 10.19 123.368 9.83C109.828 9.28 96.3381 9.71 83.0381 12.69C80.1981 13.33 77.2681 13.84 74.7481 16.04L74.7581 16.03Z" fill="#A93339"/>
<path d="M112.748 120.27C112.748 121.53 112.778 122.8 112.748 124.06C112.688 125.88 111.688 127.3 109.918 127.45C106.998 127.69 104.038 127.76 101.108 127.63C99.2781 127.55 98.0281 125.91 97.9881 124.03C97.9381 121.57 97.9481 119.1 98.0081 116.64C98.0581 114.45 99.5381 112.86 101.708 112.77C104.288 112.67 106.878 112.68 109.458 112.74C111.268 112.78 112.578 114.09 112.698 115.95C112.788 117.39 112.718 118.83 112.718 120.28C112.738 120.28 112.748 120.28 112.768 120.28L112.748 120.27Z" fill="#040A19"/>
<path d="M123.868 112.72C125.008 112.72 126.158 112.69 127.298 112.72C129.698 112.79 131.378 114.38 131.458 116.79C131.538 119.13 131.518 121.48 131.458 123.82C131.408 125.78 130.328 127.28 128.378 127.45C125.458 127.71 122.498 127.74 119.578 127.54C117.888 127.43 116.768 126.12 116.718 124.33C116.638 121.51 116.628 118.68 116.718 115.86C116.778 114.14 118.298 112.83 120.078 112.72C120.738 112.68 121.398 112.71 122.058 112.7C122.658 112.7 123.258 112.7 123.858 112.7L123.868 112.72Z" fill="#040A19"/>
<path d="M123.868 131.67C125.188 131.67 126.518 131.57 127.818 131.69C129.968 131.9 131.358 133.31 131.448 135.45C131.538 137.78 131.528 140.13 131.418 142.46C131.308 144.76 130.018 146.18 127.728 146.33C125.158 146.5 122.568 146.51 119.998 146.39C118.018 146.3 116.818 145.01 116.718 143C116.598 140.37 116.578 137.72 116.628 135.09C116.668 133.12 117.888 131.92 119.898 131.74C121.208 131.62 122.528 131.61 123.848 131.55C123.848 131.59 123.848 131.62 123.848 131.66L123.868 131.67Z" fill="#040A19"/>
<path d="M112.738 139.38C112.738 140.58 112.778 141.79 112.738 142.99C112.678 144.75 111.538 146.16 109.788 146.27C107.038 146.44 104.258 146.52 101.508 146.39C99.4083 146.29 98.1083 144.82 98.0283 142.71C97.9383 140.19 97.9283 137.66 98.0283 135.14C98.0983 133.25 99.4983 131.9 101.398 131.8C103.738 131.68 106.088 131.6 108.428 131.63C111.408 131.67 112.688 133 112.738 135.95C112.758 137.09 112.738 138.23 112.738 139.38Z" fill="#040A19"/>
</svg>
