<svg width="406" height="372" viewBox="0 0 406 372" fill="none" xmlns="http://www.w3.org/2000/svg">
<path d="M240.883 250.062H176.339V369.075H240.883V250.062Z" fill="black"/>
<path opacity="0.2" d="M240.883 288.366H176.339V306.723H240.883V288.366Z" fill="black"/>
<path d="M284.43 361.067H132.766V369.26H284.43V361.067Z" fill="black"/>
<path opacity="0.2" d="M284.43 361.067H132.766V369.26H284.43V361.067Z" fill="black"/>
<path d="M391.816 48.1596H25.4058C17.5724 48.1596 11.2222 54.0506 11.2222 61.3175V288.045C11.2222 295.312 17.5724 301.203 25.4058 301.203H391.816C399.65 301.203 406 295.312 406 288.045V61.3175C406 54.0506 399.65 48.1596 391.816 48.1596Z" fill="black"/>
<path opacity="0.5" d="M391.816 48.1596H25.4058C17.5724 48.1596 11.2222 54.0506 11.2222 61.3175V288.045C11.2222 295.312 17.5724 301.203 25.4058 301.203H391.816C399.65 301.203 406 295.312 406 288.045V61.3175C406 54.0506 399.65 48.1596 391.816 48.1596Z" fill="white"/>
<path d="M397.925 56.4756H17.9414V274.53H397.925V56.4756Z" fill="black"/>
<path d="M218.577 290.524C219.877 285.411 216.464 280.289 210.953 279.082C205.442 277.875 199.92 281.042 198.62 286.154C197.319 291.266 200.732 296.389 206.243 297.596C211.754 298.802 217.276 295.636 218.577 290.524Z" fill="#E0E0E0"/>
<path opacity="0.7" d="M391.125 60.3812H24.7407V270.625H391.125V60.3812Z" fill="white"/>
<path d="M391.125 60.3812H24.7407V267.89H391.125V60.3812Z" fill="#A02724"/>
<g opacity="0.9">
<path d="M391.125 60.3812H24.7407V270.625H391.125V60.3812Z" fill="white"/>
</g>
<path d="M391.112 124.84H141.916V205.5H391.112V124.84Z" fill="#A02724"/>
<g opacity="0.4">
<path d="M391.112 124.84H141.916V205.5H391.112V124.84Z" fill="white"/>
</g>
<path d="M141.916 124.84H62.0864V205.5H141.916V124.84Z" fill="#A02724"/>
<g opacity="0.7">
<path d="M141.916 124.84H62.0864V205.5H141.916V124.84Z" fill="white"/>
</g>
<path d="M62.0856 124.84H24.7407V205.5H62.0856V124.84Z" fill="#A02724"/>
<g opacity="0.6">
<path d="M62.0856 124.84H24.7407V205.5H62.0856V124.84Z" fill="white"/>
</g>
<path d="M306.157 105.066H95.1021V116.808H306.157V105.066Z" fill="#A02724"/>
<g opacity="0.8">
<path d="M306.157 105.066H95.1021V116.808H306.157V105.066Z" fill="white"/>
</g>
<path d="M319.862 105.066H306.156V116.808H319.862V105.066Z" fill="#A02724"/>
<g opacity="0.5">
<path d="M319.862 105.066H306.156V116.808H319.862V105.066Z" fill="white"/>
</g>
<path d="M391.125 60.3812H24.7407V73.65H391.125V60.3812Z" fill="#A02724"/>
<path d="M356.065 67.0094C356.068 67.7629 355.829 68.5001 355.38 69.1278C354.931 69.7555 354.291 70.2453 353.541 70.5353C352.791 70.8254 351.966 70.9025 351.169 70.757C350.372 70.6115 349.64 70.2499 349.064 69.718C348.489 69.1861 348.097 68.5078 347.937 67.769C347.778 67.0302 347.859 66.2641 348.169 65.5678C348.479 64.8714 349.005 64.2761 349.68 63.8573C350.355 63.4384 351.149 63.2148 351.961 63.2148C353.047 63.2148 354.089 63.6142 354.858 64.3255C355.628 65.0367 356.062 66.0019 356.065 67.0094Z" fill="white"/>
<path d="M371.815 67.0094C371.818 67.7629 371.579 68.5001 371.13 69.1278C370.681 69.7555 370.041 70.2453 369.291 70.5353C368.541 70.8254 367.716 70.9025 366.919 70.757C366.122 70.6115 365.39 70.2499 364.814 69.718C364.239 69.1861 363.847 68.5078 363.687 67.769C363.528 67.0302 363.609 66.2641 363.919 65.5678C364.229 64.8714 364.755 64.2761 365.43 63.8573C366.105 63.4384 366.899 63.2148 367.711 63.2148C368.797 63.2148 369.839 63.6142 370.608 64.3255C371.378 65.0367 371.812 66.0019 371.815 67.0094Z" fill="white"/>
<path d="M387.566 67.0094C387.568 67.7629 387.33 68.5001 386.881 69.1278C386.431 69.7555 385.791 70.2453 385.042 70.5353C384.292 70.8254 383.467 70.9025 382.67 70.757C381.873 70.6115 381.14 70.2499 380.565 69.718C379.99 69.1861 379.598 68.5078 379.438 67.769C379.279 67.0302 379.359 66.2641 379.669 65.5678C379.98 64.8714 380.506 64.2761 381.181 63.8573C381.856 63.4384 382.65 63.2148 383.462 63.2148C384.548 63.2148 385.59 63.6142 386.359 64.3255C387.128 65.0367 387.562 66.0019 387.566 67.0094Z" fill="white"/>
<path d="M36.5741 115.822C35.8498 115.679 35.1548 115.43 34.5156 115.083L35.671 112.619C36.2055 112.902 36.7767 113.122 37.3709 113.272C37.957 113.434 38.5654 113.517 39.1771 113.518C39.5364 113.539 39.8968 113.497 40.2395 113.395C40.3298 113.364 40.4081 113.308 40.4648 113.236C40.5215 113.164 40.554 113.078 40.5583 112.988C40.5583 112.779 40.4255 112.631 40.1466 112.52C39.7125 112.382 39.2688 112.27 38.8185 112.187C38.1245 112.06 37.4411 111.887 36.7733 111.67C36.2206 111.482 35.7274 111.169 35.339 110.758C34.9126 110.283 34.6945 109.676 34.7281 109.058C34.7213 108.454 34.9212 107.863 35.2992 107.37C35.7115 106.814 36.2944 106.384 36.9725 106.138C37.8177 105.83 38.7204 105.679 39.6286 105.695C40.3525 105.694 41.0741 105.768 41.7801 105.917C42.4301 106.045 43.0565 106.261 43.6394 106.557L42.5636 109.021C41.6482 108.562 40.6292 108.309 39.5888 108.282C38.6724 108.282 38.2607 108.491 38.2607 108.91C38.2607 109.107 38.3936 109.255 38.6724 109.354C39.1072 109.487 39.5508 109.594 40.0005 109.674C40.6994 109.783 41.3877 109.944 42.059 110.155C42.6149 110.338 43.1125 110.647 43.5066 111.054C43.9381 111.522 44.1571 112.127 44.1175 112.742C44.1246 113.345 43.9297 113.934 43.5597 114.43C43.1331 114.979 42.5487 115.406 41.8731 115.662C41.028 115.971 40.1252 116.122 39.2169 116.105C38.3269 116.11 37.4395 116.015 36.5741 115.822Z" fill="black"/>
<path d="M47.3319 108.578H44.2109V105.99H54.0386V108.578H50.9176V115.871H47.3319V108.578Z" fill="black"/>
<path d="M57.3179 115.44C56.6597 115.109 56.08 114.658 55.6135 114.115C55.1469 113.572 54.803 112.947 54.6022 112.278C54.4015 111.609 54.348 110.909 54.4449 110.221C54.5418 109.532 54.7872 108.868 55.1665 108.27C55.6893 107.487 56.4335 106.852 57.3179 106.434C58.2704 105.98 59.3286 105.752 60.399 105.769C61.4733 105.755 62.5351 105.983 63.4934 106.434C64.3715 106.856 65.1102 107.49 65.6316 108.27C66.1558 109.071 66.4273 109.993 66.4151 110.931C66.4323 111.869 66.1605 112.792 65.6316 113.592C65.1147 114.378 64.3751 115.017 63.4934 115.44C62.5351 115.891 61.4733 116.119 60.399 116.105C59.3286 116.122 58.2704 115.893 57.3179 115.44ZM61.6076 113.099C61.9782 112.894 62.2778 112.595 62.4708 112.237C62.6926 111.833 62.8021 111.384 62.7895 110.931C62.7988 110.478 62.6895 110.03 62.4708 109.625C62.274 109.272 61.975 108.978 61.6076 108.775C61.2419 108.573 60.8244 108.466 60.399 108.466C59.9736 108.466 59.5561 108.573 59.1905 108.775C58.823 108.978 58.5241 109.272 58.3273 109.625C58.1086 110.03 57.9992 110.478 58.0085 110.931C57.9959 111.384 58.1055 111.833 58.3273 112.237C58.5202 112.595 58.8198 112.894 59.1905 113.099C59.5561 113.301 59.9736 113.407 60.399 113.407C60.8244 113.407 61.2419 113.301 61.6076 113.099Z" fill="black"/>
<path d="M72.2858 113.395H71.303V115.859H67.7173V106.003H72.8967C73.7802 105.988 74.6573 106.144 75.4731 106.459C76.1568 106.732 76.742 107.181 77.1598 107.752C77.5613 108.345 77.7646 109.036 77.7441 109.736C77.7595 110.384 77.5801 111.024 77.2261 111.584C76.8687 112.119 76.3522 112.547 75.7387 112.816L77.9831 115.859H74.0919L72.2858 113.395ZM73.7068 108.873C73.3989 108.647 73.0097 108.536 72.6178 108.565H71.2897V110.881H72.6178C73.0097 110.91 73.3989 110.8 73.7068 110.573C73.9423 110.344 74.0736 110.04 74.0736 109.723C74.0736 109.407 73.9423 109.102 73.7068 108.873Z" fill="black"/>
<path d="M87.9035 113.358V115.822H79.0454V105.966H87.7043V108.43H82.578V109.588H87.0801V111.99H82.578V113.284L87.9035 113.358Z" fill="black"/>
<path d="M338.229 116.795C338.229 117.131 338.121 117.46 337.92 117.74C337.719 118.019 337.432 118.237 337.098 118.366C336.763 118.495 336.394 118.528 336.039 118.463C335.683 118.397 335.357 118.235 335.1 117.997C334.844 117.76 334.669 117.457 334.599 117.127C334.528 116.797 334.564 116.455 334.703 116.145C334.842 115.834 335.077 115.568 335.378 115.382C335.679 115.195 336.034 115.095 336.396 115.095C336.637 115.093 336.876 115.136 337.1 115.221C337.323 115.306 337.526 115.431 337.696 115.589C337.867 115.748 338.002 115.936 338.093 116.143C338.184 116.35 338.231 116.571 338.229 116.795Z" fill="black"/>
<path d="M347.804 118.495C348.816 118.495 349.637 117.734 349.637 116.795C349.637 115.856 348.816 115.095 347.804 115.095C346.792 115.095 345.971 115.856 345.971 116.795C345.971 117.734 346.792 118.495 347.804 118.495Z" fill="black"/>
<path d="M334.869 104.795L333.634 101.099H329.012V102.257H332.704L336.17 112.717H348.322L349.384 105.793L334.869 104.795ZM347.366 111.916L337.02 111.818L335.068 105.658L348.202 106.557L347.366 111.916Z" fill="black"/>
<path d="M200.045 195.78C200.048 196.453 199.834 197.112 199.433 197.673C199.031 198.234 198.459 198.672 197.788 198.931C197.118 199.19 196.38 199.258 195.668 199.128C194.955 198.997 194.301 198.673 193.788 198.196C193.274 197.72 192.925 197.113 192.784 196.452C192.643 195.792 192.717 195.107 192.996 194.485C193.275 193.863 193.747 193.332 194.351 192.96C194.956 192.587 195.667 192.389 196.393 192.392C197.361 192.392 198.29 192.749 198.975 193.384C199.66 194.019 200.045 194.881 200.045 195.78Z" fill="#A02724"/>
<path opacity="0.9" d="M200.045 195.78C200.048 196.453 199.834 197.112 199.433 197.673C199.031 198.234 198.459 198.672 197.788 198.931C197.118 199.19 196.38 199.258 195.668 199.128C194.955 198.997 194.301 198.673 193.788 198.196C193.274 197.72 192.925 197.113 192.784 196.452C192.643 195.792 192.717 195.107 192.996 194.485C193.275 193.863 193.747 193.332 194.351 192.96C194.956 192.587 195.667 192.389 196.393 192.392C197.361 192.392 198.29 192.749 198.975 193.384C199.66 194.019 200.045 194.881 200.045 195.78Z" fill="white"/>
<path d="M210.722 195.78C210.725 196.453 210.512 197.111 210.111 197.672C209.71 198.233 209.138 198.671 208.469 198.93C207.799 199.189 207.062 199.258 206.35 199.129C205.638 198.999 204.984 198.676 204.47 198.201C203.956 197.726 203.606 197.12 203.463 196.46C203.32 195.8 203.392 195.116 203.669 194.494C203.946 193.872 204.416 193.34 205.019 192.966C205.622 192.591 206.332 192.392 207.057 192.392C207.538 192.39 208.014 192.476 208.459 192.646C208.903 192.816 209.308 193.065 209.648 193.38C209.989 193.694 210.259 194.068 210.443 194.48C210.628 194.892 210.722 195.334 210.722 195.78Z" fill="#A02724"/>
<path opacity="0.9" d="M210.722 195.78C210.725 196.453 210.512 197.111 210.111 197.672C209.71 198.233 209.138 198.671 208.469 198.93C207.799 199.189 207.062 199.258 206.35 199.129C205.638 198.999 204.984 198.676 204.47 198.201C203.956 197.726 203.606 197.12 203.463 196.46C203.32 195.8 203.392 195.116 203.669 194.494C203.946 193.872 204.416 193.34 205.019 192.966C205.622 192.591 206.332 192.392 207.057 192.392C207.538 192.39 208.014 192.476 208.459 192.646C208.903 192.816 209.308 193.065 209.648 193.38C209.989 193.694 210.259 194.068 210.443 194.48C210.628 194.892 210.722 195.334 210.722 195.78Z" fill="white"/>
<path d="M221.48 195.965C221.482 196.638 221.27 197.296 220.869 197.857C220.467 198.418 219.896 198.856 219.226 199.115C218.557 199.374 217.819 199.443 217.107 199.313C216.396 199.184 215.741 198.861 215.227 198.386C214.713 197.911 214.363 197.305 214.22 196.645C214.078 195.985 214.15 195.301 214.427 194.678C214.704 194.056 215.174 193.525 215.777 193.15C216.38 192.776 217.089 192.576 217.814 192.576C218.784 192.576 219.714 192.933 220.401 193.568C221.089 194.203 221.476 195.065 221.48 195.965Z" fill="#A02724"/>
<path opacity="0.9" d="M221.48 195.965C221.482 196.638 221.27 197.296 220.869 197.857C220.467 198.418 219.896 198.856 219.226 199.115C218.557 199.374 217.819 199.443 217.107 199.313C216.396 199.184 215.741 198.861 215.227 198.386C214.713 197.911 214.363 197.305 214.22 196.645C214.078 195.985 214.15 195.301 214.427 194.678C214.704 194.056 215.174 193.525 215.777 193.15C216.38 192.776 217.089 192.576 217.814 192.576C218.784 192.576 219.714 192.933 220.401 193.568C221.089 194.203 221.476 195.065 221.48 195.965Z" fill="white"/>
<path d="M232.263 195.965C232.266 196.638 232.053 197.296 231.652 197.857C231.251 198.418 230.679 198.856 230.009 199.115C229.34 199.374 228.603 199.443 227.891 199.313C227.179 199.184 226.524 198.861 226.01 198.386C225.496 197.911 225.146 197.305 225.004 196.645C224.861 195.985 224.933 195.301 225.21 194.678C225.487 194.056 225.957 193.525 226.56 193.15C227.163 192.776 227.872 192.576 228.598 192.576C229.566 192.58 230.495 192.937 231.181 193.572C231.867 194.206 232.256 195.066 232.263 195.965Z" fill="#A02724"/>
<path opacity="0.9" d="M232.263 195.965C232.266 196.638 232.053 197.296 231.652 197.857C231.251 198.418 230.679 198.856 230.009 199.115C229.34 199.374 228.603 199.443 227.891 199.313C227.179 199.184 226.524 198.861 226.01 198.386C225.496 197.911 225.146 197.305 225.004 196.645C224.861 195.985 224.933 195.301 225.21 194.678C225.487 194.056 225.957 193.525 226.56 193.15C227.163 192.776 227.872 192.576 228.598 192.576C229.566 192.58 230.495 192.937 231.181 193.572C231.867 194.206 232.256 195.066 232.263 195.965Z" fill="white"/>
<path d="M242.994 195.965C242.997 196.638 242.784 197.296 242.383 197.857C241.981 198.418 241.41 198.856 240.74 199.115C240.071 199.374 239.333 199.443 238.622 199.313C237.91 199.184 237.255 198.861 236.741 198.386C236.227 197.911 235.877 197.305 235.735 196.645C235.592 195.985 235.664 195.301 235.941 194.678C236.218 194.056 236.688 193.525 237.291 193.15C237.894 192.776 238.603 192.576 239.328 192.576C240.297 192.58 241.226 192.937 241.912 193.572C242.598 194.206 242.987 195.066 242.994 195.965Z" fill="#A02724"/>
<path opacity="0.5" d="M242.994 195.965C242.997 196.638 242.784 197.296 242.383 197.857C241.981 198.418 241.41 198.856 240.74 199.115C240.071 199.374 239.333 199.443 238.622 199.313C237.91 199.184 237.255 198.861 236.741 198.386C236.227 197.911 235.877 197.305 235.735 196.645C235.592 195.985 235.664 195.301 235.941 194.678C236.218 194.056 236.688 193.525 237.291 193.15C237.894 192.776 238.603 192.576 239.328 192.576C240.297 192.58 241.226 192.937 241.912 193.572C242.598 194.206 242.987 195.066 242.994 195.965Z" fill="white"/>
<path d="M253.751 195.965C253.754 196.638 253.541 197.296 253.14 197.857C252.739 198.418 252.167 198.856 251.498 199.115C250.828 199.374 250.091 199.443 249.379 199.313C248.667 199.184 248.013 198.861 247.499 198.386C246.985 197.911 246.634 197.305 246.492 196.645C246.349 195.985 246.421 195.301 246.698 194.678C246.975 194.056 247.445 193.525 248.048 193.15C248.651 192.776 249.36 192.576 250.086 192.576C251.055 192.58 251.983 192.937 252.669 193.572C253.355 194.206 253.744 195.066 253.751 195.965Z" fill="#A02724"/>
<path opacity="0.9" d="M253.751 195.965C253.754 196.638 253.541 197.296 253.14 197.857C252.739 198.418 252.167 198.856 251.498 199.115C250.828 199.374 250.091 199.443 249.379 199.313C248.667 199.184 248.013 198.861 247.499 198.386C246.985 197.911 246.634 197.305 246.492 196.645C246.349 195.985 246.421 195.301 246.698 194.678C246.975 194.056 247.445 193.525 248.048 193.15C248.651 192.776 249.36 192.576 250.086 192.576C251.055 192.58 251.983 192.937 252.669 193.572C253.355 194.206 253.744 195.066 253.751 195.965Z" fill="white"/>
<path d="M264.509 195.965C264.511 196.638 264.298 197.296 263.897 197.857C263.496 198.418 262.925 198.856 262.255 199.115C261.586 199.374 260.848 199.443 260.136 199.313C259.424 199.184 258.77 198.861 258.256 198.386C257.742 197.911 257.392 197.305 257.249 196.645C257.107 195.985 257.178 195.301 257.455 194.678C257.733 194.056 258.202 193.525 258.805 193.15C259.408 192.776 260.118 192.576 260.843 192.576C261.812 192.58 262.74 192.937 263.426 193.572C264.113 194.206 264.502 195.066 264.509 195.965Z" fill="#A02724"/>
<path opacity="0.9" d="M264.509 195.965C264.511 196.638 264.298 197.296 263.897 197.857C263.496 198.418 262.925 198.856 262.255 199.115C261.586 199.374 260.848 199.443 260.136 199.313C259.424 199.184 258.77 198.861 258.256 198.386C257.742 197.911 257.392 197.305 257.249 196.645C257.107 195.985 257.178 195.301 257.455 194.678C257.733 194.056 258.202 193.525 258.805 193.15C259.408 192.776 260.118 192.576 260.843 192.576C261.812 192.58 262.74 192.937 263.426 193.572C264.113 194.206 264.502 195.066 264.509 195.965Z" fill="white"/>
<path d="M275.252 195.965C275.255 196.638 275.042 197.297 274.64 197.858C274.239 198.419 273.666 198.857 272.996 199.116C272.326 199.375 271.587 199.443 270.875 199.312C270.163 199.182 269.509 198.858 268.995 198.381C268.482 197.905 268.132 197.298 267.991 196.637C267.85 195.976 267.924 195.292 268.203 194.67C268.482 194.048 268.954 193.517 269.559 193.144C270.164 192.772 270.874 192.574 271.6 192.577C272.568 192.58 273.495 192.938 274.179 193.572C274.863 194.207 275.249 195.067 275.252 195.965Z" fill="#A02724"/>
<path opacity="0.9" d="M275.252 195.965C275.255 196.638 275.042 197.297 274.64 197.858C274.239 198.419 273.666 198.857 272.996 199.116C272.326 199.375 271.587 199.443 270.875 199.312C270.163 199.182 269.509 198.858 268.995 198.381C268.482 197.905 268.132 197.298 267.991 196.637C267.85 195.976 267.924 195.292 268.203 194.67C268.482 194.048 268.954 193.517 269.559 193.144C270.164 192.772 270.874 192.574 271.6 192.577C272.568 192.58 273.495 192.938 274.179 193.572C274.863 194.207 275.249 195.067 275.252 195.965Z" fill="white"/>
<path d="M162.952 169.476C161.405 169.173 159.921 168.64 158.556 167.899L161.026 162.712C162.17 163.322 163.393 163.794 164.665 164.117C165.922 164.454 167.222 164.633 168.53 164.647C169.301 164.689 170.073 164.589 170.801 164.351C170.996 164.294 171.167 164.181 171.288 164.028C171.41 163.875 171.476 163.691 171.478 163.501C171.478 163.057 171.186 162.725 170.588 162.503C169.631 162.194 168.65 161.951 167.653 161.776C166.166 161.509 164.701 161.142 163.271 160.68C162.097 160.283 161.047 159.623 160.216 158.758C159.29 157.748 158.815 156.447 158.888 155.123C158.876 153.834 159.293 152.573 160.083 151.513C160.99 150.354 162.24 149.463 163.682 148.951C165.525 148.281 167.494 147.962 169.473 148.014C171.018 148.015 172.559 148.172 174.068 148.483C175.462 148.75 176.806 149.211 178.052 149.85L175.768 154.988C173.816 154.016 171.647 153.48 169.433 153.423C167.467 153.423 166.485 153.866 166.485 154.754C166.485 155.172 166.777 155.493 167.361 155.702C168.302 155.996 169.265 156.223 170.243 156.38C171.731 156.615 173.197 156.961 174.626 157.415C175.814 157.806 176.881 158.462 177.733 159.324C178.661 160.329 179.136 161.626 179.061 162.946C179.073 164.233 178.651 165.491 177.853 166.544C176.943 167.696 175.7 168.585 174.267 169.107C172.425 169.78 170.456 170.102 168.477 170.055C166.617 170.063 164.763 169.869 162.952 169.476Z" fill="black"/>
<path d="M196.804 165.903H188.172L186.645 169.599H178.849L188.783 148.507H196.326L206.26 169.599H198.292L196.804 165.903ZM194.693 160.79L192.488 155.48L190.284 160.79H194.693Z" fill="black"/>
<path d="M207.495 148.495H215.158V164.068H225.424V169.587H207.495V148.495Z" fill="black"/>
<path d="M246.434 164.228V169.587H227.522V148.495H246.009V153.854H235.066V156.318H244.681V161.431H235.066V164.215L246.434 164.228Z" fill="black"/>
<path d="M391.125 73.65H24.7407V98.8817H391.125V73.65Z" fill="#A02724"/>
<g opacity="0.7">
<path d="M391.125 73.65H24.7407V98.8817H391.125V73.65Z" fill="white"/>
</g>
<path d="M370.46 93.1774H66.6145C64.6385 93.1774 62.7434 92.4492 61.3462 91.1531C59.949 89.8569 59.1641 88.0989 59.1641 86.2658C59.1641 84.4327 59.949 82.6747 61.3462 81.3786C62.7434 80.0824 64.6385 79.3542 66.6145 79.3542H370.46C372.436 79.3542 374.331 80.0824 375.728 81.3786C377.126 82.6747 377.911 84.4327 377.911 86.2658C377.911 88.0989 377.126 89.8569 375.728 91.1531C374.331 92.4492 372.436 93.1774 370.46 93.1774Z" fill="black"/>
<path opacity="0.7" d="M370.46 93.1774H66.6145C64.6385 93.1774 62.7434 92.4492 61.3462 91.1531C59.949 89.8569 59.1641 88.0989 59.1641 86.2658C59.1641 84.4327 59.949 82.6747 61.3462 81.3786C62.7434 80.0824 64.6385 79.3542 66.6145 79.3542H370.46C372.436 79.3542 374.331 80.0824 375.728 81.3786C377.126 82.6747 377.911 84.4327 377.911 86.2658C377.911 88.0989 377.126 89.8569 375.728 91.1531C374.331 92.4492 372.436 93.1774 370.46 93.1774Z" fill="white"/>
<path d="M368.096 80.9682L369.956 84.4548L374.099 85.0092L371.098 87.732L371.802 91.5635L368.096 89.7525L364.378 91.5635L365.095 87.732L362.094 85.0092L366.237 84.4548L368.096 80.9682Z" fill="#A02724"/>
<path d="M201.652 83.5677H68.4477C67.1421 83.5677 66.0837 84.5496 66.0837 85.7607V87.1159C66.0837 88.3271 67.1421 89.3089 68.4477 89.3089H201.652C202.957 89.3089 204.016 88.3271 204.016 87.1159V85.7607C204.016 84.5496 202.957 83.5677 201.652 83.5677Z" fill="#A02724"/>
<path d="M44.1312 79.0215L35.9238 86.6354H38.3276V93.4977H49.9348V86.6354H52.3253L44.1312 79.0215Z" fill="#A02724"/>
<path d="M124.398 135.091H72.2324C71.9034 135.092 71.5773 135.033 71.2729 134.918C70.9684 134.802 70.6916 134.632 70.4584 134.417C70.2251 134.201 70.04 133.945 69.9137 133.664C69.7874 133.382 69.7224 133.08 69.7224 132.774C69.7224 132.157 69.9869 131.565 70.4576 131.128C70.9283 130.691 71.5667 130.446 72.2324 130.446H124.398C125.062 130.449 125.697 130.696 126.165 131.132C126.633 131.569 126.895 132.159 126.895 132.774C126.895 133.389 126.632 133.978 126.164 134.412C125.696 134.847 125.061 135.091 124.398 135.091Z" fill="#A02724"/>
<path d="M124.398 144.38H72.2325C71.9035 144.382 71.5774 144.323 71.2729 144.207C70.9685 144.092 70.6917 143.921 70.4584 143.706C70.2252 143.491 70.0401 143.235 69.9138 142.953C69.7875 142.671 69.7224 142.369 69.7224 142.064C69.7207 141.758 69.7844 141.454 69.9099 141.171C70.0355 140.888 70.2203 140.63 70.4537 140.414C70.6871 140.197 70.9645 140.026 71.2698 139.909C71.5752 139.793 71.9024 139.734 72.2325 139.735H124.398C124.727 139.735 125.053 139.796 125.357 139.913C125.661 140.03 125.937 140.202 126.169 140.418C126.401 140.634 126.584 140.891 126.709 141.174C126.834 141.456 126.897 141.759 126.895 142.064C126.895 142.678 126.632 143.267 126.164 143.702C125.696 144.136 125.061 144.38 124.398 144.38Z" fill="#A02724"/>
<path d="M124.398 153.669H72.2325C71.9035 153.671 71.5774 153.612 71.2729 153.497C70.9685 153.381 70.6917 153.211 70.4584 152.995C70.2252 152.78 70.0401 152.524 69.9138 152.242C69.7875 151.961 69.7224 151.658 69.7224 151.353C69.7207 151.047 69.7844 150.743 69.9099 150.46C70.0355 150.177 70.2203 149.92 70.4537 149.703C70.6871 149.487 70.9645 149.315 71.2698 149.199C71.5752 149.082 71.9024 149.023 72.2325 149.025H124.398C124.727 149.025 125.053 149.085 125.357 149.202C125.661 149.319 125.937 149.491 126.169 149.707C126.401 149.924 126.584 150.181 126.709 150.463C126.834 150.745 126.897 151.048 126.895 151.353C126.895 151.967 126.632 152.557 126.164 152.991C125.696 153.425 125.061 153.669 124.398 153.669Z" fill="#A02724"/>
<path d="M124.398 162.959H72.2324C71.5667 162.959 70.9283 162.713 70.4576 162.277C69.9869 161.84 69.7224 161.248 69.7224 160.63C69.7224 160.325 69.7874 160.023 69.9137 159.741C70.04 159.459 70.2251 159.203 70.4584 158.988C70.6916 158.773 70.9684 158.602 71.2729 158.487C71.5773 158.371 71.9034 158.312 72.2324 158.314H124.398C125.061 158.314 125.696 158.558 126.164 158.992C126.632 159.427 126.895 160.016 126.895 160.63C126.895 161.246 126.633 161.836 126.165 162.272C125.697 162.709 125.062 162.956 124.398 162.959Z" fill="#A02724"/>
<path d="M124.398 172.236H72.2324C71.5667 172.236 70.9283 171.991 70.4576 171.554C69.9869 171.117 69.7224 170.525 69.7224 169.907C69.7224 169.602 69.7874 169.3 69.9137 169.018C70.04 168.736 70.2251 168.48 70.4584 168.265C70.6916 168.05 70.9684 167.88 71.2729 167.764C71.5773 167.648 71.9034 167.59 72.2324 167.591H124.398C125.061 167.591 125.696 167.835 126.164 168.27C126.632 168.704 126.895 169.293 126.895 169.907C126.895 170.523 126.633 171.113 126.165 171.55C125.697 171.986 125.062 172.233 124.398 172.236Z" fill="#A02724"/>
<path d="M124.398 181.538H72.2324C71.5667 181.538 70.9283 181.292 70.4576 180.856C69.9869 180.419 69.7224 179.827 69.7224 179.209C69.7224 178.904 69.7874 178.602 69.9137 178.32C70.04 178.038 70.2251 177.782 70.4584 177.567C70.6916 177.352 70.9684 177.181 71.2729 177.066C71.5773 176.95 71.9034 176.891 72.2324 176.893H124.398C125.061 176.893 125.696 177.137 126.164 177.571C126.632 178.006 126.895 178.595 126.895 179.209C126.895 179.825 126.633 180.415 126.165 180.851C125.697 181.288 125.062 181.534 124.398 181.538Z" fill="#A02724"/>
<path d="M124.398 190.827H72.2324C71.5667 190.827 70.9283 190.582 70.4576 190.145C69.9869 189.708 69.7224 189.116 69.7224 188.499C69.7224 188.193 69.7874 187.891 69.9137 187.609C70.04 187.328 70.2251 187.072 70.4584 186.856C70.6916 186.641 70.9684 186.471 71.2729 186.355C71.5773 186.239 71.9034 186.181 72.2324 186.182H124.398C125.061 186.182 125.696 186.426 126.164 186.861C126.632 187.295 126.895 187.884 126.895 188.499C126.895 189.114 126.633 189.704 126.165 190.141C125.697 190.577 125.062 190.824 124.398 190.827Z" fill="#A02724"/>
<path d="M124.398 200.116H72.2324C71.5667 200.116 70.9283 199.871 70.4576 199.434C69.9869 198.998 69.7224 198.405 69.7224 197.788C69.7224 197.483 69.7874 197.181 69.9137 196.899C70.04 196.617 70.2251 196.361 70.4584 196.146C70.6916 195.931 70.9684 195.76 71.2729 195.644C71.5773 195.529 71.9034 195.47 72.2324 195.472H124.398C125.061 195.472 125.696 195.716 126.164 196.15C126.632 196.585 126.895 197.174 126.895 197.788C126.895 198.403 126.633 198.994 126.165 199.43C125.697 199.866 125.062 200.113 124.398 200.116Z" fill="#A02724"/>
<g opacity="0.5">
<path d="M124.398 135.091H72.2324C71.9034 135.092 71.5773 135.033 71.2729 134.918C70.9684 134.802 70.6916 134.632 70.4584 134.417C70.2251 134.201 70.04 133.945 69.9137 133.664C69.7874 133.382 69.7224 133.08 69.7224 132.774C69.7224 132.157 69.9869 131.565 70.4576 131.128C70.9283 130.691 71.5667 130.446 72.2324 130.446H124.398C125.062 130.449 125.697 130.696 126.165 131.132C126.633 131.569 126.895 132.159 126.895 132.774C126.895 133.389 126.632 133.978 126.164 134.412C125.696 134.847 125.061 135.091 124.398 135.091Z" fill="white"/>
<path d="M124.399 144.38H72.233C71.904 144.382 71.5779 144.323 71.2734 144.207C70.969 144.092 70.6922 143.921 70.4589 143.706C70.2256 143.491 70.0406 143.235 69.9143 142.953C69.788 142.671 69.7229 142.369 69.7229 142.064C69.7212 141.758 69.7849 141.454 69.9104 141.171C70.0359 140.888 70.2208 140.63 70.4542 140.414C70.6876 140.197 70.965 140.026 71.2703 139.909C71.5757 139.793 71.9028 139.734 72.233 139.735H124.399C124.728 139.735 125.054 139.796 125.358 139.913C125.661 140.03 125.937 140.202 126.169 140.418C126.401 140.634 126.585 140.891 126.709 141.174C126.834 141.456 126.897 141.759 126.896 142.064C126.896 142.678 126.633 143.267 126.164 143.702C125.696 144.136 125.061 144.38 124.399 144.38Z" fill="white"/>
<path d="M124.399 153.669H72.233C71.904 153.671 71.5779 153.612 71.2734 153.497C70.969 153.381 70.6922 153.211 70.4589 152.995C70.2256 152.78 70.0406 152.524 69.9143 152.242C69.788 151.961 69.7229 151.658 69.7229 151.353C69.7212 151.047 69.7849 150.743 69.9104 150.46C70.0359 150.177 70.2208 149.92 70.4542 149.703C70.6876 149.487 70.965 149.315 71.2703 149.199C71.5757 149.082 71.9028 149.023 72.233 149.025H124.399C124.728 149.025 125.054 149.085 125.358 149.202C125.661 149.319 125.937 149.491 126.169 149.707C126.401 149.924 126.585 150.181 126.709 150.463C126.834 150.746 126.897 151.048 126.896 151.353C126.896 151.968 126.633 152.557 126.164 152.991C125.696 153.425 125.061 153.669 124.399 153.669Z" fill="white"/>
<path d="M124.399 162.959H72.2329C71.5672 162.959 70.9288 162.713 70.4581 162.277C69.9874 161.84 69.7229 161.248 69.7229 160.63C69.7229 160.325 69.7879 160.023 69.9142 159.741C70.0405 159.459 70.2256 159.203 70.4589 158.988C70.6921 158.773 70.9689 158.603 71.2734 158.487C71.5778 158.371 71.9039 158.312 72.2329 158.314H124.399C125.061 158.314 125.696 158.558 126.164 158.992C126.633 159.427 126.896 160.016 126.896 160.63C126.896 161.246 126.633 161.836 126.165 162.272C125.697 162.709 125.062 162.956 124.399 162.959Z" fill="white"/>
<path d="M124.399 172.236H72.2329C71.5672 172.236 70.9288 171.991 70.4581 171.554C69.9874 171.117 69.7229 170.525 69.7229 169.907C69.7229 169.602 69.7879 169.3 69.9142 169.018C70.0405 168.736 70.2256 168.48 70.4589 168.265C70.6921 168.05 70.9689 167.88 71.2734 167.764C71.5778 167.648 71.9039 167.589 72.2329 167.591H124.399C125.061 167.591 125.696 167.835 126.164 168.27C126.633 168.704 126.896 169.293 126.896 169.907C126.896 170.523 126.633 171.113 126.165 171.549C125.697 171.986 125.062 172.233 124.399 172.236Z" fill="white"/>
<path d="M124.399 181.538H72.2329C71.5672 181.538 70.9288 181.292 70.4581 180.856C69.9874 180.419 69.7229 179.827 69.7229 179.209C69.7229 178.904 69.7879 178.602 69.9142 178.32C70.0405 178.038 70.2256 177.782 70.4589 177.567C70.6921 177.352 70.9689 177.181 71.2734 177.066C71.5778 176.95 71.9039 176.891 72.2329 176.893H124.399C125.061 176.893 125.696 177.137 126.164 177.571C126.633 178.006 126.896 178.595 126.896 179.209C126.896 179.825 126.633 180.415 126.165 180.851C125.697 181.288 125.062 181.534 124.399 181.538Z" fill="white"/>
<path d="M124.399 190.827H72.2329C71.5672 190.827 70.9288 190.582 70.4581 190.145C69.9874 189.708 69.7229 189.116 69.7229 188.499C69.7229 188.193 69.7879 187.891 69.9142 187.609C70.0405 187.328 70.2256 187.072 70.4589 186.856C70.6921 186.641 70.9689 186.471 71.2734 186.355C71.5778 186.239 71.9039 186.181 72.2329 186.182H124.399C125.061 186.182 125.696 186.426 126.164 186.861C126.633 187.295 126.896 187.884 126.896 188.499C126.896 189.114 126.633 189.704 126.165 190.141C125.697 190.577 125.062 190.824 124.399 190.827Z" fill="white"/>
<path d="M124.399 200.116H72.2329C71.5672 200.116 70.9288 199.871 70.4581 199.435C69.9874 198.998 69.7229 198.406 69.7229 197.788C69.7229 197.483 69.7879 197.181 69.9142 196.899C70.0405 196.617 70.2256 196.361 70.4589 196.146C70.6921 195.931 70.9689 195.76 71.2734 195.645C71.5778 195.529 71.9039 195.47 72.2329 195.472H124.399C125.061 195.472 125.696 195.716 126.164 196.15C126.633 196.585 126.896 197.174 126.896 197.788C126.896 198.403 126.633 198.994 126.165 199.43C125.697 199.866 125.062 200.113 124.399 200.116Z" fill="white"/>
</g>
<path d="M202.608 213.09H32.6836V263.134H202.608V213.09Z" fill="#A02724"/>
<g opacity="0.7">
<path d="M202.608 213.09H32.6836V263.134H202.608V213.09Z" fill="white"/>
</g>
<path d="M71.303 217.771H41.7671V245.171H71.303V217.771Z" fill="#A02724"/>
<path d="M69.696 247.327H43.0818V249.249H69.696V247.327Z" fill="#A02724"/>
<path opacity="0.2" d="M69.696 247.327H43.0818V249.249H69.696V247.327Z" fill="white"/>
<path d="M69.696 250.013H43.0818V251.935H69.696V250.013Z" fill="#A02724"/>
<path opacity="0.2" d="M69.696 250.013H43.0818V251.935H69.696V250.013Z" fill="white"/>
<path d="M56.0436 256.789H43.0818V258.711H56.0436V256.789Z" fill="#A02724"/>
<path opacity="0.2" d="M56.0436 256.789H43.0818V258.711H56.0436V256.789Z" fill="white"/>
<path d="M51.9532 253.229H43.0818V255.853H51.9532V253.229Z" fill="#A02724"/>
<path opacity="0.2" d="M51.9532 253.229H43.0818V255.853H51.9532V253.229Z" fill="white"/>
<path d="M192.594 217.771H163.058V245.171H192.594V217.771Z" fill="#A02724"/>
<path d="M191.001 247.327H164.387V249.249H191.001V247.327Z" fill="#A02724"/>
<path opacity="0.2" d="M191.001 247.327H164.387V249.249H191.001V247.327Z" fill="white"/>
<path d="M191.001 250.013H164.387V251.935H191.001V250.013Z" fill="#A02724"/>
<path opacity="0.2" d="M191.001 250.013H164.387V251.935H191.001V250.013Z" fill="white"/>
<path d="M177.349 256.789H164.387V258.711H177.349V256.789Z" fill="#A02724"/>
<path opacity="0.2" d="M177.349 256.789H164.387V258.711H177.349V256.789Z" fill="white"/>
<path d="M173.258 253.229H164.387V255.853H173.258V253.229Z" fill="#A02724"/>
<path opacity="0.2" d="M173.258 253.229H164.387V255.853H173.258V253.229Z" fill="white"/>
<path d="M113.07 217.771H83.5342V245.171H113.07V217.771Z" fill="#A02724"/>
<path d="M111.477 247.327H84.8628V249.249H111.477V247.327Z" fill="#A02724"/>
<path opacity="0.2" d="M111.477 247.327H84.8628V249.249H111.477V247.327Z" fill="white"/>
<path d="M111.477 250.013H84.8628V251.935H111.477V250.013Z" fill="#A02724"/>
<path opacity="0.2" d="M111.477 250.013H84.8628V251.935H111.477V250.013Z" fill="white"/>
<path d="M97.8246 256.789H84.8628V258.711H97.8246V256.789Z" fill="#A02724"/>
<path opacity="0.2" d="M97.8246 256.789H84.8628V258.711H97.8246V256.789Z" fill="white"/>
<path d="M93.7342 253.229H84.8628V255.853H93.7342V253.229Z" fill="#A02724"/>
<path opacity="0.2" d="M93.7342 253.229H84.8628V255.853H93.7342V253.229Z" fill="white"/>
<path d="M152.832 217.771H123.296V245.171H152.832V217.771Z" fill="#A02724"/>
<path d="M151.239 247.327H124.625V249.249H151.239V247.327Z" fill="#A02724"/>
<path opacity="0.2" d="M151.239 247.327H124.625V249.249H151.239V247.327Z" fill="white"/>
<path d="M151.239 250.013H124.625V251.935H151.239V250.013Z" fill="#A02724"/>
<path opacity="0.2" d="M151.239 250.013H124.625V251.935H151.239V250.013Z" fill="white"/>
<path d="M137.586 256.789H124.625V258.711H137.586V256.789Z" fill="#A02724"/>
<path opacity="0.2" d="M137.586 256.789H124.625V258.711H137.586V256.789Z" fill="white"/>
<path d="M133.496 253.229H124.625V255.853H133.496V253.229Z" fill="#A02724"/>
<path opacity="0.2" d="M133.496 253.229H124.625V255.853H133.496V253.229Z" fill="white"/>
<path d="M379.837 213.09H209.913V263.134H379.837V213.09Z" fill="#A02724"/>
<g opacity="0.7">
<path d="M379.837 213.09H209.913V263.134H379.837V213.09Z" fill="white"/>
</g>
<path d="M248.983 217.771H219.447V245.171H248.983V217.771Z" fill="#A02724"/>
<path d="M247.39 247.327H220.776V249.249H247.39V247.327Z" fill="#A02724"/>
<path opacity="0.2" d="M247.39 247.327H220.776V249.249H247.39V247.327Z" fill="white"/>
<path d="M247.39 250.013H220.776V251.935H247.39V250.013Z" fill="#A02724"/>
<path opacity="0.2" d="M247.39 250.013H220.776V251.935H247.39V250.013Z" fill="white"/>
<path d="M233.737 256.789H220.776V258.711H233.737V256.789Z" fill="#A02724"/>
<path opacity="0.2" d="M233.737 256.789H220.776V258.711H233.737V256.789Z" fill="white"/>
<path d="M229.647 253.229H220.776V255.853H229.647V253.229Z" fill="#A02724"/>
<path opacity="0.2" d="M229.647 253.229H220.776V255.853H229.647V253.229Z" fill="white"/>
<path d="M370.288 217.771H340.752V245.171H370.288V217.771Z" fill="#A02724"/>
<path d="M368.681 247.327H342.067V249.249H368.681V247.327Z" fill="#A02724"/>
<path opacity="0.2" d="M368.681 247.327H342.067V249.249H368.681V247.327Z" fill="white"/>
<path d="M368.681 250.013H342.067V251.935H368.681V250.013Z" fill="#A02724"/>
<path opacity="0.2" d="M368.681 250.013H342.067V251.935H368.681V250.013Z" fill="white"/>
<path d="M355.029 256.789H342.067V258.711H355.029V256.789Z" fill="#A02724"/>
<path opacity="0.2" d="M355.029 256.789H342.067V258.711H355.029V256.789Z" fill="white"/>
<path d="M350.938 253.229H342.067V255.853H350.938V253.229Z" fill="#A02724"/>
<path opacity="0.2" d="M350.938 253.229H342.067V255.853H350.938V253.229Z" fill="white"/>
<path d="M290.764 217.771H261.229V245.171H290.764V217.771Z" fill="#A02724"/>
<path d="M289.17 247.327H262.556V249.249H289.17V247.327Z" fill="#A02724"/>
<path opacity="0.2" d="M289.17 247.327H262.556V249.249H289.17V247.327Z" fill="white"/>
<path d="M289.17 250.013H262.556V251.935H289.17V250.013Z" fill="#A02724"/>
<path opacity="0.2" d="M289.17 250.013H262.556V251.935H289.17V250.013Z" fill="white"/>
<path d="M275.518 256.789H262.556V258.711H275.518V256.789Z" fill="#A02724"/>
<path opacity="0.2" d="M275.518 256.789H262.556V258.711H275.518V256.789Z" fill="white"/>
<path d="M271.428 253.229H262.556V255.853H271.428V253.229Z" fill="#A02724"/>
<path opacity="0.2" d="M271.428 253.229H262.556V255.853H271.428V253.229Z" fill="white"/>
<path d="M330.526 217.771H300.99V245.171H330.526V217.771Z" fill="#A02724"/>
<path d="M328.919 247.327H302.305V249.249H328.919V247.327Z" fill="#A02724"/>
<path opacity="0.2" d="M328.919 247.327H302.305V249.249H328.919V247.327Z" fill="white"/>
<path d="M328.919 250.013H302.305V251.935H328.919V250.013Z" fill="#A02724"/>
<path opacity="0.2" d="M328.919 250.013H302.305V251.935H328.919V250.013Z" fill="white"/>
<path d="M315.267 256.789H302.305V258.711H315.267V256.789Z" fill="#A02724"/>
<path opacity="0.2" d="M315.267 256.789H302.305V258.711H315.267V256.789Z" fill="white"/>
<path d="M311.177 253.229H302.305V255.853H311.177V253.229Z" fill="#A02724"/>
<path opacity="0.2" d="M311.177 253.229H302.305V255.853H311.177V253.229Z" fill="white"/>
<path d="M325.161 191.85C354.837 191.85 378.894 188.899 378.894 185.258C378.894 181.618 354.837 178.667 325.161 178.667C295.485 178.667 271.428 181.618 271.428 185.258C271.428 188.899 295.485 191.85 325.161 191.85Z" fill="#A02724"/>
<path opacity="0.1" d="M325.161 191.85C354.837 191.85 378.894 188.899 378.894 185.258C378.894 181.618 354.837 178.667 325.161 178.667C295.485 178.667 271.428 181.618 271.428 185.258C271.428 188.899 295.485 191.85 325.161 191.85Z" fill="black"/>
<path d="M330.539 182.585L324.789 170.782H311.375L313.434 181.87C313.463 182.014 313.458 182.163 313.418 182.304C313.378 182.446 313.305 182.578 313.203 182.69C313.101 182.802 312.974 182.892 312.83 182.953C312.686 183.013 312.529 183.043 312.371 183.041H306.501C306.35 183.041 306.205 183.097 306.097 183.196C305.99 183.295 305.93 183.43 305.93 183.571V184.162C305.93 184.231 305.945 184.3 305.974 184.365C306.002 184.429 306.044 184.487 306.097 184.536C306.15 184.586 306.213 184.625 306.283 184.651C306.352 184.678 306.426 184.692 306.501 184.692H330.141C330.222 184.692 330.303 184.677 330.378 184.647C330.453 184.618 330.52 184.575 330.577 184.521C330.634 184.467 330.679 184.403 330.709 184.333C330.739 184.263 330.753 184.188 330.752 184.113V183.509C330.753 183.19 330.681 182.875 330.539 182.585Z" fill="#A02724"/>
<path opacity="0.2" d="M312.597 182.992H306.501C306.35 182.992 306.205 183.047 306.097 183.147C305.99 183.246 305.93 183.381 305.93 183.521V184.113C305.93 184.253 305.99 184.388 306.097 184.487C306.205 184.587 306.35 184.642 306.501 184.642H330.141C330.306 184.642 330.465 184.581 330.582 184.473C330.699 184.364 330.765 184.217 330.765 184.063V183.46C330.764 183.298 330.742 183.136 330.698 182.979L312.597 182.992Z" fill="white"/>
<path d="M331.309 182.585L325.559 170.782H324.802L330.539 182.585C330.671 182.865 330.739 183.167 330.738 183.472V184.076C330.74 184.151 330.726 184.226 330.696 184.296C330.666 184.366 330.621 184.43 330.564 184.484C330.507 184.538 330.439 184.581 330.364 184.61C330.289 184.64 330.209 184.655 330.128 184.655H330.885C330.966 184.655 331.048 184.64 331.123 184.611C331.199 184.581 331.268 184.539 331.326 184.485C331.384 184.431 331.43 184.367 331.461 184.297C331.493 184.227 331.509 184.152 331.509 184.076V183.472C331.509 183.167 331.441 182.865 331.309 182.585Z" fill="#A02724"/>
<g opacity="0.2">
<path d="M331.309 182.585L325.559 170.782H324.802L330.539 182.585C330.671 182.865 330.739 183.167 330.738 183.472V184.076C330.74 184.151 330.726 184.226 330.696 184.296C330.666 184.366 330.621 184.43 330.564 184.484C330.507 184.538 330.439 184.581 330.364 184.61C330.289 184.64 330.209 184.655 330.128 184.655H330.885C330.966 184.655 331.048 184.64 331.123 184.611C331.199 184.581 331.268 184.539 331.326 184.485C331.384 184.431 331.43 184.367 331.461 184.297C331.493 184.227 331.509 184.152 331.509 184.076V183.472C331.509 183.167 331.441 182.865 331.309 182.585Z" fill="black"/>
</g>
<path opacity="0.2" d="M324.803 170.782H311.376L311.907 173.603H326.184L324.803 170.782Z" fill="black"/>
<path d="M345.374 172.026H288.042C287.774 172.03 287.508 171.98 287.262 171.881C287.016 171.782 286.795 171.636 286.614 171.452C286.434 171.268 286.297 171.05 286.213 170.814C286.13 170.578 286.101 170.327 286.129 170.08L289.755 131.678C289.81 131.152 290.072 130.662 290.491 130.304C290.91 129.945 291.456 129.741 292.026 129.731H349.332C349.599 129.728 349.865 129.778 350.11 129.877C350.356 129.976 350.575 130.123 350.755 130.307C350.935 130.491 351.07 130.708 351.152 130.945C351.234 131.181 351.261 131.431 351.231 131.678L347.618 170.08C347.558 170.6 347.298 171.083 346.886 171.44C346.474 171.798 345.938 172.006 345.374 172.026Z" fill="black"/>
<path d="M286.567 165.928L286.169 170.08C286.141 170.327 286.169 170.577 286.253 170.814C286.337 171.05 286.473 171.268 286.654 171.452C286.835 171.635 287.055 171.782 287.301 171.881C287.547 171.98 287.813 172.03 288.081 172.026H345.374C345.944 172.015 346.491 171.81 346.911 171.452C347.331 171.094 347.597 170.606 347.658 170.08L348.043 165.928H286.567Z" fill="#A02724"/>
<path d="M346.025 164.758H288.812C288.666 164.76 288.521 164.734 288.387 164.68C288.253 164.627 288.132 164.547 288.034 164.446C287.936 164.346 287.862 164.227 287.818 164.098C287.773 163.969 287.759 163.833 287.776 163.698L290.764 131.961C290.807 131.68 290.953 131.42 291.178 131.227C291.403 131.034 291.693 130.919 291.999 130.902H349.212C349.359 130.897 349.505 130.922 349.64 130.975C349.775 131.028 349.896 131.108 349.995 131.208C350.094 131.309 350.167 131.429 350.211 131.559C350.255 131.689 350.267 131.826 350.248 131.961L347.26 163.698C347.217 163.98 347.071 164.239 346.846 164.432C346.621 164.625 346.331 164.74 346.025 164.758Z" fill="#A02724"/>
<path d="M346.025 164.758H288.812C288.666 164.76 288.521 164.734 288.387 164.68C288.253 164.627 288.132 164.547 288.034 164.446C287.936 164.346 287.862 164.227 287.818 164.098C287.773 163.969 287.759 163.833 287.776 163.698L290.764 131.961C290.807 131.68 290.953 131.42 291.178 131.227C291.403 131.034 291.693 130.919 291.999 130.902H349.212C349.359 130.897 349.505 130.922 349.64 130.975C349.775 131.028 349.896 131.108 349.995 131.208C350.094 131.309 350.167 131.429 350.211 131.559C350.255 131.689 350.267 131.826 350.248 131.961L347.26 163.698C347.217 163.98 347.071 164.239 346.846 164.432C346.621 164.625 346.331 164.74 346.025 164.758Z" fill="#A02724"/>
<path d="M350.632 129.731H349.371C349.638 129.728 349.904 129.778 350.149 129.877C350.395 129.976 350.615 130.123 350.794 130.307C350.974 130.491 351.109 130.708 351.191 130.945C351.273 131.181 351.3 131.431 351.27 131.678L347.658 170.08C347.596 170.606 347.331 171.094 346.911 171.452C346.49 171.81 345.944 172.015 345.373 172.026H346.701C347.27 172.014 347.815 171.81 348.233 171.451C348.651 171.093 348.914 170.605 348.972 170.08L352.598 131.678C352.627 131.426 352.597 131.172 352.51 130.932C352.423 130.692 352.282 130.472 352.095 130.287C351.909 130.103 351.682 129.957 351.429 129.861C351.177 129.765 350.905 129.721 350.632 129.731Z" fill="#A02724"/>
<path opacity="0.2" d="M350.632 129.731H349.371C349.638 129.728 349.904 129.778 350.149 129.877C350.395 129.976 350.615 130.123 350.794 130.307C350.974 130.491 351.109 130.708 351.191 130.945C351.273 131.181 351.3 131.431 351.27 131.678L347.658 170.08C347.596 170.606 347.331 171.094 346.911 171.452C346.49 171.81 345.944 172.015 345.373 172.026H346.701C347.27 172.014 347.815 171.81 348.233 171.451C348.651 171.093 348.914 170.605 348.972 170.08L352.598 131.678C352.627 131.426 352.597 131.172 352.51 130.932C352.423 130.692 352.282 130.472 352.095 130.287C351.909 130.103 351.682 129.957 351.429 129.861C351.177 129.765 350.905 129.721 350.632 129.731Z" fill="#A02724"/>
<g opacity="0.3">
<path d="M348.454 130.902H346.249L338.494 164.758H340.685L348.454 130.902Z" fill="white"/>
<path d="M336.263 164.758L344.019 130.902H335.759L328.003 164.758H336.263Z" fill="white"/>
</g>
<path opacity="0.6" d="M286.567 165.928L286.169 170.08C286.141 170.327 286.169 170.577 286.253 170.814C286.337 171.05 286.473 171.268 286.654 171.452C286.835 171.635 287.055 171.782 287.301 171.881C287.547 171.98 287.813 172.03 288.081 172.026H345.374C345.944 172.015 346.491 171.81 346.911 171.452C347.331 171.094 347.597 170.606 347.658 170.08L348.043 165.928H286.567Z" fill="white"/>
<path opacity="0.2" d="M350.632 129.768H349.371C349.638 129.765 349.904 129.815 350.149 129.914C350.395 130.013 350.615 130.16 350.794 130.344C350.974 130.528 351.109 130.745 351.191 130.982C351.273 131.218 351.3 131.468 351.27 131.715L347.658 170.117C347.596 170.643 347.331 171.131 346.911 171.489C346.49 171.848 345.944 172.052 345.373 172.063H346.701C347.27 172.051 347.815 171.847 348.233 171.488C348.651 171.13 348.914 170.642 348.972 170.117L352.598 131.715C352.627 131.463 352.597 131.209 352.51 130.969C352.423 130.729 352.282 130.509 352.095 130.324C351.909 130.14 351.682 129.994 351.429 129.898C351.177 129.802 350.905 129.758 350.632 129.768Z" fill="white"/>
<path d="M321.668 182.794H356.768C356.998 182.797 357.225 182.755 357.435 182.67C357.646 182.586 357.834 182.461 357.989 182.304C358.143 182.146 358.26 181.961 358.331 181.758C358.402 181.556 358.426 181.343 358.402 181.131L356.211 157.895C356.159 157.446 355.932 157.031 355.572 156.726C355.212 156.422 354.745 156.251 354.258 156.244H319.158C318.93 156.242 318.704 156.283 318.495 156.367C318.285 156.451 318.097 156.575 317.943 156.731C317.789 156.887 317.672 157.071 317.6 157.272C317.528 157.472 317.502 157.685 317.524 157.895L319.716 181.131C319.765 181.582 319.99 182.001 320.35 182.308C320.71 182.614 321.179 182.787 321.668 182.794Z" fill="black"/>
<path opacity="0.4" d="M321.668 182.794H356.768C356.998 182.797 357.225 182.755 357.435 182.67C357.646 182.586 357.834 182.461 357.989 182.304C358.143 182.146 358.26 181.961 358.331 181.758C358.402 181.556 358.426 181.343 358.402 181.131L356.211 157.895C356.159 157.446 355.932 157.031 355.572 156.726C355.212 156.422 354.745 156.251 354.258 156.244H319.158C318.93 156.242 318.704 156.283 318.495 156.367C318.285 156.451 318.097 156.575 317.943 156.731C317.789 156.887 317.672 157.071 317.6 157.272C317.528 157.472 317.502 157.685 317.524 157.895L319.716 181.131C319.765 181.582 319.99 182.001 320.35 182.308C320.71 182.614 321.179 182.787 321.668 182.794Z" fill="white"/>
<path d="M322.305 182.794H357.406C357.635 182.797 357.862 182.755 358.073 182.67C358.283 182.586 358.472 182.461 358.626 182.304C358.78 182.146 358.897 181.961 358.968 181.758C359.039 181.556 359.064 181.343 359.039 181.131L356.848 157.895C356.796 157.446 356.569 157.031 356.209 156.726C355.85 156.422 355.382 156.251 354.896 156.244H319.795C319.567 156.242 319.341 156.283 319.132 156.367C318.922 156.451 318.735 156.575 318.58 156.731C318.426 156.887 318.309 157.071 318.237 157.272C318.165 157.472 318.139 157.685 318.162 157.895L320.353 181.131C320.402 181.582 320.628 182.001 320.988 182.308C321.348 182.614 321.817 182.787 322.305 182.794Z" fill="black"/>
<path opacity="0.7" d="M322.305 182.794H357.406C357.635 182.797 357.862 182.755 358.073 182.67C358.283 182.586 358.472 182.461 358.626 182.304C358.78 182.146 358.897 181.961 358.968 181.758C359.039 181.556 359.064 181.343 359.039 181.131L356.848 157.895C356.796 157.446 356.569 157.031 356.209 156.726C355.85 156.422 355.382 156.251 354.896 156.244H319.795C319.567 156.242 319.341 156.283 319.132 156.367C318.922 156.451 318.735 156.575 318.58 156.731C318.426 156.887 318.309 157.071 318.237 157.272C318.165 157.472 318.139 157.685 318.162 157.895L320.353 181.131C320.402 181.582 320.628 182.001 320.988 182.308C321.348 182.614 321.817 182.787 322.305 182.794Z" fill="white"/>
<path d="M321.774 181.143H357.618L355.427 157.895H319.583L321.774 181.143Z" fill="#A02724"/>
<path opacity="0.5" d="M321.774 181.143H357.618L355.427 157.895H319.583L321.774 181.143Z" fill="white"/>
<path d="M322.571 185.012H358.429C358.806 185.014 359.18 184.946 359.528 184.813C359.877 184.68 360.194 184.484 360.461 184.236C360.728 183.989 360.939 183.695 361.082 183.371C361.226 183.048 361.299 182.701 361.297 182.351H319.729C319.727 182.699 319.799 183.043 319.941 183.365C320.083 183.687 320.292 183.98 320.556 184.227C320.82 184.475 321.134 184.671 321.479 184.806C321.825 184.94 322.196 185.01 322.571 185.012Z" fill="black"/>
<path opacity="0.2" d="M322.571 185.012H358.429C358.806 185.014 359.18 184.946 359.528 184.813C359.877 184.68 360.194 184.484 360.461 184.236C360.728 183.989 360.939 183.695 361.082 183.371C361.226 183.048 361.299 182.701 361.297 182.351H319.729C319.727 182.699 319.799 183.043 319.941 183.365C320.083 183.687 320.292 183.98 320.556 184.227C320.82 184.475 321.134 184.671 321.479 184.806C321.825 184.94 322.196 185.01 322.571 185.012Z" fill="white"/>
<path d="M325.44 185.012H361.297C361.674 185.012 362.047 184.943 362.395 184.809C362.743 184.676 363.059 184.48 363.326 184.233C363.592 183.985 363.803 183.692 363.948 183.369C364.092 183.046 364.166 182.7 364.166 182.351H322.571C322.571 183.057 322.874 183.734 323.411 184.233C323.949 184.732 324.679 185.012 325.44 185.012Z" fill="black"/>
<path opacity="0.5" d="M325.44 185.012H361.297C361.674 185.012 362.047 184.943 362.395 184.809C362.743 184.676 363.059 184.48 363.326 184.233C363.592 183.985 363.803 183.692 363.948 183.369C364.092 183.046 364.166 182.7 364.166 182.351H322.571C322.571 183.057 322.874 183.734 323.411 184.233C323.949 184.732 324.679 185.012 325.44 185.012Z" fill="white"/>
<path opacity="0.3" d="M347.087 182.351C346.942 182.587 346.731 182.784 346.477 182.92C346.222 183.057 345.933 183.128 345.64 183.127H341.085C340.791 183.129 340.501 183.058 340.247 182.922C339.992 182.786 339.782 182.588 339.637 182.351H347.087Z" fill="black"/>
<path d="M309.197 155.493H306.355L303.487 185.874H306.329C306.989 185.877 307.628 185.652 308.119 185.242C308.61 184.832 308.919 184.267 308.985 183.657L311.428 157.71C311.463 157.424 311.431 157.134 311.333 156.86C311.236 156.587 311.075 156.336 310.863 156.125C310.651 155.914 310.393 155.749 310.105 155.639C309.817 155.53 309.508 155.48 309.197 155.493Z" fill="black"/>
<path d="M305.744 185.874H294.044C293.738 185.88 293.434 185.824 293.153 185.712C292.872 185.6 292.62 185.433 292.414 185.223C292.207 185.013 292.052 184.765 291.958 184.495C291.863 184.225 291.832 183.939 291.866 183.657L294.31 157.71C294.374 157.111 294.674 156.554 295.151 156.146C295.628 155.737 296.25 155.505 296.899 155.493H308.613C308.918 155.49 309.221 155.546 309.501 155.659C309.781 155.772 310.032 155.939 310.238 156.148C310.444 156.358 310.599 156.605 310.695 156.875C310.79 157.144 310.823 157.429 310.791 157.71L308.334 183.657C308.269 184.256 307.97 184.813 307.493 185.221C307.015 185.63 306.393 185.862 305.744 185.874Z" fill="#A02724"/>
<path d="M308.56 155.998H305.519C305.42 155.999 305.323 156.031 305.246 156.089C305.169 156.147 305.115 156.228 305.094 156.318V156.417C305.038 156.634 304.906 156.828 304.719 156.969C304.532 157.109 304.299 157.188 304.058 157.193H301.163C300.935 157.196 300.715 157.117 300.549 156.972C300.382 156.827 300.284 156.628 300.273 156.417V156.318C300.27 156.232 300.231 156.151 300.164 156.091C300.097 156.031 300.008 155.998 299.915 155.998H296.874C296.371 156.005 295.888 156.183 295.519 156.499C295.149 156.815 294.917 157.246 294.868 157.71L292.425 183.657C292.398 183.874 292.422 184.094 292.494 184.302C292.567 184.51 292.686 184.702 292.844 184.864C293.003 185.026 293.196 185.155 293.412 185.242C293.629 185.329 293.862 185.372 294.098 185.369H305.811C306.312 185.359 306.791 185.18 307.158 184.864C307.525 184.548 307.755 184.119 307.803 183.657L310.247 157.71C310.276 157.492 310.253 157.27 310.181 157.06C310.109 156.85 309.988 156.657 309.828 156.494C309.668 156.332 309.472 156.203 309.253 156.117C309.034 156.032 308.798 155.991 308.56 155.998Z" fill="#A02724"/>
<path opacity="0.7" d="M308.56 155.998H305.519C305.42 155.999 305.323 156.031 305.246 156.089C305.169 156.147 305.115 156.228 305.094 156.318V156.417C305.038 156.634 304.906 156.828 304.719 156.969C304.532 157.109 304.299 157.188 304.058 157.193H301.163C300.935 157.196 300.715 157.117 300.549 156.972C300.382 156.827 300.284 156.628 300.273 156.417V156.318C300.27 156.232 300.231 156.151 300.164 156.091C300.097 156.031 300.008 155.998 299.915 155.998H296.874C296.371 156.005 295.888 156.183 295.519 156.499C295.149 156.815 294.917 157.246 294.868 157.71L292.425 183.657C292.398 183.874 292.422 184.094 292.494 184.302C292.567 184.51 292.686 184.702 292.844 184.864C293.003 185.026 293.196 185.155 293.412 185.242C293.629 185.329 293.862 185.372 294.098 185.369H305.811C306.312 185.359 306.791 185.18 307.158 184.864C307.525 184.548 307.755 184.119 307.803 183.657L310.247 157.71C310.276 157.492 310.253 157.27 310.181 157.06C310.109 156.85 309.988 156.657 309.828 156.494C309.668 156.332 309.472 156.203 309.253 156.117C309.034 156.032 308.798 155.991 308.56 155.998Z" fill="white"/>
<g opacity="0.2">
<path d="M301.973 156.294C301.966 156.351 301.937 156.405 301.89 156.443C301.843 156.482 301.783 156.503 301.72 156.503C301.691 156.505 301.661 156.501 301.633 156.491C301.606 156.481 301.581 156.465 301.56 156.445C301.54 156.425 301.525 156.401 301.516 156.375C301.506 156.349 301.504 156.321 301.508 156.294C301.511 156.234 301.539 156.177 301.586 156.136C301.633 156.095 301.696 156.072 301.76 156.072C301.791 156.072 301.821 156.077 301.848 156.089C301.876 156.1 301.901 156.117 301.921 156.138C301.941 156.159 301.956 156.184 301.965 156.211C301.974 156.237 301.977 156.266 301.973 156.294Z" fill="black"/>
<path d="M303.647 156.072H302.85C302.785 156.072 302.723 156.095 302.676 156.136C302.629 156.177 302.601 156.234 302.598 156.294C302.594 156.321 302.596 156.349 302.605 156.375C302.614 156.401 302.63 156.425 302.65 156.445C302.67 156.466 302.695 156.481 302.723 156.491C302.751 156.501 302.781 156.505 302.81 156.503H303.607C303.669 156.501 303.728 156.479 303.774 156.44C303.82 156.402 303.85 156.35 303.859 156.294C303.863 156.266 303.861 156.237 303.852 156.211C303.843 156.184 303.828 156.159 303.807 156.138C303.787 156.117 303.763 156.1 303.735 156.089C303.707 156.077 303.677 156.072 303.647 156.072Z" fill="black"/>
</g>
<path d="M296.183 157.193H296.422L296.448 156.959H296.196L296.183 157.193Z" fill="#A02724"/>
<path d="M296.688 156.959L296.674 157.193H296.927L296.94 156.959L296.966 156.737H296.714L296.688 156.959Z" fill="#A02724"/>
<path d="M297.232 156.503L297.205 156.737L297.192 156.959L297.166 157.193H297.418L297.431 156.959L297.458 156.737L297.471 156.503H297.232Z" fill="#A02724"/>
<path d="M307.817 156.515V156.688H307.697V157.02H307.817V157.193H308.906V156.515H307.817ZM308.255 157.02H307.883V156.688H308.242L308.255 157.02Z" fill="#A02724"/>
<g opacity="0.4">
<path d="M301.163 157.193L293.075 185.074C293.37 185.268 293.723 185.371 294.084 185.369H294.682L302.849 157.193H301.163Z" fill="white"/>
<path d="M308.56 155.998H305.519C305.419 155.999 305.323 156.031 305.246 156.089C305.168 156.147 305.115 156.228 305.094 156.318V156.417C305.04 156.628 304.914 156.818 304.734 156.958C304.555 157.098 304.332 157.18 304.098 157.193L295.93 185.369H302.159L310.233 157.452C310.213 157.055 310.026 156.682 309.714 156.41C309.402 156.139 308.988 155.991 308.56 155.998Z" fill="white"/>
</g>
<g opacity="0.2">
<path d="M327.777 5.69193H134.824V112.964H327.777V5.69193Z" fill="black"/>
</g>
<path d="M322.346 -8.39233e-05H129.393V107.272H322.346V-8.39233e-05Z" fill="#A02724"/>
<g opacity="0.5">
<path d="M322.346 -8.39233e-05H129.393V107.272H322.346V-8.39233e-05Z" fill="white"/>
</g>
<path d="M322.345 0H129.379V7.18266H322.345V0Z" fill="#A02724"/>
<path d="M319.836 3.56047C319.833 3.98148 319.696 4.39235 319.442 4.74123C319.188 5.09011 318.828 5.36139 318.408 5.52082C317.988 5.68025 317.526 5.7207 317.082 5.63707C316.637 5.55345 316.229 5.34949 315.909 5.05093C315.589 4.75236 315.371 4.37257 315.284 3.95946C315.196 3.54635 315.242 3.11843 315.417 2.72969C315.591 2.34095 315.885 2.00879 316.263 1.77513C316.64 1.54147 317.084 1.41677 317.538 1.41676C318.149 1.42002 318.733 1.64731 319.163 2.04899C319.594 2.45066 319.836 2.99405 319.836 3.56047Z" fill="white"/>
<path d="M193.032 23.0756L205.649 9.84379L212.223 27.745L230.895 22.7307L227.163 40.5087L246.872 45.0425L233.83 57.9294L249.302 70.8286L230.444 75.3624L237.535 93.1404L217.92 88.1138L214.719 106.027L199.606 92.7831L186.976 106.027L180.403 88.1138L161.73 93.1404L165.462 75.3624L145.754 70.8286L158.795 57.9294L143.323 45.0425L162.182 40.5087L155.09 22.7307L174.705 27.745L177.906 9.84379L193.032 23.0756Z" fill="#F5F5F5"/>
<path d="M157.813 59.7528L184.852 87.2267C198.637 67.034 227.257 79.1694 234.375 55.2806L206.871 28.706C205.065 48.948 167.189 43.7366 157.813 59.7528Z" fill="#A02724"/>
<path opacity="0.4" d="M157.813 59.7528L184.852 87.2267C198.637 67.034 227.257 79.1694 234.375 55.2806L206.871 28.706C205.065 48.948 167.189 43.7366 157.813 59.7528Z" fill="white"/>
<path d="M190.137 55.071C190.475 55.1203 190.796 55.2447 191.071 55.4334C191.346 55.6222 191.568 55.8698 191.718 56.1552C191.954 56.5511 192.077 56.9964 192.076 57.4488C192.052 57.9401 191.887 58.4165 191.598 58.8287C191.232 59.3302 190.751 59.7508 190.19 60.0607C189.715 60.3477 189.202 60.5755 188.663 60.7383C188.181 60.8917 187.671 60.9546 187.162 60.9231L187.083 59.3708C187.475 59.4039 187.872 59.3705 188.251 59.2722C188.652 59.1658 189.032 59.0038 189.38 58.7917C189.726 58.6003 190.006 58.3229 190.19 57.9909C190.263 57.8615 190.3 57.7178 190.3 57.572C190.3 57.4263 190.263 57.2826 190.19 57.1532C190.123 57.0236 190.017 56.9144 189.886 56.8381C189.754 56.7618 189.602 56.7215 189.447 56.722C188.961 56.7872 188.503 56.9699 188.119 57.2517L186.366 58.3113L184.48 54.3688L188.65 51.8309L189.394 53.0629L186.538 54.8L187.189 56.1183L187.747 55.7856C188.433 55.302 189.276 55.0499 190.137 55.071Z" fill="#A02724"/>
<path d="M194.852 56.6974C194.226 56.6872 193.618 56.4979 193.112 56.1553C192.491 55.7231 191.983 55.1674 191.625 54.529C191.223 53.8959 190.974 53.1899 190.894 52.4592C190.83 51.8389 190.945 51.214 191.226 50.6482C191.52 50.0973 191.982 49.6389 192.554 49.3299C193.069 48.9973 193.68 48.8169 194.307 48.8125C194.94 48.8195 195.554 49.0138 196.06 49.3669C196.679 49.7922 197.184 50.3446 197.534 50.9808C197.941 51.6116 198.191 52.3188 198.265 53.0506C198.34 53.6599 198.231 54.2766 197.949 54.8315C197.668 55.3864 197.225 55.8576 196.671 56.1923C196.138 56.5349 195.501 56.7118 194.852 56.6974ZM196.499 53.7775C196.485 53.1245 196.273 52.4883 195.888 51.9418C195.6 51.3678 195.139 50.8839 194.56 50.5496C194.351 50.4525 194.118 50.4082 193.885 50.4212C193.652 50.4342 193.426 50.504 193.232 50.6235C193.031 50.7423 192.866 50.9062 192.752 51.1001C192.638 51.2941 192.579 51.5116 192.581 51.7324C192.594 52.3854 192.806 53.0216 193.192 53.5681C193.479 54.1421 193.941 54.6259 194.52 54.9602C194.725 55.0683 194.96 55.1188 195.196 55.1057C195.431 55.0926 195.658 55.0164 195.848 54.8863C196.049 54.7685 196.215 54.6047 196.329 54.4106C196.443 54.2164 196.501 53.9985 196.499 53.7775Z" fill="#A02724"/>
<path d="M198.478 50.069C198.192 49.9867 197.926 49.8515 197.698 49.6715C197.47 49.4916 197.283 49.2706 197.15 49.0218C196.833 48.5341 196.715 47.9571 196.818 47.3956C196.875 47.1428 196.988 46.9034 197.147 46.6917C197.307 46.48 197.511 46.3004 197.747 46.1636C197.964 46.0158 198.215 45.9166 198.48 45.8738C198.745 45.8311 199.017 45.8459 199.275 45.9172C199.561 45.9981 199.827 46.1329 200.056 46.313C200.284 46.4931 200.47 46.7148 200.603 46.9644C200.925 47.4458 201.043 48.0208 200.935 48.5783C200.881 48.8308 200.772 49.0704 200.614 49.2823C200.456 49.4942 200.254 49.6739 200.018 49.8103C199.799 49.9571 199.546 50.0565 199.28 50.1013C199.013 50.146 198.739 50.135 198.478 50.069ZM199.899 48.4551C199.892 48.1378 199.796 47.8277 199.62 47.5557C199.475 47.2776 199.244 47.046 198.956 46.8904C198.852 46.8303 198.733 46.7985 198.611 46.7985C198.488 46.7985 198.369 46.8303 198.265 46.8904C198.16 46.9524 198.073 47.0379 198.013 47.1391C197.953 47.2402 197.921 47.3539 197.92 47.4695C197.91 47.7871 198.003 48.1002 198.186 48.3689C198.327 48.6492 198.559 48.8817 198.85 49.0342C198.955 49.0881 199.074 49.1163 199.195 49.1163C199.316 49.1163 199.434 49.0881 199.54 49.0342C199.643 48.9691 199.729 48.8832 199.791 48.7829C199.853 48.6826 199.89 48.5705 199.899 48.4551ZM201.917 43.7611L203.086 43.0589L202.396 52.5331L201.24 53.2353L201.917 43.7611ZM205.516 50.4387C205.162 50.4503 204.812 50.3552 204.52 50.1676C204.19 49.951 203.922 49.6636 203.737 49.3298C203.524 48.9957 203.396 48.6205 203.365 48.2334C203.339 47.8851 203.412 47.5366 203.578 47.2231C203.756 46.9201 204.011 46.6621 204.321 46.4716C204.541 46.3287 204.791 46.2325 205.055 46.1899C205.319 46.1473 205.59 46.1594 205.848 46.2252C206.135 46.3075 206.4 46.4427 206.628 46.6227C206.856 46.8027 207.043 47.0237 207.177 47.2724C207.496 47.7592 207.61 48.3386 207.495 48.8986C207.443 49.1517 207.334 49.3918 207.177 49.6039C207.019 49.816 206.815 49.9954 206.579 50.1307C206.267 50.3316 205.896 50.4391 205.516 50.4387ZM206.42 48.7754C206.417 48.4576 206.321 48.1465 206.141 47.8761C205.999 47.5957 205.767 47.3632 205.477 47.2108C205.372 47.1533 205.253 47.123 205.131 47.123C205.01 47.123 204.891 47.1533 204.786 47.2108C204.683 47.2758 204.597 47.3617 204.535 47.462C204.473 47.5623 204.436 47.6744 204.427 47.7898C204.418 48.113 204.516 48.431 204.706 48.7015C204.851 48.9796 205.083 49.2113 205.37 49.3668C205.472 49.4245 205.59 49.455 205.709 49.455C205.829 49.455 205.946 49.4245 206.048 49.3668C206.157 49.3042 206.249 49.2174 206.313 49.1143C206.378 49.0111 206.415 48.8947 206.42 48.7754Z" fill="#A02724"/>
<path d="M195.45 69.6582C194.73 69.7095 194.01 69.5638 193.378 69.2393C192.726 68.8949 192.192 68.3867 191.838 67.7732C191.454 67.1502 191.253 66.4453 191.253 65.7281C191.253 65.0108 191.454 64.3059 191.838 63.6829C192.238 63.0295 192.803 62.4758 193.484 62.069C194.137 61.6606 194.891 61.4146 195.676 61.3544C196.395 61.3045 197.115 61.4501 197.747 61.7733C198.404 62.1121 198.94 62.6217 199.288 63.2394C199.677 63.8595 199.875 64.5671 199.859 65.2845C199.848 66.002 199.642 66.7053 199.261 67.3297C198.857 67.9768 198.292 68.5257 197.615 68.9313C196.971 69.3391 196.226 69.5892 195.45 69.6582ZM197.787 66.689C198.003 66.31 198.108 65.8853 198.093 65.457C198.077 65.0246 197.949 64.6021 197.721 64.225C197.499 63.8457 197.174 63.5271 196.778 63.301C196.41 63.0947 195.986 62.992 195.556 63.0053C195.109 63.0293 194.678 63.1656 194.308 63.3996C193.913 63.6321 193.588 63.9544 193.365 64.3359C193.149 64.7149 193.044 65.1396 193.059 65.5679C193.073 66.0005 193.201 66.4234 193.431 66.7999C193.655 67.1807 193.98 67.5028 194.374 67.7362C194.743 67.9389 195.168 68.0374 195.596 68.0196C196.044 68.0014 196.477 67.8646 196.844 67.6254C197.22 67.3864 197.526 67.0647 197.734 66.689H197.787Z" fill="#A02724"/>
<path d="M200.842 59.4694L201.891 61.2189L205.065 59.297L205.796 60.529L202.635 62.4386L204.082 64.9026L202.502 65.8513L198.518 59.223L203.684 56.0814L204.428 57.3134L200.842 59.4694Z" fill="#A02724"/>
<path d="M207.03 55.6871L208.08 57.4366L211.254 55.5147L211.984 56.7467L208.823 58.6686L210.271 61.1327L208.69 62.0936L204.706 55.4531L209.872 52.3237L210.616 53.5558L207.03 55.6871Z" fill="#A02724"/>
<path d="M259.183 49.0343H254.933L254.19 50.8454H250.365L255.239 40.4964H258.944L263.818 50.8454H259.927L259.183 49.0343ZM258.147 46.5703L257.058 43.9707L255.969 46.5703H258.147Z" fill="#A02724"/>
<path d="M273.871 39.8065V50.7837H270.445V50.1185C270.134 50.4069 269.759 50.629 269.346 50.7694C268.933 50.9099 268.493 50.9652 268.054 50.9316C267.313 50.9386 266.583 50.7598 265.943 50.4141C265.292 50.0717 264.762 49.5627 264.415 48.948C264.042 48.2602 263.847 47.5007 263.847 46.7304C263.847 45.9602 264.042 45.2006 264.415 44.5128C264.768 43.9055 265.297 43.4019 265.943 43.059C266.583 42.7133 267.313 42.5345 268.054 42.5415C268.456 42.516 268.859 42.565 269.239 42.6856C269.62 42.8061 269.971 42.9959 270.272 43.2438V39.8065H273.871ZM269.887 47.9008C270.187 47.5538 270.33 47.1119 270.285 46.6688C270.316 46.2461 270.173 45.8283 269.887 45.4984C269.762 45.3589 269.606 45.2466 269.429 45.1695C269.253 45.0924 269.06 45.0525 268.864 45.0525C268.669 45.0525 268.476 45.0924 268.299 45.1695C268.123 45.2466 267.966 45.3589 267.842 45.4984C267.555 45.8283 267.413 46.2461 267.443 46.6688C267.399 47.1119 267.542 47.5538 267.842 47.9008C267.966 48.0403 268.123 48.1526 268.299 48.2297C268.476 48.3068 268.669 48.3468 268.864 48.3468C269.06 48.3468 269.253 48.3068 269.429 48.2297C269.606 48.1526 269.762 48.0403 269.887 47.9008Z" fill="#A02724"/>
<path d="M285.107 39.8065V50.7837H281.68V50.1185C281.369 50.4069 280.995 50.629 280.582 50.7694C280.169 50.9099 279.728 50.9652 279.29 50.9316C278.549 50.9386 277.819 50.7598 277.178 50.4141C276.528 50.0717 275.998 49.5627 275.651 48.948C275.277 48.2602 275.083 47.5007 275.083 46.7304C275.083 45.9602 275.277 45.2006 275.651 44.5128C276.004 43.9055 276.533 43.4019 277.178 43.059C277.819 42.7133 278.549 42.5345 279.29 42.5415C279.691 42.516 280.094 42.565 280.475 42.6856C280.856 42.8061 281.207 42.9959 281.508 43.2438V39.8065H285.107ZM281.123 47.9008C281.423 47.5538 281.566 47.1119 281.521 46.6688C281.551 46.2461 281.409 45.8283 281.123 45.4984C280.998 45.3589 280.842 45.2466 280.665 45.1695C280.488 45.0924 280.295 45.0525 280.1 45.0525C279.905 45.0525 279.712 45.0924 279.535 45.1695C279.358 45.2466 279.202 45.3589 279.077 45.4984C278.791 45.8283 278.649 46.2461 278.679 46.6688C278.634 47.1119 278.777 47.5538 279.077 47.9008C279.202 48.0403 279.358 48.1526 279.535 48.2297C279.712 48.3068 279.905 48.3468 280.1 48.3468C280.295 48.3468 280.488 48.3068 280.665 48.2297C280.842 48.1526 280.998 48.0403 281.123 47.9008Z" fill="#A02724"/>
<path d="M238.426 68.0689C237.506 67.635 236.737 66.9688 236.208 66.1469C235.678 65.2947 235.399 64.3281 235.399 63.3441C235.399 62.3601 235.678 61.3934 236.208 60.5412C236.737 59.7194 237.506 59.0531 238.426 58.6193C239.412 58.152 240.506 57.9152 241.613 57.9294C242.614 57.9144 243.606 58.0993 244.522 58.4715C245.35 58.8068 246.072 59.3326 246.62 59.9991L244.216 61.9704C243.947 61.5998 243.586 61.2945 243.163 61.0801C242.74 60.8658 242.268 60.7486 241.786 60.7384C241.434 60.7237 241.082 60.7787 240.755 60.8998C240.428 61.0209 240.132 61.2052 239.887 61.4406C239.423 61.9748 239.171 62.6399 239.171 63.3256C239.171 64.0113 239.423 64.6764 239.887 65.2106C240.132 65.446 240.428 65.6303 240.755 65.7514C241.082 65.8725 241.434 65.9275 241.786 65.9128C242.267 65.9006 242.739 65.7825 243.161 65.5683C243.584 65.3542 243.945 65.05 244.216 64.6808L246.594 66.652C246.042 67.3182 245.321 67.8473 244.495 68.1921C243.57 68.5661 242.57 68.755 241.56 68.7465C240.472 68.7565 239.397 68.5241 238.426 68.0689Z" fill="#A02724"/>
<path d="M249.355 68.1304C248.616 67.7982 247.991 67.2821 247.549 66.6397C247.115 65.988 246.885 65.2372 246.885 64.4713C246.885 63.7054 247.115 62.9547 247.549 62.303C247.987 61.6575 248.613 61.1405 249.355 60.8122C250.174 60.4628 251.064 60.2819 251.965 60.2819C252.866 60.2819 253.756 60.4628 254.574 60.8122C255.326 61.1413 255.958 61.6658 256.394 62.322C256.83 62.9781 257.052 63.7376 257.031 64.5083C257.052 65.2789 256.83 66.0385 256.394 66.6946C255.958 67.3507 255.326 67.8752 254.574 68.2043C253.758 68.5611 252.867 68.7461 251.965 68.7461C251.062 68.7461 250.171 68.5611 249.355 68.2043V68.1304ZM252.981 65.6664C253.241 65.3238 253.38 64.915 253.38 64.496C253.38 64.0769 253.241 63.6682 252.981 63.3256C252.856 63.186 252.7 63.0737 252.523 62.9966C252.346 62.9196 252.153 62.8796 251.958 62.8796C251.763 62.8796 251.57 62.9196 251.393 62.9966C251.216 63.0737 251.06 63.186 250.936 63.3256C250.675 63.6682 250.536 64.0769 250.536 64.496C250.536 64.915 250.675 65.3238 250.936 65.6664C251.06 65.8059 251.216 65.9182 251.393 65.9953C251.57 66.0723 251.763 66.1123 251.958 66.1123C252.153 66.1123 252.346 66.0723 252.523 65.9953C252.7 65.9182 252.856 65.8059 252.981 65.6664Z" fill="#A02724"/>
<path d="M267.682 60.4304V68.5248H264.256V67.7486C263.945 68.0537 263.563 68.2895 263.14 68.4385C262.716 68.5888 262.266 68.6681 261.812 68.6726C261.323 68.6925 260.835 68.6185 260.377 68.4553C259.92 68.2921 259.505 68.0431 259.156 67.724C258.795 67.339 258.52 66.8915 258.347 66.4072C258.173 65.9229 258.105 65.4115 258.147 64.9027V60.4304H261.759V64.3236C261.71 64.7513 261.808 65.1824 262.038 65.5556C262.139 65.6735 262.269 65.7673 262.416 65.8295C262.564 65.8916 262.726 65.9202 262.888 65.9129C263.057 65.913 263.223 65.8775 263.375 65.8092C263.527 65.7409 263.66 65.6416 263.764 65.5187C264.023 65.1547 264.145 64.7214 264.11 64.2866V60.4797L267.682 60.4304Z" fill="#A02724"/>
<path d="M277.205 60.7999C277.857 61.1443 278.391 61.6525 278.745 62.266C279.128 62.9503 279.32 63.7128 279.303 64.4836C279.322 65.2507 279.13 66.0097 278.745 66.689C278.391 67.3025 277.857 67.8107 277.205 68.1551C276.564 68.5008 275.835 68.6795 275.093 68.6725C274.694 68.6978 274.293 68.6486 273.914 68.528C273.536 68.4074 273.187 68.2178 272.889 67.9703V71.3829H269.276V60.4303H272.703V61.0956C273.015 60.8092 273.39 60.5884 273.803 60.4481C274.215 60.3078 274.655 60.2514 275.093 60.2825C275.835 60.2755 276.564 60.4542 277.205 60.7999ZM275.253 65.6541C275.553 65.307 275.696 64.8652 275.651 64.4221C275.681 63.9994 275.539 63.5816 275.253 63.2516C275.128 63.1143 274.972 63.0038 274.797 62.9281C274.621 62.8523 274.43 62.8131 274.237 62.8131C274.043 62.8131 273.852 62.8523 273.676 62.9281C273.501 63.0038 273.345 63.1143 273.221 63.2516C272.934 63.5816 272.792 63.9994 272.822 64.4221C272.777 64.8652 272.92 65.307 273.221 65.6541C273.351 65.7827 273.508 65.8853 273.683 65.9554C273.858 66.0254 274.046 66.0616 274.237 66.0616C274.427 66.0616 274.615 66.0254 274.79 65.9554C274.965 65.8853 275.122 65.7827 275.253 65.6541Z" fill="#A02724"/>
<path d="M282.437 68.1305C281.7 67.7951 281.076 67.2798 280.631 66.6398C280.206 65.9853 279.981 65.2356 279.981 64.4714C279.981 63.7073 280.206 62.9576 280.631 62.3031C281.072 61.6602 281.697 61.144 282.437 60.8123C283.266 60.4464 284.175 60.265 285.093 60.2826C286.011 60.2677 286.919 60.4489 287.749 60.8123C288.488 61.1409 289.11 61.658 289.542 62.3031C289.967 62.9576 290.192 63.7073 290.192 64.4714C290.192 65.2356 289.967 65.9853 289.542 66.6398C289.106 67.2818 288.485 67.7981 287.749 68.1305C286.923 68.5038 286.012 68.6896 285.093 68.6726C284.174 68.6925 283.263 68.5066 282.437 68.1305ZM286.063 65.6665C286.323 65.3239 286.462 64.9151 286.462 64.4961C286.462 64.0771 286.323 63.6683 286.063 63.3257C285.938 63.1862 285.782 63.0738 285.605 62.9968C285.428 62.9197 285.235 62.8797 285.04 62.8797C284.845 62.8797 284.652 62.9197 284.475 62.9968C284.298 63.0738 284.142 63.1862 284.017 63.3257C283.757 63.6683 283.618 64.0771 283.618 64.4961C283.618 64.9151 283.757 65.3239 284.017 65.6665C284.142 65.806 284.298 65.9183 284.475 65.9954C284.652 66.0725 284.845 66.1124 285.04 66.1124C285.235 66.1124 285.428 66.0725 285.605 65.9954C285.782 65.9183 285.938 65.806 286.063 65.6665Z" fill="#A02724"/>
<path d="M299.888 61.1819C300.24 61.552 300.508 61.9835 300.676 62.4511C300.845 62.9187 300.911 63.413 300.871 63.9047V68.5247H297.338V64.4837C297.338 63.5597 296.98 63.0915 296.263 63.0915C296.078 63.0904 295.896 63.1248 295.727 63.1927C295.557 63.2606 295.405 63.3604 295.28 63.4858C295.005 63.8437 294.873 64.2795 294.908 64.7178V68.5247H291.309V60.4304H294.682V61.2312C295.016 60.9169 295.42 60.6732 295.864 60.5166C296.329 60.3612 296.818 60.282 297.312 60.2825C297.784 60.2656 298.256 60.3364 298.698 60.4908C299.141 60.6453 299.545 60.8802 299.888 61.1819Z" fill="#A02724"/>
<path d="M108.754 129.436C109.511 131.542 127.108 134.13 118.051 147.596C108.993 161.061 103.681 151.969 106.55 167.16C109.418 182.351 88.6608 172.273 78.0364 175.439C58.9655 181.131 51.3292 155.431 66.2831 153.94C81.237 152.45 84.5306 151.723 82.7776 140.832C81.0245 129.941 103.628 114.812 108.754 129.436Z" fill="black"/>
<path d="M113.655 172.778C113.655 174.01 113.655 174.996 113.761 176.08C113.867 177.164 113.92 178.223 114.013 179.295C114.226 181.427 114.571 183.546 114.943 185.653C115.71 189.919 116.906 194.11 118.515 198.17L118.821 198.934C118.927 199.205 118.98 199.365 119.233 199.895C119.698 200.87 120.425 201.718 121.344 202.359C122.186 202.93 123.151 203.325 124.173 203.517C124.986 203.667 125.815 203.725 126.643 203.689C127.997 203.613 129.335 203.381 130.627 202.999C131.805 202.656 132.958 202.245 134.08 201.767C138.329 199.987 142.34 197.754 146.033 195.114L143.961 192.096C142.035 192.946 139.977 193.808 138.038 194.56C136.095 195.346 134.104 196.024 132.075 196.593C130.312 197.151 128.466 197.45 126.603 197.48C125.86 197.48 125.448 197.221 125.581 197.221C125.714 197.221 125.674 197.295 125.674 197.221L125.289 195.989C124.105 192.214 123.217 188.364 122.632 184.47C122.327 182.511 122.114 180.54 121.902 178.556C121.69 176.573 121.583 174.552 121.517 172.716L113.655 172.778Z" fill="#FFC3BD"/>
<path d="M119.631 164.499C122.699 165.46 123.961 177.57 123.961 177.57L114.89 182.437C114.89 182.437 107.559 169.772 110.216 166.766C112.872 163.76 115.143 163.119 119.631 164.499Z" fill="#A02724"/>
<path opacity="0.2" d="M119.631 164.499C122.699 165.46 123.961 177.57 123.961 177.57L114.89 182.437C114.89 182.437 107.559 169.772 110.216 166.766C112.872 163.76 115.143 163.119 119.631 164.499Z" fill="white"/>
<path opacity="0.2" d="M119.126 167.16L120.601 179.381L119.897 179.591C119.394 184.653 118.506 189.676 117.241 194.622C115.955 190.765 114.921 186.84 114.146 182.868L119.126 167.16Z" fill="black"/>
<path d="M142.222 192.971L147.786 186.047L149.885 192.971C149.885 192.971 146.392 196.162 143.364 195.287L142.222 192.971Z" fill="#FFC3BD"/>
<path d="M144.612 185.197C144.963 185.291 145.276 185.479 145.512 185.738C145.748 185.996 145.897 186.314 145.94 186.65L146.392 190.026L143.988 191.073L144.612 185.197Z" fill="#FFC3BD"/>
<path d="M152.952 183.854L154.36 189.078L149.884 192.971L147.799 186.047L152.952 183.854Z" fill="#FFC3BD"/>
<path d="M119.631 164.499C119.631 164.499 123.283 167.345 112.778 208.248C100.188 208.248 86.7484 208.322 80.2941 208.248C81.7151 196.63 83.7736 185.936 79.6433 161.604C84.0451 161.062 88.4841 160.823 92.9239 160.889C97.6167 160.889 102.304 161.202 106.948 161.825C112.898 162.749 119.631 164.499 119.631 164.499Z" fill="#A02724"/>
<path opacity="0.2" d="M119.631 164.499C119.631 164.499 123.283 167.345 112.778 208.248C98.2626 208.334 88.4483 208.248 80.2941 208.248C81.7151 196.63 83.7736 185.936 79.6433 161.604C84.0451 161.062 88.4841 160.823 92.9239 160.889C97.6167 160.889 102.304 161.202 106.948 161.825C112.898 162.749 119.631 164.499 119.631 164.499Z" fill="white"/>
<path opacity="0.2" d="M87.3591 171.62C86.6553 176.067 84.464 180.885 82.0469 186.503C82.0469 182.881 81.8477 179.443 81.5422 176.265L87.3591 171.62Z" fill="black"/>
<path d="M75.3673 169.932C75.1947 170.72 74.9556 171.694 74.7299 172.581C74.5041 173.468 74.2518 174.392 73.9729 175.291C73.4151 177.09 72.844 178.889 72.1401 180.614C70.8663 184.002 69.0775 187.205 66.8279 190.125C66.5623 190.445 66.217 190.852 66.0975 190.975C65.8268 191.23 65.5384 191.469 65.2343 191.689C64.5012 192.236 63.734 192.742 62.9367 193.205C61.2634 194.19 59.4838 195.164 57.6245 196.075C55.7652 196.987 53.9591 197.936 52.0733 198.823L46.4556 201.496L47.7836 204.847C51.9714 203.804 56.0908 202.537 60.1213 201.053C62.1532 200.289 64.1054 199.488 66.1905 198.515C67.245 198.008 68.2691 197.449 69.2583 196.839C69.8225 196.483 70.3636 196.097 70.8785 195.681C71.5292 195.114 71.8347 194.757 72.273 194.326C73.788 192.652 75.1224 190.845 76.2571 188.93C77.3891 187.085 78.3745 185.166 79.2054 183.188C80.0465 181.254 80.7779 179.28 81.3967 177.275C81.7021 176.277 81.981 175.279 82.2466 174.256C82.5123 173.234 82.7248 172.273 82.924 171.127L75.3673 169.932Z" fill="#FFC3BD"/>
<path d="M79.6432 161.604C76.4825 162.269 71.9937 171.903 71.9937 171.903L83.3751 180.675C83.3751 180.675 88.3951 172.716 87.3592 168.922C86.3234 165.127 83.2556 160.84 79.6432 161.604Z" fill="#A02724"/>
<path opacity="0.2" d="M79.6432 161.604C76.4825 162.269 71.9937 171.903 71.9937 171.903L83.3751 180.675C83.3751 180.675 88.3951 172.716 87.3592 168.922C86.3234 165.127 83.2556 160.84 79.6432 161.604Z" fill="white"/>
<path d="M48.4076 201.311L41.1963 197.615L42.697 204.675C42.697 204.675 47.3718 206.042 49.6427 203.985L48.4076 201.311Z" fill="#FFC3BD"/>
<path d="M34.8616 198.576L36.4685 204.416L42.6971 204.675L41.1964 197.628L34.8616 198.576Z" fill="#FFC3BD"/>
<path d="M95.4741 146.363C96.0319 150.614 96.3108 158.339 92.9375 160.926C92.9375 160.926 93.8406 165.25 102.234 165.854C111.53 166.47 106.975 161.899 106.975 161.899C102.035 160.445 102.433 156.971 103.562 153.805L95.4741 146.363Z" fill="#FFC3BD"/>
<path opacity="0.2" d="M98.7138 149.345L103.442 153.756C103.17 154.502 102.965 155.269 102.831 156.047C100.932 155.653 98.4349 153.521 98.3818 151.637C98.3393 150.86 98.4519 150.083 98.7138 149.345Z" fill="black"/>
<path d="M90.2676 139.267C91.9941 146.092 92.5651 149.025 96.9876 151.969C103.628 156.404 112.287 152.942 112.791 145.809C113.256 139.353 110.348 129.251 102.552 127.662C100.839 127.305 99.0569 127.36 97.3733 127.821C95.6897 128.282 94.1607 129.133 92.9308 130.295C91.701 131.457 90.811 132.891 90.3449 134.461C89.8789 136.031 89.8523 137.685 90.2676 139.267Z" fill="#FFC3BD"/>
<path d="M107.997 128.856C110.481 132.06 86.35 143.961 88.6741 136.433C90.9982 128.906 101.53 120.491 107.997 128.856Z" fill="black"/>
<path d="M95.7126 136.507C96.3102 139.834 91.5691 143.776 91.5691 143.776C91.5691 143.776 85.4999 139.612 89.3114 137.394C93.1229 135.177 95.7126 136.507 95.7126 136.507Z" fill="black"/>
<path d="M102.964 139.218C103.071 139.772 103.469 140.179 103.868 140.117C104.266 140.055 104.505 139.55 104.399 138.984C104.293 138.417 103.894 138.023 103.496 138.084C103.097 138.146 102.858 138.651 102.964 139.218Z" fill="black"/>
<path d="M109.817 138.134C109.923 138.688 110.322 139.095 110.72 139.033C111.119 138.971 111.358 138.466 111.252 137.9C111.145 137.333 110.747 136.939 110.348 137C109.95 137.062 109.711 137.567 109.817 138.134Z" fill="black"/>
<path d="M110.175 137.062L111.57 136.433C111.57 136.433 111.012 137.616 110.175 137.062Z" fill="black"/>
<path d="M107.427 139.476C108.205 140.675 109.157 141.77 110.255 142.729C109.983 142.982 109.653 143.178 109.291 143.301C108.929 143.424 108.542 143.473 108.157 143.444L107.427 139.476Z" fill="#ED847E"/>
<path d="M105.235 146.166C105.538 146.165 105.84 146.14 106.138 146.092C106.185 146.084 106.227 146.058 106.254 146.021C106.281 145.984 106.292 145.939 106.284 145.895C106.275 145.852 106.247 145.813 106.208 145.788C106.168 145.763 106.119 145.753 106.072 145.76C105.32 145.894 104.546 145.862 103.81 145.667C103.074 145.473 102.398 145.12 101.835 144.639C101.819 144.623 101.8 144.61 101.778 144.601C101.756 144.592 101.733 144.588 101.709 144.588C101.686 144.588 101.662 144.592 101.64 144.601C101.619 144.61 101.599 144.623 101.583 144.639C101.551 144.671 101.534 144.712 101.534 144.756C101.534 144.799 101.551 144.841 101.583 144.873C102.069 145.302 102.643 145.637 103.269 145.859C103.896 146.081 104.564 146.186 105.235 146.166Z" fill="black"/>
<path d="M89.4178 145.92C90.1565 147.09 91.3646 147.94 92.7778 148.285C94.6503 148.729 95.5534 147.164 94.9956 145.538C94.4378 143.912 92.9106 142.088 91.0115 142.359C90.6062 142.43 90.2263 142.593 89.906 142.835C89.5858 143.076 89.3353 143.387 89.1772 143.74C89.019 144.093 88.9582 144.478 89.0002 144.858C89.0422 145.239 89.1857 145.604 89.4178 145.92Z" fill="#FFC3BD"/>
<path d="M99.9757 138.355C100.052 138.354 100.126 138.331 100.188 138.289C100.25 138.247 100.296 138.188 100.321 138.121C100.563 137.622 100.915 137.176 101.354 136.811C101.793 136.446 102.31 136.171 102.871 136.002C102.961 135.971 103.036 135.909 103.078 135.829C103.12 135.748 103.127 135.656 103.097 135.571C103.083 135.529 103.061 135.49 103.03 135.456C103 135.422 102.962 135.395 102.92 135.375C102.878 135.356 102.831 135.344 102.784 135.342C102.737 135.34 102.689 135.346 102.645 135.362C101.974 135.564 101.358 135.897 100.838 136.339C100.318 136.781 99.9059 137.322 99.6304 137.924C99.6161 137.966 99.6109 138.01 99.6152 138.054C99.6195 138.098 99.6332 138.141 99.6554 138.18C99.6777 138.219 99.7081 138.253 99.7448 138.281C99.7816 138.309 99.8239 138.33 99.8695 138.343L99.9757 138.355Z" fill="black"/>
<path d="M111.331 134.869C111.395 134.87 111.459 134.854 111.516 134.824C111.572 134.793 111.618 134.749 111.649 134.696C111.694 134.619 111.705 134.529 111.68 134.444C111.655 134.359 111.597 134.287 111.516 134.24C111.026 133.962 110.47 133.799 109.896 133.765C109.322 133.73 108.748 133.826 108.223 134.043C108.139 134.083 108.075 134.152 108.045 134.235C108.015 134.318 108.022 134.408 108.063 134.487C108.085 134.527 108.114 134.563 108.151 134.592C108.187 134.622 108.229 134.644 108.275 134.658C108.321 134.672 108.37 134.677 108.418 134.673C108.466 134.669 108.512 134.656 108.555 134.635C108.981 134.465 109.445 134.393 109.907 134.425C110.37 134.458 110.817 134.593 111.211 134.82C111.246 134.844 111.287 134.861 111.331 134.869Z" fill="black"/>
<path d="M103.322 138.146L104.717 137.518C104.717 137.518 104.159 138.7 103.322 138.146Z" fill="black"/>
<path d="M90.507 352.849C87.076 349.778 84.037 346.351 81.4497 342.636C79.7763 340.418 79.4576 340.973 77.678 338.804C77.4364 338.46 77.2857 338.068 77.2381 337.66C77.1904 337.252 77.2471 336.839 77.4037 336.455C77.5602 336.071 77.8121 335.727 78.139 335.45C78.4658 335.173 78.8584 334.972 79.2849 334.862C80.8489 334.58 82.3824 334.167 83.8667 333.63L90.0023 337.819C88.8735 340.492 90.3609 348.045 93.5084 351.149C95.7661 353.342 92.2866 354.365 90.507 352.849Z" fill="black"/>
<path d="M111.079 208.248C111.079 208.248 130.734 261.508 130.999 278.768C131.092 284.041 89.5109 339.051 89.5109 339.051C88.4618 339.802 84.0792 334.751 83.8269 333.421C94.6904 313.942 102.526 291.212 112.367 278.041C87.9704 240.071 82.1934 208.248 82.1934 208.248H111.079Z" fill="black"/>
<g opacity="0.2">
<path d="M111.079 208.248C111.079 208.248 130.734 261.508 130.999 278.768C131.092 284.041 89.5109 339.051 89.5109 339.051C88.4618 339.802 84.0792 334.751 83.8269 333.421C94.6904 313.942 102.526 291.212 112.367 278.041C87.9704 240.071 82.1934 208.248 82.1934 208.248H111.079Z" fill="white"/>
</g>
<path opacity="0.3" d="M95.155 234.354C95.155 234.354 106.231 256.136 106.603 267.828C103.15 262.124 95.7925 247.29 93.5215 242.646L95.155 234.354Z" fill="black"/>
<path opacity="0.2" d="M90.5068 320.435C89.9755 325.72 88.9928 333.347 89.1787 339.125C88.4463 338.936 87.7787 338.575 87.2398 338.078L86.4695 328.517L90.5068 320.435Z" fill="black"/>
<path d="M96.0184 371.995C89.8695 371.995 89.0593 371.909 85.6197 371.798C82.6581 371.712 81.9542 372.044 79.577 371.995C77.5982 371.995 77.6779 370.196 78.249 368.176C78.5544 367.153 79.0192 365.009 79.4442 363.359L88.4351 362.755C89.7632 364.997 92.5521 368.188 96.0184 368.619C99.4846 369.05 98.462 371.995 96.0184 371.995Z" fill="black"/>
<path d="M102.433 208.248C102.433 208.248 95.9653 263.233 92.2069 285.865C88.2228 309.68 87.7579 347.884 88.7407 363.482C87.3064 364.258 82.1004 363.716 79.2584 362.89C79.2584 362.89 70.2143 315.199 74.7297 288.243C70.3339 221.714 82.2067 208.235 82.2067 208.235L102.433 208.248Z" fill="black"/>
<g opacity="0.2">
<path d="M102.433 208.248C102.433 208.248 95.9653 263.233 92.2069 285.865C88.2228 309.68 87.7579 347.884 88.7407 363.482C87.3064 364.258 82.1004 363.716 79.2584 362.89C79.2584 362.89 70.2143 315.199 74.7297 288.243C70.3339 221.714 82.2067 208.235 82.2067 208.235L102.433 208.248Z" fill="white"/>
</g>
<path d="M14.2764 273.126H63.8793C64.406 273.125 64.9168 272.958 65.329 272.654C65.7412 272.35 66.0306 271.926 66.1503 271.45L74.1186 239.073H4.70117L12.0055 271.413C12.1151 271.897 12.4005 272.331 12.8139 272.643C13.2273 272.954 13.7437 273.125 14.2764 273.126Z" fill="#A02724"/>
<path opacity="0.1" d="M14.2764 273.126H63.8793C64.406 273.125 64.9168 272.958 65.329 272.654C65.7412 272.35 66.0306 271.926 66.1503 271.45L74.1186 239.073H4.70117L12.0055 271.413C12.1151 271.897 12.4005 272.331 12.8139 272.643C13.2273 272.954 13.7437 273.125 14.2764 273.126Z" fill="white"/>
<path d="M62.9499 252.65C63.2118 252.646 63.4617 252.547 63.6456 252.375C63.8296 252.202 63.9327 251.968 63.9327 251.725V243.101C63.9327 242.858 63.8296 242.625 63.6456 242.452C63.4617 242.279 63.2118 242.181 62.9499 242.177C62.6857 242.177 62.4324 242.275 62.2456 242.448C62.0588 242.621 61.9539 242.856 61.9539 243.101V251.725C61.9539 251.971 62.0588 252.206 62.2456 252.379C62.4324 252.552 62.6857 252.65 62.9499 252.65Z" fill="black"/>
<path d="M58.9792 252.65C59.2423 252.646 59.4936 252.548 59.6797 252.375C59.8658 252.203 59.9718 251.97 59.9752 251.725V243.101C59.9718 242.857 59.8658 242.624 59.6797 242.452C59.4936 242.279 59.2423 242.181 58.9792 242.177C58.7161 242.181 58.4647 242.279 58.2787 242.452C58.0926 242.624 57.9866 242.857 57.9832 243.101V251.725C57.9866 251.97 58.0926 252.203 58.2787 252.375C58.4647 252.548 58.7161 252.646 58.9792 252.65Z" fill="black"/>
<path d="M55.0876 252.65C55.3507 252.646 55.602 252.548 55.7881 252.375C55.9742 252.203 56.0802 251.97 56.0836 251.725V243.101C56.0802 242.857 55.9742 242.624 55.7881 242.452C55.602 242.279 55.3507 242.181 55.0876 242.177C54.8245 242.181 54.5731 242.279 54.3871 242.452C54.201 242.624 54.095 242.857 54.0916 243.101V251.725C54.095 251.97 54.201 252.203 54.3871 252.375C54.5731 252.548 54.8245 252.646 55.0876 252.65Z" fill="black"/>
<path d="M24.0111 252.65C24.2753 252.65 24.5286 252.552 24.7154 252.379C24.9022 252.206 25.0071 251.971 25.0071 251.725V243.101C25.0071 242.856 24.9022 242.621 24.7154 242.448C24.5286 242.275 24.2753 242.177 24.0111 242.177C23.7492 242.181 23.4993 242.279 23.3153 242.452C23.1314 242.625 23.0283 242.858 23.0283 243.101V251.725C23.0283 251.968 23.1314 252.202 23.3153 252.375C23.4993 252.547 23.7492 252.646 24.0111 252.65Z" fill="black"/>
<path d="M19.9877 252.65C20.2518 252.65 20.5052 252.552 20.692 252.379C20.8787 252.206 20.9837 251.971 20.9837 251.725V243.101C20.9837 242.856 20.8787 242.621 20.692 242.448C20.5052 242.275 20.2518 242.177 19.9877 242.177C19.7258 242.181 19.4758 242.279 19.2919 242.452C19.108 242.625 19.0049 242.858 19.0049 243.101V251.725C19.0049 251.968 19.108 252.202 19.2919 252.375C19.4758 252.547 19.7258 252.646 19.9877 252.65Z" fill="black"/>
<path d="M15.9897 252.65C16.2516 252.646 16.5015 252.547 16.6854 252.375C16.8694 252.202 16.9725 251.968 16.9725 251.725V243.101C16.9725 242.858 16.8694 242.625 16.6854 242.452C16.5015 242.279 16.2516 242.181 15.9897 242.177C15.7255 242.177 15.4722 242.275 15.2854 242.448C15.0986 242.621 14.9937 242.856 14.9937 243.101V251.725C14.9937 251.971 15.0986 252.206 15.2854 252.379C15.4722 252.552 15.7255 252.65 15.9897 252.65Z" fill="black"/>
<path d="M45.7778 252.65C46.0409 252.646 46.2922 252.548 46.4783 252.375C46.6643 252.203 46.7704 251.97 46.7738 251.725V243.101C46.7704 242.857 46.6643 242.624 46.4783 242.452C46.2922 242.279 46.0409 242.181 45.7778 242.177C45.5147 242.181 45.2633 242.279 45.0773 242.452C44.8912 242.624 44.7852 242.857 44.7817 243.101V251.725C44.7852 251.97 44.8912 252.203 45.0773 252.375C45.2633 252.548 45.5147 252.646 45.7778 252.65Z" fill="black"/>
<path d="M41.9135 252.65C42.1766 252.646 42.428 252.548 42.614 252.375C42.8001 252.203 42.9061 251.97 42.9096 251.725V243.101C42.9061 242.857 42.8001 242.624 42.614 242.452C42.428 242.279 42.1766 242.181 41.9135 242.177C41.6504 242.181 41.3991 242.279 41.213 242.452C41.027 242.624 40.9209 242.857 40.9175 243.101V251.725C40.9209 251.97 41.027 252.203 41.213 252.375C41.3991 252.548 41.6504 252.646 41.9135 252.65Z" fill="black"/>
<path d="M37.9425 252.65C38.2066 252.65 38.46 252.552 38.6468 252.379C38.8336 252.206 38.9385 251.971 38.9385 251.725V243.101C38.9385 242.856 38.8336 242.621 38.6468 242.448C38.46 242.275 38.2066 242.177 37.9425 242.177C37.6806 242.181 37.4307 242.279 37.2467 242.452C37.0628 242.625 36.9597 242.858 36.9597 243.101V251.725C36.9597 251.968 37.0628 252.202 37.2467 252.375C37.4307 252.547 37.6806 252.646 37.9425 252.65Z" fill="black"/>
<path d="M33.9851 252.65C34.2469 252.646 34.4969 252.547 34.6808 252.375C34.8647 252.202 34.9678 251.968 34.9678 251.725V243.101C34.9678 242.858 34.8647 242.625 34.6808 242.452C34.4969 242.279 34.2469 242.181 33.9851 242.177C33.7209 242.177 33.4675 242.275 33.2808 242.448C33.094 242.621 32.989 242.856 32.989 243.101V251.725C32.989 251.971 33.094 252.206 33.2808 252.379C33.4675 252.552 33.7209 252.65 33.9851 252.65Z" fill="black"/>
<path d="M62.9499 267.828C63.2105 267.828 63.4605 267.732 63.6448 267.561C63.8291 267.39 63.9327 267.158 63.9327 266.916V258.292C63.9327 258.05 63.8291 257.819 63.6448 257.648C63.4605 257.477 63.2105 257.381 62.9499 257.381C62.8197 257.379 62.6905 257.401 62.5697 257.446C62.449 257.491 62.3391 257.558 62.2464 257.643C62.1537 257.728 62.0801 257.829 62.0299 257.94C61.9797 258.052 61.9538 258.171 61.9539 258.292V266.916C61.9538 267.037 61.9797 267.157 62.0299 267.268C62.0801 267.38 62.1537 267.481 62.2464 267.565C62.3391 267.65 62.449 267.717 62.5697 267.762C62.6905 267.807 62.8197 267.83 62.9499 267.828Z" fill="black"/>
<path d="M58.9792 267.828C59.2411 267.828 59.4924 267.732 59.6788 267.562C59.8653 267.391 59.9717 267.159 59.9752 266.916V258.292C59.9717 258.049 59.8653 257.817 59.6788 257.647C59.4924 257.476 59.2411 257.38 58.9792 257.38C58.7173 257.38 58.466 257.476 58.2795 257.647C58.0931 257.817 57.9866 258.049 57.9832 258.292V266.916C57.9866 267.159 58.0931 267.391 58.2795 267.562C58.466 267.732 58.7173 267.828 58.9792 267.828Z" fill="black"/>
<path d="M55.0876 267.828C55.3495 267.828 55.6008 267.732 55.7872 267.562C55.9737 267.391 56.0801 267.159 56.0836 266.916V258.292C56.0801 258.049 55.9737 257.817 55.7872 257.647C55.6008 257.476 55.3495 257.38 55.0876 257.38C54.8257 257.38 54.5744 257.476 54.3879 257.647C54.2015 257.817 54.095 258.049 54.0916 258.292V266.916C54.095 267.159 54.2015 267.391 54.3879 267.562C54.5744 267.732 54.8257 267.828 55.0876 267.828Z" fill="black"/>
<path d="M24.0111 267.828C24.1413 267.83 24.2705 267.807 24.3913 267.762C24.512 267.717 24.6219 267.65 24.7146 267.565C24.8073 267.481 24.8809 267.38 24.9311 267.268C24.9813 267.157 25.0071 267.037 25.0071 266.916V258.292C25.0071 258.171 24.9813 258.052 24.9311 257.94C24.8809 257.829 24.8073 257.728 24.7146 257.643C24.6219 257.558 24.512 257.491 24.3913 257.446C24.2705 257.401 24.1413 257.379 24.0111 257.381C23.7504 257.381 23.5005 257.477 23.3162 257.648C23.1319 257.819 23.0283 258.05 23.0283 258.292V266.916C23.0283 267.158 23.1319 267.39 23.3162 267.561C23.5005 267.732 23.7504 267.828 24.0111 267.828Z" fill="black"/>
<path d="M19.9877 267.828C20.1178 267.83 20.247 267.807 20.3678 267.762C20.4886 267.717 20.5985 267.65 20.6912 267.565C20.7838 267.481 20.8574 267.38 20.9076 267.268C20.9578 267.157 20.9837 267.037 20.9837 266.916V258.292C20.9837 258.171 20.9578 258.052 20.9076 257.94C20.8574 257.829 20.7838 257.728 20.6912 257.643C20.5985 257.558 20.4886 257.491 20.3678 257.446C20.247 257.401 20.1178 257.379 19.9877 257.381C19.727 257.381 19.477 257.477 19.2927 257.648C19.1084 257.819 19.0049 258.05 19.0049 258.292V266.916C19.0049 267.158 19.1084 267.39 19.2927 267.561C19.477 267.732 19.727 267.828 19.9877 267.828Z" fill="black"/>
<path d="M15.9897 267.828C16.2503 267.828 16.5003 267.732 16.6846 267.561C16.8689 267.39 16.9725 267.158 16.9725 266.916V258.292C16.9725 258.05 16.8689 257.819 16.6846 257.648C16.5003 257.477 16.2503 257.381 15.9897 257.381C15.8595 257.379 15.7303 257.401 15.6095 257.446C15.4888 257.491 15.3788 257.558 15.2862 257.643C15.1935 257.728 15.1199 257.829 15.0697 257.94C15.0195 258.052 14.9936 258.171 14.9937 258.292V266.916C14.9936 267.037 15.0195 267.157 15.0697 267.268C15.1199 267.38 15.1935 267.481 15.2862 267.565C15.3788 267.65 15.4888 267.717 15.6095 267.762C15.7303 267.807 15.8595 267.83 15.9897 267.828Z" fill="black"/>
<path d="M45.7778 267.828C46.0397 267.828 46.291 267.732 46.4774 267.562C46.6638 267.391 46.7703 267.159 46.7738 266.916V258.292C46.7703 258.049 46.6638 257.817 46.4774 257.647C46.291 257.476 46.0397 257.38 45.7778 257.38C45.5159 257.38 45.2645 257.476 45.0781 257.647C44.8917 257.817 44.7852 258.049 44.7817 258.292V266.916C44.7852 267.159 44.8917 267.391 45.0781 267.562C45.2645 267.732 45.5159 267.828 45.7778 267.828Z" fill="black"/>
<path d="M41.9135 267.828C42.1754 267.828 42.4268 267.732 42.6132 267.562C42.7996 267.391 42.9061 267.159 42.9096 266.916V258.292C42.9061 258.049 42.7996 257.817 42.6132 257.647C42.4268 257.476 42.1754 257.38 41.9135 257.38C41.6516 257.38 41.4003 257.476 41.2139 257.647C41.0275 257.817 40.921 258.049 40.9175 258.292V266.916C40.921 267.159 41.0275 267.391 41.2139 267.562C41.4003 267.732 41.6516 267.828 41.9135 267.828Z" fill="black"/>
<path d="M37.9425 267.828C38.0726 267.83 38.2019 267.807 38.3226 267.762C38.4434 267.717 38.5533 267.65 38.646 267.565C38.7387 267.481 38.8122 267.38 38.8625 267.268C38.9127 267.157 38.9385 267.037 38.9385 266.916V258.292C38.9385 258.171 38.9127 258.052 38.8625 257.94C38.8122 257.829 38.7387 257.728 38.646 257.643C38.5533 257.558 38.4434 257.491 38.3226 257.446C38.2019 257.401 38.0726 257.379 37.9425 257.381C37.6818 257.381 37.4319 257.477 37.2476 257.648C37.0633 257.819 36.9597 258.05 36.9597 258.292V266.916C36.9597 267.158 37.0633 267.39 37.2476 267.561C37.4319 267.732 37.6818 267.828 37.9425 267.828Z" fill="black"/>
<path d="M33.9851 267.828C34.2457 267.828 34.4957 267.732 34.68 267.561C34.8643 267.39 34.9678 267.158 34.9678 266.916V258.292C34.9678 258.05 34.8643 257.819 34.68 257.648C34.4957 257.477 34.2457 257.381 33.9851 257.381C33.8549 257.379 33.7257 257.401 33.6049 257.446C33.4841 257.491 33.3742 257.558 33.2815 257.643C33.1889 257.728 33.1153 257.829 33.0651 257.94C33.0149 258.052 32.989 258.171 32.989 258.292V266.916C32.989 267.037 33.0149 267.157 33.0651 267.268C33.1153 267.38 33.1889 267.481 33.2815 267.565C33.3742 267.65 33.4841 267.717 33.6049 267.762C33.7257 267.807 33.8549 267.83 33.9851 267.828Z" fill="black"/>
<path opacity="0.2" d="M73.8927 240.071H5.0065L4.38232 238.001H74.5568L73.8927 240.071Z" fill="black"/>
<path d="M2.97487 239.073H76.3765C77.1655 239.073 77.9221 238.782 78.48 238.264C79.0379 237.747 79.3513 237.045 79.3513 236.313C79.3513 235.581 79.0379 234.879 78.48 234.362C77.9221 233.844 77.1655 233.553 76.3765 233.553H2.97487C2.18819 233.553 1.43354 233.842 0.876024 234.357C0.318513 234.872 0.00354162 235.571 2.96458e-05 236.301C-0.00171938 236.664 0.073939 237.024 0.222656 237.361C0.371372 237.697 0.590217 238.002 0.866631 238.26C1.14305 238.518 1.47158 238.722 1.83337 238.861C2.19516 239.001 2.58309 239.073 2.97487 239.073Z" fill="#A02724"/>
<path opacity="0.3" d="M2.97487 239.073H76.3765C77.1655 239.073 77.9221 238.782 78.48 238.264C79.0379 237.747 79.3513 237.045 79.3513 236.313C79.3513 235.581 79.0379 234.879 78.48 234.362C77.9221 233.844 77.1655 233.553 76.3765 233.553H2.97487C2.18819 233.553 1.43354 233.842 0.876024 234.357C0.318513 234.872 0.00354162 235.571 2.96458e-05 236.301C-0.00171938 236.664 0.073939 237.024 0.222656 237.361C0.371372 237.697 0.590217 238.002 0.866631 238.26C1.14305 238.518 1.47158 238.722 1.83337 238.861C2.19516 239.001 2.58309 239.073 2.97487 239.073Z" fill="white"/>
<path d="M39.6952 238.001C39.9353 238.002 40.1733 237.96 40.3956 237.876C40.6179 237.792 40.82 237.668 40.9903 237.511C41.1607 237.354 41.2959 237.167 41.3882 236.962C41.4804 236.756 41.5279 236.536 41.5279 236.313V201.804C41.5279 201.581 41.4804 201.361 41.3882 201.155C41.2959 200.95 41.1607 200.763 40.9903 200.606C40.82 200.449 40.6179 200.325 40.3956 200.241C40.1733 200.157 39.9353 200.115 39.6952 200.116C39.2127 200.116 38.7499 200.294 38.4087 200.611C38.0675 200.927 37.8758 201.357 37.8758 201.804V236.301C37.874 236.523 37.9198 236.744 38.0104 236.95C38.1011 237.157 38.2348 237.344 38.404 237.502C38.5731 237.66 38.7743 237.786 38.9959 237.871C39.2175 237.957 39.4552 238.001 39.6952 238.001Z" fill="black"/>
</svg>
