<svg width="551" height="417" viewBox="0 0 551 417" fill="none" xmlns="http://www.w3.org/2000/svg">
<path d="M551 366.316H0V366.591H551V366.316Z" fill="#E6E6E6"/>
<path d="M86.1984 378.614H56.9182V378.89H86.1984V378.614Z" fill="#E6E6E6"/>
<path d="M96.7885 373.104H71.5527V373.38H96.7885V373.104Z" fill="#E6E6E6"/>
<path d="M358.602 373.92H290.884V374.195H358.602V373.92Z" fill="#E6E6E6"/>
<path d="M381.193 373.92H364.949V374.195H381.193V373.92Z" fill="#E6E6E6"/>
<path d="M473.552 375.804H419.928V376.08H473.552V375.804Z" fill="#E6E6E6"/>
<path d="M212.873 380.201H117.407V380.477H212.873V380.201Z" fill="#E6E6E6"/>
<path d="M491.04 375.804H483.227V376.08H491.04V375.804Z" fill="#E6E6E6"/>
<path d="M261.174 317.167H48.3888C46.7219 317.164 45.1242 316.499 43.9465 315.32C42.7689 314.14 42.1074 312.541 42.1074 310.874V11.7583C42.1219 10.101 42.7898 8.51624 43.9659 7.34838C45.142 6.18053 46.7314 5.52387 48.3888 5.52103H261.174C262.843 5.52103 264.443 6.18398 265.623 7.36403C266.803 8.54409 267.466 10.1446 267.466 11.8134V310.874C267.466 312.543 266.803 314.144 265.623 315.324C264.443 316.504 262.843 317.167 261.174 317.167ZM48.3888 5.74143C46.7949 5.74435 45.2673 6.37956 44.1413 7.50763C43.0153 8.63571 42.3829 10.1645 42.3829 11.7583V310.874C42.3829 312.468 43.0153 313.997 44.1413 315.125C45.2673 316.253 46.7949 316.888 48.3888 316.891H261.174C262.769 316.888 264.298 316.253 265.425 315.126C266.553 313.998 267.188 312.469 267.191 310.874V11.7583C267.188 10.1635 266.553 8.63472 265.425 7.50696C264.298 6.3792 262.769 5.74434 261.174 5.74143H48.3888Z" fill="#E6E6E6"/>
<path d="M499.548 317.167H286.751C285.083 317.164 283.485 316.5 282.305 315.32C281.126 314.141 280.462 312.542 280.459 310.874V11.7583C280.476 10.1 281.147 8.51525 282.325 7.34769C283.502 6.18014 285.093 5.52383 286.751 5.52103H499.548C501.203 5.52676 502.79 6.18471 503.963 7.35225C505.137 8.5198 505.803 10.1029 505.818 11.7583V310.874C505.818 312.539 505.158 314.136 503.983 315.316C502.807 316.495 501.213 317.161 499.548 317.167ZM286.751 5.74143C285.157 5.74434 283.628 6.3792 282.5 7.50696C281.372 8.63472 280.737 10.1635 280.734 11.7583V310.874C280.737 312.469 281.372 313.998 282.5 315.126C283.628 316.253 285.157 316.888 286.751 316.891H499.548C501.142 316.888 502.671 316.253 503.799 315.126C504.927 313.998 505.562 312.469 505.565 310.874V11.7583C505.562 10.1635 504.927 8.63472 503.799 7.50696C502.671 6.3792 501.142 5.74434 499.548 5.74143H286.751Z" fill="#E6E6E6"/>
<path d="M169.078 176.797C172.146 163.488 163.844 150.213 150.536 147.145C137.227 144.078 123.952 152.379 120.884 165.688C117.817 178.996 126.119 192.272 139.427 195.339C152.736 198.407 166.011 190.105 169.078 176.797Z" fill="#F0F0F0"/>
<path d="M313.607 166.127C310.533 159.515 312.979 154.721 320.517 154.721C325.233 154.721 331.096 156.594 336.804 159.625C337.454 157.895 339.262 156.859 342.182 156.859C347.328 156.859 354.414 160.066 359.968 164.573C361.682 163.426 363.703 162.823 365.765 162.843C370.691 162.644 376.642 164.485 381.821 167.482C382.125 167.194 382.483 166.969 382.875 166.822C383.267 166.674 383.684 166.606 384.102 166.622C385.744 166.678 387.356 167.076 388.834 167.791C390.313 168.507 391.625 169.524 392.687 170.777C392.808 170.92 392.907 171.075 393.017 171.218H309.783C307.149 168.871 310.059 166.248 313.607 166.127Z" fill="#F5F5F5"/>
<path d="M151.459 217.292L219.651 201.677V366.316H151.459V217.292Z" fill="#FAFAFA"/>
<path d="M255.036 201.677H219.651V366.316H255.036V201.677Z" fill="#EBEBEB"/>
<path d="M243.476 366.316H301.518V162.303H243.476L243.476 366.316Z" fill="#FAFAFA"/>
<path d="M331.636 162.303H301.518V366.316H331.636V162.303Z" fill="#EBEBEB"/>
<path d="M251.289 162.303H301.518V147.139H251.289V162.303Z" fill="#FAFAFA"/>
<path d="M251.289 162.303H301.518V158.897H251.289V162.303Z" fill="#EBEBEB"/>
<path d="M323.834 147.139H301.518V162.303H323.834V147.139Z" fill="#EBEBEB"/>
<path d="M259.091 147.139H301.507V131.976H259.091V147.139Z" fill="#FAFAFA"/>
<path d="M259.091 147.139H301.507V143.734H259.091V147.139Z" fill="#EBEBEB"/>
<path d="M316.021 131.987H301.518V147.15H316.021V131.987Z" fill="#EBEBEB"/>
<path d="M288.966 110.806H286.145V131.987H288.966V110.806Z" fill="#EBEBEB"/>
<path d="M322.016 366.316H364.398V188.817H322.016V366.316Z" fill="#FAFAFA"/>
<path d="M386.405 188.817H364.409V366.316H386.405V188.817Z" fill="#EBEBEB"/>
<path d="M375.407 224.819L407.542 252.369V366.316H375.407V224.819Z" fill="#FAFAFA"/>
<path d="M424.226 252.369H407.542V366.316H424.226V252.369Z" fill="#EBEBEB"/>
<path d="M424.226 252.369H407.542L375.407 224.819H392.08L424.226 252.369Z" fill="#EBEBEB"/>
<path d="M484.77 366.316C485.243 363.669 486.368 361.181 488.044 359.078C489.72 356.975 491.893 355.323 494.368 354.271C492.195 357.894 491.209 362.105 491.547 366.316H484.77Z" fill="#EBEBEB"/>
<path d="M205.303 366.316C204.83 363.669 203.705 361.181 202.029 359.078C200.353 356.975 198.179 355.323 195.704 354.271C197.877 357.894 198.863 362.105 198.525 366.316H205.303Z" fill="#EBEBEB"/>
<path d="M64.8746 366.316C64.8746 366.316 64.3347 352.21 58.439 348.111C60.8523 353.874 60.3344 366.316 60.3344 366.316H64.8746Z" fill="#EBEBEB"/>
<path d="M62.6597 366.316C62.6597 366.316 63.2107 358.216 69.1064 355.869C66.682 359.175 67.2109 366.316 67.2109 366.316H62.6597Z" fill="#EBEBEB"/>
<path d="M210.35 366.316C210.35 366.316 209.755 352.96 199.065 348.111C203.848 354.965 203.572 366.316 203.572 366.316H210.35Z" fill="#EBEBEB"/>
<path d="M103.235 276.404L111.015 331.283L111.787 336.771H116.779L115.997 331.283L108.216 276.404H103.235Z" fill="#E0E0E0"/>
<path d="M317.012 276.404L324.793 331.283L325.564 336.771H330.556L329.774 331.283L321.993 276.404H317.012Z" fill="#E0E0E0"/>
<path d="M135.182 331.283L135.965 336.771L140.163 366.36H145.155L140.957 336.771L140.185 331.283H135.182Z" fill="#E6E6E6"/>
<path d="M348.97 331.283L349.753 336.771L353.94 366.36H358.921L354.734 336.771L353.962 331.283H348.97Z" fill="#E6E6E6"/>
<path d="M323.779 331.283L322.996 336.771L318.798 366.36H313.806L318.004 336.771L318.776 331.283H323.779Z" fill="#E6E6E6"/>
<path d="M109.991 331.283L109.208 336.771L105.021 366.36H100.04L104.227 336.771L105.01 331.283H109.991Z" fill="#E6E6E6"/>
<path d="M96.0613 284.04H324.539L320.296 268.756H91.8186L96.0613 284.04Z" fill="#F5F5F5"/>
<path d="M101.274 284.04H329.763L325.52 268.756H97.0312L101.274 284.04Z" fill="#E6E6E6"/>
<path d="M99.2462 303.094H327.724L323.481 287.82H94.9924L99.2462 303.094Z" fill="#F5F5F5"/>
<path d="M104.459 303.094H332.936L328.693 287.82H100.216L104.459 303.094Z" fill="#E6E6E6"/>
<path d="M102.42 322.181H330.909L326.666 306.907H98.1772L102.42 322.181Z" fill="#F5F5F5"/>
<path d="M107.643 322.181H336.121L331.878 306.907H103.401L107.643 322.181Z" fill="#E6E6E6"/>
<path d="M356.916 331.283H129.441V336.771H356.916V331.283Z" fill="#E6E6E6"/>
<path d="M129.441 331.283H98.1772V336.771H129.441V331.283Z" fill="#F5F5F5"/>
<path d="M80.9971 107.423C76.7324 98.2102 80.1265 91.6533 90.5515 91.6533C97.0863 91.6533 105.186 94.232 113.087 98.4306C113.98 96.0393 116.493 94.6067 120.526 94.6067C127.645 94.6067 137.442 99.0147 145.134 105.307C147.501 103.719 150.294 102.885 153.145 102.916C159.955 102.629 168.198 105.186 175.361 109.329C176.213 108.531 177.346 108.103 178.513 108.139C182.436 107.974 187.748 110.553 190.382 113.881C190.547 114.09 190.69 114.288 190.833 114.498H75.7075C72.0709 111.225 76.0932 107.588 80.9971 107.423Z" fill="#F5F5F5"/>
<path d="M383.397 126.421C383.687 126.405 383.978 126.405 384.268 126.421C384.003 123.413 385.557 121.484 388.896 121.484C391.863 121.685 394.736 122.612 397.26 124.184C396.401 118.344 399.167 114.542 405.404 114.542C410.44 114.542 416.821 117.01 423.124 121.044C423.675 118.752 425.526 117.374 428.634 117.374C434.144 117.374 441.858 121.628 448.139 127.623C449.79 126.122 451.948 125.303 454.178 125.33C459.391 125.055 465.871 127.534 471.612 131.48C471.888 131.118 472.248 130.828 472.661 130.636C473.074 130.445 473.527 130.356 473.981 130.378C476.836 130.234 480.759 132.427 483.051 135.359H378.813C376.355 130.818 378.306 126.928 383.397 126.421Z" fill="#F5F5F5"/>
<path d="M208.036 59.7725C208.322 59.7557 208.609 59.7557 208.895 59.7725C208.631 56.753 210.196 54.8355 213.524 54.8355C216.495 55.0344 219.371 55.9617 221.899 57.5354C221.039 51.6838 223.794 47.8819 230.032 47.8819C235.079 47.8819 241.448 50.3614 247.752 54.3947C248.303 52.1026 250.154 50.7251 253.262 50.7251C258.772 50.7251 266.486 54.9678 272.767 60.9737C274.421 59.4776 276.576 58.6558 278.806 58.6705C284.019 58.406 290.498 60.8745 296.24 64.8196C296.517 64.4585 296.877 64.1697 297.289 63.9778C297.702 63.7859 298.155 63.6966 298.609 63.7176C301.463 63.5634 305.397 65.7563 307.679 68.6987H203.44C200.994 64.1695 202.944 60.2794 208.036 59.7725Z" fill="#F5F5F5"/>
<path d="M468.096 347.251L448.514 327.669H433.262L450.189 344.595H445.538V366.316H463.446V347.251H468.096Z" fill="#EBEBEB"/>
<path d="M452.845 347.251L433.262 327.669L413.68 347.251H420.986V366.316H445.538V347.251H452.845Z" fill="#FAFAFA"/>
<path d="M275.5 416.082C393.505 416.082 489.167 410.497 489.167 403.607C489.167 396.718 393.505 391.133 275.5 391.133C157.495 391.133 61.8333 396.718 61.8333 403.607C61.8333 410.497 157.495 416.082 275.5 416.082Z" fill="#F5F5F5"/>
<path d="M442.078 63.6185L412.71 34.2502H389.833L415.223 59.6402H408.236V92.2043H435.092V63.6185H442.078Z" fill="#A93339"/>
<path opacity="0.4" d="M442.078 63.6185L412.71 34.2502H389.833L415.223 59.6402H408.236V92.2043H435.092V63.6185H442.078Z" fill="white"/>
<path d="M419.201 63.6185L389.833 34.2502L360.464 63.6185H371.429V92.2043H408.236V63.6185H419.201Z" fill="#A93339"/>
<path opacity="0.7" d="M419.201 63.6185L389.833 34.2502L360.464 63.6185H371.429V92.2043H408.236V63.6185H419.201Z" fill="white"/>
<path d="M460.989 180.849L431.62 151.47H408.743L434.133 176.86H427.146V209.424H454.002V180.849H460.989Z" fill="#A93339"/>
<path opacity="0.4" d="M460.989 180.849L431.62 151.47H408.743L434.133 176.86H427.146V209.424H454.002V180.849H460.989Z" fill="white"/>
<path d="M438.111 180.849L408.743 151.47L379.375 180.849H390.328V209.424H427.146V180.849H438.111Z" fill="#A93339"/>
<path opacity="0.7" d="M438.111 180.849L408.743 151.47L379.375 180.849H390.328V209.424H427.146V180.849H438.111Z" fill="white"/>
<path d="M328.815 211.386L299.435 182.017H276.569L301.959 207.396H294.972V239.972H321.828V211.386H328.815Z" fill="#A93339"/>
<path opacity="0.4" d="M328.815 211.386L299.435 182.017H276.569L301.959 207.396H294.972V239.972H321.828V211.386H328.815Z" fill="white"/>
<path d="M305.937 211.386L276.569 182.017L247.201 211.386H258.155V239.96H294.972V211.386H305.937Z" fill="#A93339"/>
<path opacity="0.7" d="M305.937 211.386L276.569 182.017L247.201 211.386H258.155V239.96H294.972V211.386H305.937Z" fill="white"/>
<path d="M327.063 112.702H311.26L309.001 110.453L290.653 76.2914L327.063 112.702Z" fill="#2F54C6"/>
<path d="M311.205 145.883H344.496V105.505H311.205V145.883Z" fill="#A93339"/>
<path opacity="0.3" d="M311.205 145.883H344.496V105.505H311.205V145.883Z" fill="black"/>
<path d="M324.803 110.453H353.169L316.748 74.0323H288.393L324.803 110.453Z" fill="#A93339"/>
<path opacity="0.3" d="M324.803 110.453H353.169L316.748 74.0323H288.393L324.803 110.453Z" fill="black"/>
<path d="M311.205 100.238V145.883H265.571V100.238L288.393 78.0767L288.625 78.3081L290.653 80.2697L311.205 100.238Z" fill="#A93339"/>
<path opacity="0.3" d="M290.653 76.2914V92.0941L270.034 112.702H265.571V101.373L288.625 78.3081L290.653 76.2914Z" fill="black"/>
<path d="M324.803 110.453H309.001L288.393 89.835V74.0323L324.803 110.453Z" fill="#A93339"/>
<path d="M251.972 110.453H267.775L288.394 89.835V74.0323L251.972 110.453Z" fill="#A93339"/>
<path d="M246.848 156.914C237.448 164.54 227.75 171.714 217.998 178.766C208.245 185.819 198.36 192.674 188.442 199.473C178.524 206.272 168.441 212.818 158.313 219.309C153.277 222.615 148.164 225.745 143.084 228.963C140.578 230.689 137.809 231.999 134.885 232.842C133.3 233.269 131.675 233.535 130.036 233.635C128.194 233.787 126.341 233.687 124.526 233.338C123.105 233.048 121.756 232.482 120.554 231.67C119.353 230.859 118.324 229.818 117.525 228.608C116.727 227.398 116.175 226.043 115.901 224.619C115.628 223.195 115.638 221.732 115.93 220.312C115.93 220.147 116.008 219.937 116.052 219.761C116.546 217.977 117.288 216.27 118.256 214.692C119.07 213.286 120.026 211.968 121.11 210.758C123.151 208.5 125.544 206.587 128.196 205.093C133.32 201.942 138.4 198.735 143.547 195.649C153.806 189.379 164.165 183.285 174.579 177.268C184.993 171.251 195.517 165.421 206.129 159.735C216.741 154.049 227.442 148.506 238.418 143.392C240.189 142.624 242.176 142.518 244.019 143.092C245.862 143.666 247.437 144.883 248.458 146.521C249.48 148.159 249.879 150.109 249.583 152.016C249.288 153.924 248.317 155.662 246.848 156.914Z" fill="#A93339"/>
<path d="M246.848 156.914C237.448 164.54 227.75 171.714 217.998 178.766C208.245 185.819 198.36 192.674 188.442 199.473C178.524 206.272 168.441 212.818 158.313 219.309C153.277 222.615 148.164 225.745 143.084 228.963C140.578 230.689 137.809 231.999 134.885 232.842C133.3 233.269 131.675 233.535 130.036 233.635C128.194 233.787 126.341 233.687 124.526 233.338C123.105 233.048 121.756 232.482 120.554 231.67C119.353 230.859 118.324 229.818 117.525 228.608C116.727 227.398 116.175 226.043 115.901 224.619C115.628 223.195 115.638 221.732 115.93 220.312C115.93 220.147 116.008 219.937 116.052 219.761C116.546 217.977 117.288 216.27 118.256 214.692C119.07 213.286 120.026 211.968 121.11 210.758C123.151 208.5 125.544 206.587 128.196 205.093C133.32 201.942 138.4 198.735 143.547 195.649C153.806 189.379 164.165 183.285 174.579 177.268C184.993 171.251 195.517 165.421 206.129 159.735C216.741 154.049 227.442 148.506 238.418 143.392C240.189 142.624 242.176 142.518 244.019 143.092C245.862 143.666 247.437 144.883 248.458 146.521C249.48 148.159 249.879 150.109 249.583 152.016C249.288 153.924 248.317 155.662 246.848 156.914Z" fill="#A93339"/>
<path opacity="0.5" d="M246.848 156.914C237.448 164.54 227.75 171.714 217.998 178.766C208.245 185.819 198.36 192.674 188.442 199.473C178.524 206.272 168.441 212.818 158.313 219.309C153.277 222.615 148.164 225.745 143.084 228.963C140.578 230.689 137.809 231.999 134.885 232.842C133.3 233.269 131.675 233.535 130.036 233.635C128.194 233.787 126.341 233.687 124.526 233.338C123.105 233.048 121.756 232.482 120.554 231.67C119.353 230.859 118.324 229.818 117.525 228.608C116.727 227.398 116.175 226.043 115.901 224.619C115.628 223.195 115.638 221.732 115.93 220.312C115.93 220.147 116.008 219.937 116.052 219.761C116.546 217.977 117.288 216.27 118.256 214.692C119.07 213.286 120.026 211.968 121.11 210.758C123.151 208.5 125.544 206.587 128.196 205.093C133.32 201.942 138.4 198.735 143.547 195.649C153.806 189.379 164.165 183.285 174.579 177.268C184.993 171.251 195.517 165.421 206.129 159.735C216.741 154.049 227.442 148.506 238.418 143.392C240.189 142.624 242.176 142.518 244.019 143.092C245.862 143.666 247.437 144.883 248.458 146.521C249.48 148.159 249.879 150.109 249.583 152.016C249.288 153.924 248.317 155.662 246.848 156.914Z" fill="white"/>
<path d="M206.184 394.119L215.177 392.036L210.967 371.065L201.975 373.148L206.184 394.119Z" fill="#EBB376"/>
<path d="M145.552 143.524C144.307 147.932 143.106 152.572 141.96 157.112C140.814 161.652 139.756 166.259 138.874 170.843C138.389 173.124 137.97 175.46 137.607 177.609C137.243 179.758 137.034 182.017 136.902 184.276C136.786 186.523 136.786 188.774 136.902 191.021C136.902 192.123 137.045 193.225 137.155 194.393C137.265 195.561 137.464 196.674 137.618 197.633L133.21 199.297C132.631 198.112 132.134 196.89 131.722 195.638C131.291 194.435 130.923 193.21 130.62 191.968C130.017 189.491 129.604 186.971 129.386 184.431C129.182 181.864 129.145 179.288 129.276 176.717C129.452 174.116 129.761 171.725 130.102 169.3C130.796 164.462 131.689 159.669 132.747 154.974C133.805 150.28 134.951 145.552 136.439 140.802L145.552 143.524Z" fill="#EBB376"/>
<path d="M132.582 145.045L141.85 152.429L147.415 156.837C147.415 156.837 147.999 155.283 148.704 153.057C150.048 148.759 151.801 141.949 150.588 138.819C148.682 133.86 145.078 129.386 140.516 130.378C136.648 131.248 132.582 145.045 132.582 145.045Z" fill="black"/>
<path d="M145.387 394.185H154.611L153.894 372.807H144.66L145.387 394.185Z" fill="#EBB376"/>
<path d="M210.967 371.076L213.226 382.306L204.146 383.959L201.964 373.159L210.967 371.076Z" fill="#DA9D62"/>
<path d="M144.66 372.807H153.894L154.258 383.827H145.023L144.66 372.807Z" fill="#DA9D62"/>
<path d="M174.744 186.381C174.744 186.381 169.388 249.735 163.834 285.44C159.349 314.279 155.801 381.7 155.801 381.7H143.26C143.26 381.7 137.265 316.593 139.546 288.03C145.31 215.86 135.138 203.077 147.205 186.348L174.744 186.381Z" fill="#A93339"/>
<path opacity="0.6" d="M174.744 186.381C174.744 186.381 169.388 249.735 163.834 285.44C159.349 314.279 155.801 381.7 155.801 381.7H143.26C143.26 381.7 137.265 316.593 139.546 288.03C145.31 215.86 135.138 203.077 147.205 186.348L174.744 186.381Z" fill="black"/>
<path d="M133.816 198.58L128.372 202.283L129.143 205.446C129.143 205.446 140.483 199.561 137.453 197.203L133.816 198.58Z" fill="#EBB376"/>
<path d="M158.501 394.725C157.679 394.705 156.862 394.594 156.065 394.395C156.025 394.382 155.988 394.36 155.959 394.329C155.93 394.298 155.91 394.26 155.9 394.218C155.893 394.176 155.899 394.133 155.917 394.093C155.934 394.054 155.963 394.021 155.999 393.998C156.319 393.789 159.107 391.981 160.187 392.466C160.309 392.52 160.415 392.605 160.492 392.714C160.57 392.823 160.617 392.95 160.628 393.083C160.671 393.291 160.66 393.507 160.596 393.709C160.532 393.912 160.418 394.095 160.264 394.24C159.753 394.608 159.128 394.78 158.501 394.725ZM156.682 394.075C158.291 394.406 159.503 394.34 159.988 393.921C160.09 393.82 160.164 393.696 160.204 393.559C160.245 393.423 160.25 393.278 160.22 393.138C160.216 393.08 160.196 393.024 160.163 392.975C160.13 392.927 160.085 392.888 160.032 392.863C159.448 392.61 157.828 393.425 156.682 394.075Z" fill="#A93339"/>
<path d="M156.12 394.395C156.085 394.407 156.046 394.407 156.01 394.395C155.978 394.375 155.951 394.347 155.932 394.315C155.912 394.282 155.902 394.245 155.9 394.207C155.9 394.086 155.9 391.43 156.914 390.538C157.036 390.423 157.183 390.337 157.343 390.287C157.504 390.238 157.673 390.225 157.839 390.251C158.013 390.253 158.181 390.314 158.316 390.424C158.45 390.534 158.542 390.687 158.578 390.857C158.787 391.959 157.101 393.899 156.231 394.395C156.195 394.405 156.156 394.405 156.12 394.395ZM157.685 390.659C157.507 390.663 157.335 390.73 157.2 390.846C156.622 391.704 156.326 392.721 156.352 393.756C157.222 393.05 158.28 391.552 158.148 390.923C158.148 390.824 158.071 390.692 157.784 390.659H157.685Z" fill="#A93339"/>
<path d="M215.992 390.648C215.951 390.646 215.911 390.632 215.877 390.609C215.843 390.587 215.815 390.555 215.797 390.518C215.779 390.481 215.771 390.44 215.775 390.399C215.778 390.358 215.792 390.318 215.816 390.284C216.113 389.932 218.681 386.912 219.992 386.912H220.08C220.2 386.921 220.315 386.961 220.414 387.028C220.513 387.096 220.592 387.189 220.642 387.298C220.731 387.468 220.778 387.657 220.778 387.849C220.778 388.041 220.731 388.23 220.642 388.4C220.069 389.612 217.48 390.295 215.981 390.604L215.992 390.648ZM219.981 387.342C219.265 387.342 217.678 388.841 216.587 390.064C218.604 389.59 219.97 388.962 220.29 388.246C220.355 388.133 220.389 388.006 220.389 387.876C220.389 387.747 220.355 387.62 220.29 387.507C220.271 387.463 220.24 387.424 220.202 387.395C220.163 387.366 220.117 387.348 220.069 387.342H219.981Z" fill="#A93339"/>
<path d="M215.992 390.648C215.955 390.642 215.92 390.626 215.893 390.6C215.865 390.574 215.846 390.541 215.838 390.505C215.838 390.406 215.044 388.025 215.75 386.692C215.847 386.497 215.983 386.323 216.15 386.183C216.316 386.043 216.51 385.938 216.719 385.876C217.303 385.7 217.59 385.876 217.711 386.13C218.273 387.033 217.028 389.7 216.201 390.538C216.18 390.573 216.149 390.602 216.112 390.622C216.075 390.641 216.034 390.65 215.992 390.648ZM217.094 386.24C217.01 386.227 216.925 386.227 216.841 386.24C216.687 386.284 216.543 386.36 216.42 386.462C216.297 386.565 216.196 386.692 216.124 386.835C215.804 387.839 215.804 388.917 216.124 389.921C216.907 388.819 217.667 386.846 217.337 386.306C217.3 386.262 217.25 386.231 217.194 386.219C217.138 386.207 217.079 386.214 217.028 386.24H217.094Z" fill="#A93339"/>
<path d="M156.925 108.084C158.027 113.594 160.231 124.614 156.429 128.306C156.429 128.306 157.928 133.816 168.11 133.816C179.295 133.816 173.455 128.306 173.455 128.306C167.35 126.851 167.504 122.322 168.573 118.057L156.925 108.084Z" fill="#EBB376"/>
<path d="M179.163 96.3368C179.073 96.3384 178.984 96.3114 178.91 96.2597C178.863 96.2258 178.823 96.1829 178.792 96.1335C178.762 96.084 178.741 96.0291 178.732 95.9717C178.723 95.9144 178.725 95.8558 178.738 95.7993C178.752 95.7428 178.776 95.6895 178.811 95.6426C179.208 95.0763 179.734 94.6116 180.345 94.2861C180.955 93.9607 181.634 93.7836 182.326 93.7692C182.43 93.7857 182.524 93.8386 182.592 93.9184C182.66 93.9982 182.697 94.0996 182.697 94.2045C182.697 94.3093 182.66 94.4108 182.592 94.4905C182.524 94.5703 182.43 94.6232 182.326 94.6397C181.776 94.6549 181.237 94.8007 180.754 95.0651C180.271 95.3295 179.858 95.705 179.549 96.1605C179.505 96.2207 179.447 96.2686 179.379 96.2995C179.312 96.3305 179.237 96.3433 179.163 96.3368Z" fill="black"/>
<path d="M181.61 101.593C182.204 103.32 183.034 104.955 184.078 106.453C183.686 106.707 183.244 106.873 182.781 106.94C182.319 107.007 181.848 106.972 181.4 106.839L181.61 101.593Z" fill="#DE5753"/>
<path d="M180.992 100.293C180.992 101.042 181.334 101.659 181.819 101.67C182.304 101.682 182.723 101.108 182.756 100.359C182.789 99.6098 182.414 99.0037 181.929 98.9816C181.444 98.9596 181.025 99.5547 180.992 100.293Z" fill="black"/>
<path d="M181.709 99.0147L183.516 98.5739C183.516 98.5739 182.546 99.9294 181.709 99.0147Z" fill="black"/>
<path d="M155.382 393.116H145.012C144.833 393.11 144.657 393.17 144.521 393.287C144.384 393.403 144.296 393.566 144.274 393.745L143.095 401.944C143.069 402.151 143.089 402.362 143.152 402.561C143.215 402.761 143.32 402.945 143.46 403.1C143.6 403.256 143.771 403.379 143.963 403.463C144.155 403.547 144.362 403.589 144.571 403.585C148.186 403.53 149.927 403.31 154.489 403.31C157.299 403.31 161.388 403.608 165.267 403.608C169.146 403.608 169.344 399.773 167.735 399.431C160.506 397.866 159.36 395.728 156.925 393.679C156.491 393.318 155.946 393.12 155.382 393.116Z" fill="black"/>
<path d="M215 389.667L205.424 393.645C205.258 393.71 205.121 393.833 205.04 393.991C204.959 394.15 204.939 394.333 204.983 394.505L207.033 402.539C207.091 402.739 207.191 402.925 207.326 403.084C207.461 403.243 207.629 403.371 207.817 403.461C208.006 403.55 208.211 403.599 208.419 403.603C208.628 403.608 208.835 403.568 209.027 403.486C212.333 402.043 213.876 401.183 218.086 399.431C220.675 398.329 226.152 396.4 229.734 394.913C233.315 393.425 232.026 389.81 230.406 390.108C223.133 391.452 219.673 390.56 216.642 389.601C216.104 389.429 215.523 389.453 215 389.667Z" fill="black"/>
<path d="M194.15 139.734C195.947 143.965 197.886 148.296 199.848 152.506C200.839 154.622 201.872 156.701 202.944 158.743C204.046 160.793 205.148 162.798 206.25 164.716C206.834 165.664 207.418 166.611 208.024 167.482L208.928 168.738C209.113 169 209.324 169.244 209.556 169.466C210.758 170.51 212.258 171.15 213.843 171.295C217.601 171.835 222.317 171.074 226.538 169.939L228.5 174.182C227.385 174.852 226.229 175.452 225.039 175.978C223.869 176.523 222.665 176.994 221.436 177.389C218.844 178.271 216.129 178.736 213.391 178.766C211.865 178.78 210.344 178.58 208.873 178.171C207.24 177.722 205.705 176.975 204.344 175.967C203.647 175.438 203.001 174.843 202.415 174.193C201.919 173.631 201.556 173.157 201.115 172.628C200.288 171.592 199.55 170.546 198.812 169.499C196.066 165.366 193.592 161.059 191.406 156.605C189.202 152.197 187.219 147.789 185.389 143.227L194.15 139.734Z" fill="#EBB376"/>
<path d="M225.59 174.7L235.663 173.113L232.985 167.405C232.985 167.405 225.183 168.76 223.684 172.287L225.59 174.7Z" fill="#EBB376"/>
<path d="M235.652 168.661L234.55 166.226L232.985 167.405L235.652 173.113V168.661Z" fill="#EBB376"/>
<path d="M156.087 96.7556C156.286 105.913 156.175 109.792 160.605 114.663C167.217 121.991 178.48 119.743 181.014 110.707C183.296 102.574 182.579 88.9644 173.785 84.9752C171.849 84.0874 169.718 83.7092 167.594 83.8767C165.471 84.0441 163.426 84.7516 161.652 85.9319C159.879 87.1121 158.437 88.7261 157.463 90.6204C156.489 92.5148 156.015 94.6267 156.087 96.7556Z" fill="#EBB376"/>
<path d="M148.704 80.2146C158.115 73.3932 168.628 77.2612 174.381 81.9778C180.397 86.9147 179.439 96.403 175.758 100.326C176.14 100.906 176.392 101.562 176.499 102.248C176.605 102.934 176.563 103.636 176.375 104.304C176.84 107.24 176.194 110.244 174.564 112.729C172.934 115.215 170.437 117.004 167.559 117.749L167.041 117.881C155.283 120.68 141.695 112.724 139.645 100.822C138.4 93.5598 140.384 86.2315 148.704 80.2146Z" fill="black"/>
<path d="M173.653 100.998C173.804 102.725 174.543 104.347 175.747 105.594C177.378 107.28 179.053 106.31 179.351 104.315C179.604 102.519 179.064 99.4775 177.081 98.5188C175.097 97.5601 173.51 98.9596 173.653 100.998Z" fill="#EBB376"/>
<path opacity="0.3" d="M161.994 216.003C160.947 234.935 165.509 249.228 167.592 257.592C169.069 245.228 170.424 232.324 171.559 220.94C167.669 208.047 162.754 201.754 161.994 216.003Z" fill="black"/>
<path d="M157.531 381.942H141.497L140.648 376.322L157.619 375.749L157.531 381.942Z" fill="#A93339"/>
<path opacity="0.3" d="M141.849 152.429L147.414 156.837C147.414 156.837 147.999 155.283 148.704 153.057L145.398 136.692L141.849 152.429Z" fill="black"/>
<path d="M153.949 81.7463C156.826 78.5616 166.6 73.7018 174.987 77.5147C177.379 78.6042 179.406 80.3606 180.825 82.5732C182.244 84.7858 182.995 87.3608 182.987 89.9893L175.427 95.0585L153.949 81.7463Z" fill="black"/>
<path d="M146.235 90.1105C150.39 86.7054 155.051 74.363 146.235 78.6608C137.419 82.9586 134.742 99.5326 146.235 90.1105Z" fill="#A93339"/>
<path d="M147.172 82.1982C148.968 76.9527 137.122 66.5167 129.132 76.4347C121.143 86.3527 142.004 97.2956 147.172 82.1982Z" fill="black"/>
<path d="M165.708 89.5155C158.82 86.5842 155.393 75.476 167.218 75.7956C179.042 76.1152 178.7 95.0585 165.708 89.5155Z" fill="#A93339"/>
<path d="M163.482 83.763C159.305 78.5506 163.923 65.1502 175.901 69.437C187.88 73.7238 173.069 95.6756 163.482 83.763Z" fill="black"/>
<path d="M184.651 186.381C184.651 186.381 195.054 257.46 198.713 285.429C202.514 314.467 213.623 379.573 213.623 379.573L201.28 381.457C201.28 381.457 181.775 319.36 176.342 291.093C170.413 260.292 158.71 186.403 158.71 186.403L184.651 186.381Z" fill="#A93339"/>
<path opacity="0.6" d="M184.651 186.381C184.651 186.381 195.054 257.46 198.713 285.429C202.514 314.467 213.623 379.573 213.623 379.573L201.28 381.457C201.28 381.457 181.775 319.36 176.342 291.093C170.413 260.292 158.71 186.403 158.71 186.403L184.651 186.381Z" fill="black"/>
<path d="M189.059 130.675C193.643 131.777 199.297 144.384 199.297 144.384L188.376 158.379C188.376 158.379 177.091 142.411 178.601 137.541C180.166 132.46 183.494 129.32 189.059 130.675Z" fill="black"/>
<path d="M174.116 130.102C175.626 130.322 174.226 126.873 173.598 126.51C172.154 125.65 153.762 123.92 153.972 125.859C154.083 127.017 154.58 128.103 155.382 128.945C156.209 129.496 160.892 127.975 174.116 130.102Z" fill="#A93339"/>
<path opacity="0.6" d="M174.116 130.102C175.626 130.322 174.226 126.873 173.598 126.51C172.154 125.65 153.762 123.92 153.972 125.859C154.083 127.017 154.58 128.103 155.382 128.945C156.209 129.496 160.892 127.975 174.116 130.102Z" fill="white"/>
<path d="M189.059 130.675C189.059 130.675 193.467 132.218 184.651 186.381H147.183C147.811 171.13 147.833 161.718 140.571 130.4C145.818 129.317 151.136 128.617 156.484 128.306C162.152 127.898 167.842 127.898 173.51 128.306C180.728 128.945 189.059 130.675 189.059 130.675Z" fill="black"/>
<path d="M146.566 184.188L144.88 187.494C144.748 187.759 145.056 188.023 145.486 188.023H184.806C185.136 188.023 185.423 187.858 185.445 187.638L185.775 184.332C185.775 184.1 185.511 183.902 185.136 183.902H147.205C147.083 183.885 146.958 183.903 146.845 183.953C146.732 184.004 146.635 184.085 146.566 184.188Z" fill="#A93339"/>
<path opacity="0.6" d="M146.566 184.188L144.88 187.494C144.748 187.759 145.056 188.023 145.486 188.023H184.806C185.136 188.023 185.423 187.858 185.445 187.638L185.775 184.332C185.775 184.1 185.511 183.902 185.136 183.902H147.205C147.083 183.885 146.958 183.903 146.845 183.953C146.732 184.004 146.635 184.085 146.566 184.188Z" fill="white"/>
<path d="M151.701 188.453H150.676C150.478 188.453 150.324 188.343 150.335 188.222L150.82 183.814C150.82 183.681 151.007 183.582 151.205 183.582H152.23C152.429 183.582 152.583 183.681 152.572 183.814L152.087 188.222C152.076 188.321 151.9 188.453 151.701 188.453Z" fill="#A93339"/>
<path d="M176.32 188.453H175.306C175.097 188.453 174.942 188.343 174.964 188.222L175.438 183.814C175.438 183.681 175.626 183.582 175.835 183.582H176.849C177.047 183.582 177.202 183.681 177.191 183.814L176.717 188.222C176.717 188.321 176.54 188.453 176.32 188.453Z" fill="#A93339"/>
<path opacity="0.6" d="M151.701 188.453H150.676C150.478 188.453 150.324 188.343 150.335 188.222L150.82 183.814C150.82 183.681 151.007 183.582 151.205 183.582H152.23C152.429 183.582 152.583 183.681 152.572 183.814L152.087 188.222C152.076 188.321 151.9 188.453 151.701 188.453Z" fill="black"/>
<path opacity="0.6" d="M176.32 188.453H175.306C175.097 188.453 174.942 188.343 174.964 188.222L175.438 183.814C175.438 183.681 175.626 183.582 175.835 183.582H176.849C177.047 183.582 177.202 183.681 177.191 183.814L176.717 188.222C176.717 188.321 176.54 188.453 176.32 188.453Z" fill="black"/>
<path d="M215.441 379.573L199.638 382.262L197.842 376.3L214.758 373.402L215.441 379.573Z" fill="#A93339"/>
<path d="M372.928 71.9275C364.522 58.4678 352.314 47.8028 337.848 41.2811C323.381 34.7593 307.305 32.6737 291.653 35.288C276.002 37.9023 261.476 45.099 249.914 55.9682C238.352 66.8373 230.273 80.8908 226.698 96.3516C223.123 111.812 224.213 127.986 229.829 142.828C235.446 157.669 245.337 170.512 258.253 179.732C271.168 188.952 286.527 194.135 302.389 194.626C318.25 195.118 333.9 190.895 347.361 182.491C356.3 176.911 364.053 169.624 370.176 161.047C376.298 152.471 380.672 142.772 383.046 132.505C385.42 122.238 385.748 111.604 384.012 101.21C382.276 90.8159 378.51 80.8657 372.928 71.9275ZM251.168 147.966C244.537 137.344 241.205 124.995 241.593 112.479C241.981 99.964 246.072 87.8448 253.347 77.6542C260.623 67.4636 270.757 59.6593 282.468 55.228C294.179 50.7968 306.941 49.9378 319.14 52.7595C331.339 55.5812 342.428 61.957 351.003 71.0806C359.579 80.2042 365.257 91.6658 367.319 104.016C369.38 116.367 367.734 129.051 362.587 140.465C357.439 151.88 349.023 161.512 338.402 168.143C331.349 172.546 323.497 175.516 315.296 176.885C307.095 178.253 298.704 177.992 290.603 176.117C282.503 174.243 274.851 170.791 268.084 165.958C261.318 161.126 255.57 155.008 251.168 147.955V147.966Z" fill="#A93339"/>
<path d="M372.928 71.9275C364.522 58.4678 352.314 47.8028 337.848 41.2811C323.381 34.7593 307.305 32.6737 291.653 35.288C276.002 37.9023 261.476 45.099 249.914 55.9682C238.352 66.8373 230.273 80.8908 226.698 96.3516C223.123 111.812 224.213 127.986 229.829 142.828C235.446 157.669 245.337 170.512 258.253 179.732C271.168 188.952 286.527 194.135 302.389 194.626C318.25 195.118 333.9 190.895 347.361 182.491C356.3 176.911 364.053 169.624 370.176 161.047C376.298 152.471 380.672 142.772 383.046 132.505C385.42 122.238 385.748 111.604 384.012 101.21C382.276 90.8159 378.51 80.8657 372.928 71.9275ZM251.168 147.966C244.537 137.344 241.205 124.995 241.593 112.479C241.981 99.964 246.072 87.8448 253.347 77.6542C260.623 67.4636 270.757 59.6593 282.468 55.228C294.179 50.7968 306.941 49.9378 319.14 52.7595C331.339 55.5812 342.428 61.957 351.003 71.0806C359.579 80.2042 365.257 91.6658 367.319 104.016C369.38 116.367 367.734 129.051 362.587 140.465C357.439 151.88 349.023 161.512 338.402 168.143C331.349 172.546 323.497 175.516 315.296 176.885C307.095 178.253 298.704 177.992 290.603 176.117C282.503 174.243 274.851 170.791 268.084 165.958C261.318 161.126 255.57 155.008 251.168 147.955V147.966Z" fill="#A93339"/>
<path opacity="0.5" d="M372.928 71.9275C364.522 58.4678 352.314 47.8028 337.848 41.2811C323.381 34.7593 307.305 32.6737 291.653 35.288C276.002 37.9023 261.476 45.099 249.914 55.9682C238.352 66.8373 230.273 80.8908 226.698 96.3516C223.123 111.812 224.213 127.986 229.829 142.828C235.446 157.669 245.337 170.512 258.253 179.732C271.168 188.952 286.527 194.135 302.389 194.626C318.25 195.118 333.9 190.895 347.361 182.491C356.3 176.911 364.053 169.624 370.176 161.047C376.298 152.471 380.672 142.772 383.046 132.505C385.42 122.238 385.748 111.604 384.012 101.21C382.276 90.8159 378.51 80.8657 372.928 71.9275ZM251.168 147.966C244.537 137.344 241.205 124.995 241.593 112.479C241.981 99.964 246.072 87.8448 253.347 77.6542C260.623 67.4636 270.757 59.6593 282.468 55.228C294.179 50.7968 306.941 49.9378 319.14 52.7595C331.339 55.5812 342.428 61.957 351.003 71.0806C359.579 80.2042 365.257 91.6658 367.319 104.016C369.38 116.367 367.734 129.051 362.587 140.465C357.439 151.88 349.023 161.512 338.402 168.143C331.349 172.546 323.497 175.516 315.296 176.885C307.095 178.253 298.704 177.992 290.603 176.117C282.503 174.243 274.851 170.791 268.084 165.958C261.318 161.126 255.57 155.008 251.168 147.955V147.966Z" fill="white"/>
<path opacity="0.2" d="M363.88 77.5808C371.165 89.2527 374.825 102.822 374.397 116.574C373.97 130.326 369.475 143.642 361.48 154.839C353.485 166.036 342.35 174.612 329.482 179.481C316.614 184.35 302.591 185.294 289.186 182.194C275.782 179.094 263.597 172.089 254.174 162.065C244.75 152.04 238.51 139.447 236.243 125.876C233.976 112.306 235.784 98.3683 241.438 85.8252C247.091 73.2822 256.337 62.6972 268.006 55.4085C275.757 50.5675 284.385 47.3008 293.399 45.7951C302.412 44.2894 311.634 44.5742 320.537 46.6332C329.44 48.6922 337.85 52.485 345.287 57.7951C352.724 63.1052 359.042 69.8284 363.88 77.5808Z" fill="#FAFAFA"/>
<path opacity="0.1" d="M373.765 104.58L265.769 172C256.963 166.024 249.645 158.107 244.38 148.858L362.294 75.2335C368.311 84.0101 372.235 94.0494 373.765 104.58Z" fill="#E6E6E6"/>
</svg>
