<svg width="551" height="459" viewBox="0 0 551 459" fill="none" xmlns="http://www.w3.org/2000/svg">
<path d="M275.506 451.275V459L0 305.946V298.221L275.506 451.275Z" fill="#E0E0E0"/>
<path d="M551 305.935L275.506 459V451.275L551 298.221V305.935Z" fill="#EBEBEB"/>
<path d="M502.275 271.143L275.506 397.129L48.7362 271.143L0 298.221L275.506 451.275L551 298.221L502.275 271.143Z" fill="#F5F5F5"/>
<path d="M287.311 390.371L336.048 417.438L332.64 419.328L283.696 392.372L287.311 390.371Z" fill="#E0E0E0"/>
<path d="M502.264 271.143L419.843 316.951L416.216 318.952L415.858 319.152L376.282 341.139V341.15H376.27L372.655 343.151H372.643L331.889 365.816L328.262 367.817L287.508 390.471L283.881 392.483L275.506 397.141L271.879 395.129L48.7363 271.143L93.1754 246.455L237.42 166.31L275.506 145.156L502.264 271.143Z" fill="#A02724"/>
<path opacity="0.3" d="M502.264 271.143L419.843 316.951L416.216 318.952L415.858 319.152L376.282 341.139V341.15H376.27L372.655 343.151H372.643L331.889 365.816L328.262 367.817L287.508 390.471L283.881 392.483L275.506 397.141L271.879 395.129L48.7363 271.143L93.1754 246.455L237.42 166.31L275.506 145.156L502.264 271.143Z" fill="white"/>
<path d="M420.224 321.186L380.521 343.507L376.097 341.039L372.643 339.127L340.634 321.342L337.203 319.441L312.194 305.546L352.139 283.348L377.148 297.243L380.752 299.244L412.6 316.951L416.216 318.952L420.224 321.186Z" fill="#F5F5F5"/>
<path d="M502.275 271.143L551 298.221L502.275 271.143Z" fill="#F5F5F5"/>
<path d="M331.797 365.761L380.522 392.828L377.114 394.717L328.17 367.773L331.797 365.761Z" fill="#E0E0E0"/>
<path d="M271.89 395.129L223.154 422.196L226.562 424.085L275.506 397.14L271.89 395.129Z" fill="#E0E0E0"/>
<path d="M226.978 370.229L178.253 397.296L181.661 399.197L230.605 372.241L226.978 370.229Z" fill="#E0E0E0"/>
<path d="M182.076 345.33L133.352 372.397L136.76 374.298L185.704 347.342L182.076 345.33Z" fill="#E0E0E0"/>
<path d="M137.175 320.43L88.4504 347.497L91.8582 349.398L140.802 322.442L137.175 320.43Z" fill="#E0E0E0"/>
<path d="M92.2742 295.531L43.5496 322.598L46.9573 324.499L95.8899 297.543L92.2742 295.531Z" fill="#E0E0E0"/>
<path d="M419.843 316.94L468.568 344.018L465.16 345.908L416.216 318.952L419.843 316.94Z" fill="#E0E0E0"/>
<path d="M464.317 292.33L513.041 319.408L509.645 321.297L460.701 294.342L464.317 292.33Z" fill="#E0E0E0"/>
<path d="M376.27 341.15L425.007 368.217L421.599 370.118L372.655 343.162L376.27 341.15Z" fill="#E0E0E0"/>
<path d="M416.216 318.952L376.097 341.039L372.643 339.127L412.6 316.951L416.216 318.952Z" fill="#E0E0E0"/>
<path d="M380.752 299.244L340.634 321.342L337.203 319.441L377.148 297.243L380.752 299.244Z" fill="#E0E0E0"/>
<g opacity="0.1">
<path d="M400.124 256.703L396.463 258.593L356.506 280.78L255.741 336.771L93.1753 246.455L237.42 166.31L400.124 256.703Z" fill="black"/>
</g>
<path opacity="0.1" d="M316.156 422.918C330.53 422.918 342.182 416.443 342.182 408.456C342.182 400.469 330.53 393.995 316.156 393.995C301.782 393.995 290.13 400.469 290.13 408.456C290.13 416.443 301.782 422.918 316.156 422.918Z" fill="black"/>
<path opacity="0.1" d="M239.003 425.308C253.376 425.308 265.029 418.833 265.029 410.846C265.029 402.859 253.376 396.385 239.003 396.385C224.629 396.385 212.977 402.859 212.977 410.846C212.977 418.833 224.629 425.308 239.003 425.308Z" fill="black"/>
<g opacity="0.1">
<path d="M461.29 261.906C464.756 263.851 464.756 266.985 461.29 268.92C459.333 269.873 457.171 270.37 454.977 270.37C452.784 270.37 450.621 269.873 448.664 268.92C445.199 266.985 445.199 263.851 448.664 261.906C450.621 260.952 452.784 260.456 454.977 260.456C457.171 260.456 459.333 260.952 461.29 261.906Z" fill="black"/>
</g>
<g opacity="0.1">
<path d="M424.545 305.78C428.01 307.725 428.01 310.86 424.545 312.794C422.59 313.748 420.429 314.245 418.237 314.245C416.046 314.245 413.885 313.748 411.93 312.794C408.465 310.86 408.465 307.725 411.93 305.78C413.885 304.826 416.046 304.328 418.237 304.328C420.429 304.328 422.59 304.826 424.545 305.78Z" fill="black"/>
</g>
<g opacity="0.1">
<path d="M105.085 276.634C108.55 278.568 108.55 281.714 105.085 283.648C103.128 284.601 100.965 285.098 98.7719 285.098C96.5785 285.098 94.4159 284.601 92.459 283.648C88.9935 281.714 88.9935 278.568 92.459 276.634C94.4159 275.681 96.5785 275.184 98.7719 275.184C100.965 275.184 103.128 275.681 105.085 276.634Z" fill="black"/>
</g>
<path d="M111.877 162.486V248.789L255.845 328.767V211.584L139.636 146.613L111.877 162.486Z" fill="#EBEBEB"/>
<path d="M391.726 136.097V253.269L343.753 279.913L303.807 302.112L255.845 328.767V211.596L326.899 121.446L391.726 136.097Z" fill="#FAFAFA"/>
<path d="M343.753 196.645V279.913L303.807 302.145V218.843C303.957 211.977 305.673 205.226 308.832 199.068C309.109 198.512 309.387 197.956 309.687 197.434C313.279 190.764 318.281 185.207 323.78 182.139C326.165 180.712 328.898 179.915 331.704 179.827C338.797 179.793 343.753 186.107 343.753 196.645Z" fill="#A02724"/>
<path opacity="0.3" d="M343.753 196.645V279.913L303.807 302.145V218.843C303.957 211.977 305.673 205.226 308.832 199.068C309.109 198.512 309.387 197.956 309.687 197.434C313.279 190.764 318.281 185.207 323.78 182.139C326.165 180.712 328.898 179.915 331.704 179.827C338.797 179.793 343.753 186.107 343.753 196.645Z" fill="black"/>
<path d="M340.241 194.01L329.359 200.046L326.171 201.825L324.727 202.625L322.844 203.737L321.146 204.67L319.31 205.693L307.007 212.474C307.643 208.284 308.912 204.206 310.773 200.369C310.79 200.327 310.809 200.286 310.831 200.246C311.073 199.724 311.339 199.213 311.605 198.723C311.618 198.678 311.642 198.637 311.674 198.601C312.09 197.812 312.529 197.056 312.991 196.311C315.238 192.546 318.2 189.22 321.724 186.507C322.093 186.251 322.463 185.996 322.879 185.762C323.295 185.529 323.387 185.429 323.653 185.273L324.138 184.995C324.358 184.873 324.566 184.762 324.762 184.673C328.701 182.639 332.317 182.517 335.158 183.939C335.528 184.115 335.88 184.323 336.21 184.562L336.729 184.929L336.868 185.051C337.118 185.329 337.35 185.623 337.561 185.929C339.137 188.367 340.058 191.144 340.241 194.01Z" fill="#FAFAFA"/>
<path d="M341.454 195.189L327.8 202.792L322.879 205.526L322.74 205.604L320.915 206.616L306.811 214.452C306.868 213.796 306.949 213.13 307.042 212.474L319.344 205.637L321.181 204.615L322.879 203.681L324.762 202.569L326.206 201.769L329.394 199.991L340.276 193.955C340.091 191.093 339.17 188.32 337.596 185.885C337.384 185.578 337.153 185.285 336.903 185.007V184.929C337.204 185.171 337.49 185.43 337.757 185.707C339.71 187.852 341.061 191.054 341.454 195.189Z" fill="#A02724"/>
<path opacity="0.6" d="M341.454 195.189L327.8 202.792L322.879 205.526L322.74 205.604L320.915 206.616L306.811 214.452C306.868 213.796 306.949 213.13 307.042 212.474L319.344 205.637L321.181 204.615L322.879 203.681L324.762 202.569L326.206 201.769L329.394 199.991L340.276 193.955C340.091 191.093 339.17 188.32 337.596 185.885C337.384 185.578 337.153 185.285 336.903 185.007V184.929C337.204 185.171 337.49 185.43 337.757 185.707C339.71 187.852 341.061 191.054 341.454 195.189Z" fill="black"/>
<path d="M321.597 205.059L319.887 206.004L319.772 206.071L319.183 205.704L318.201 205.093L310.773 200.369C310.79 200.327 310.809 200.286 310.831 200.246C311.073 199.724 311.339 199.212 311.605 198.723L320.037 204.07L321.019 204.681L321.597 205.059Z" fill="#A02724"/>
<path opacity="0.6" d="M321.597 205.059L319.887 206.004L319.772 206.071L319.183 205.704L318.201 205.093L310.773 200.369C310.79 200.327 310.809 200.286 310.831 200.246C311.073 199.724 311.339 199.212 311.605 198.723L320.037 204.07L321.019 204.681L321.597 205.059Z" fill="black"/>
<path d="M336.718 184.929L336.556 185.218L336.452 185.396L328.25 199.502L327.257 201.225L326.656 202.247L325.57 202.847L324.727 203.325L322.844 204.37L321.689 204.982V186.507C322.059 186.252 322.428 185.996 322.844 185.762C323.26 185.529 323.352 185.429 323.618 185.273V203.759L324.057 202.992L324.727 201.88L325.062 201.313L335.147 183.973C335.516 184.148 335.868 184.357 336.198 184.595L336.718 184.929Z" fill="#A02724"/>
<path opacity="0.6" d="M336.718 184.929L336.556 185.218L336.452 185.396L328.25 199.502L327.257 201.225L326.656 202.247L325.57 202.847L324.727 203.325L322.844 204.37L321.689 204.982V186.507C322.059 186.252 322.428 185.996 322.844 185.762C323.26 185.529 323.352 185.429 323.618 185.273V203.759L324.057 202.992L324.727 201.88L325.062 201.313L335.147 183.973C335.516 184.148 335.868 184.357 336.198 184.595L336.718 184.929Z" fill="black"/>
<path d="M322.706 205.604L320.88 206.616L319.887 206.004L319.309 205.637L310.831 200.246C311.073 199.724 311.339 199.213 311.605 198.723L311.085 198.39L311.154 198.268L311.674 198.601L321.146 204.615L321.724 204.982L322.706 205.604Z" fill="#A02724"/>
<path d="M337.376 185.496C337.203 185.34 337.029 185.184 336.856 185.051C336.861 185.025 336.861 184.999 336.856 184.973L337.376 185.496Z" fill="#D68D91"/>
<path d="M337.653 185.729L337.549 185.907L329.359 200.024L327.8 202.792L322.879 205.526V185.729C323.133 185.551 323.387 185.396 323.653 185.24L324.138 184.962C324.358 184.84 324.565 184.729 324.762 184.64V204.27L325.605 202.814L326.206 201.791L336.198 184.617L336.718 184.984L336.856 185.107V185.029C337.136 185.247 337.402 185.481 337.653 185.729Z" fill="#A02724"/>
<path opacity="0.3" d="M337.653 185.729L337.549 185.907L329.359 200.024L327.8 202.792L322.879 205.526V185.729C323.133 185.551 323.387 185.396 323.653 185.24L324.138 184.962C324.358 184.84 324.565 184.729 324.762 184.64V204.27L325.605 202.814L326.206 201.791L336.198 184.617L336.718 184.984L336.856 185.107V185.029C337.136 185.247 337.402 185.481 337.653 185.729Z" fill="black"/>
<path opacity="0.3" d="M322.706 205.604L320.88 206.616L319.887 206.004L319.309 205.637L310.831 200.246C311.073 199.724 311.339 199.213 311.605 198.723L311.085 198.39L311.154 198.268L311.674 198.601L321.146 204.615L321.724 204.982L322.706 205.604Z" fill="black"/>
<path d="M309.317 251.779C309.268 251.789 309.217 251.789 309.167 251.779C309.122 251.752 309.085 251.714 309.059 251.669C309.032 251.625 309.018 251.575 309.017 251.523V222.411C309.018 222.36 309.032 222.31 309.059 222.265C309.085 222.221 309.122 222.183 309.167 222.156L321.758 215.164C321.803 215.136 321.855 215.121 321.908 215.121C321.962 215.121 322.014 215.136 322.059 215.164C322.106 215.189 322.147 215.226 322.175 215.271C322.203 215.316 322.219 215.367 322.22 215.419V244.465C322.217 244.517 322.2 244.567 322.172 244.612C322.144 244.656 322.105 244.694 322.059 244.721L309.479 251.712C309.43 251.745 309.375 251.768 309.317 251.779ZM309.629 222.6V250.968L321.597 244.298V215.953L309.629 222.6Z" fill="#A02724"/>
<path d="M325.651 242.72C325.602 242.734 325.55 242.734 325.501 242.72C325.454 242.695 325.415 242.658 325.388 242.613C325.361 242.567 325.349 242.516 325.351 242.464V213.385C325.35 213.332 325.364 213.28 325.39 213.233C325.416 213.186 325.454 213.147 325.501 213.118L338.092 206.127C338.139 206.105 338.19 206.094 338.242 206.094C338.294 206.094 338.346 206.105 338.393 206.127C338.44 206.152 338.481 206.189 338.509 206.234C338.537 206.278 338.553 206.33 338.554 206.382V235.428C338.557 235.481 338.543 235.534 338.514 235.58C338.485 235.625 338.443 235.661 338.393 235.683L325.813 242.675C325.765 242.707 325.709 242.722 325.651 242.72ZM325.963 213.552V241.908L337.931 235.239V206.905L325.963 213.552Z" fill="#A02724"/>
<path d="M309.317 286.883C309.268 286.893 309.217 286.893 309.167 286.883C309.122 286.855 309.085 286.818 309.059 286.773C309.032 286.729 309.018 286.678 309.017 286.627V257.593C309.015 257.541 309.027 257.489 309.054 257.444C309.081 257.399 309.12 257.362 309.167 257.337L321.758 250.345C321.803 250.318 321.855 250.303 321.908 250.303C321.962 250.303 322.014 250.318 322.059 250.345C322.107 250.37 322.148 250.406 322.177 250.451C322.205 250.496 322.22 250.548 322.22 250.601V279.635C322.219 279.689 322.203 279.742 322.175 279.789C322.147 279.835 322.107 279.874 322.059 279.902L309.467 286.883C309.418 286.892 309.367 286.892 309.317 286.883ZM309.629 257.715V286.071L321.597 279.402V251.112L309.629 257.715Z" fill="#A02724"/>
<path d="M325.651 277.879C325.602 277.894 325.55 277.894 325.501 277.879C325.455 277.853 325.416 277.816 325.39 277.771C325.363 277.726 325.35 277.675 325.351 277.623V248.533C325.352 248.482 325.366 248.432 325.393 248.387C325.419 248.343 325.456 248.305 325.501 248.278L338.092 241.286C338.137 241.258 338.189 241.243 338.242 241.243C338.296 241.243 338.348 241.258 338.393 241.286C338.441 241.311 338.481 241.348 338.509 241.393C338.537 241.438 338.553 241.489 338.554 241.542V270.587C338.553 270.64 338.537 270.691 338.509 270.736C338.481 270.781 338.441 270.818 338.393 270.843L325.813 277.835C325.765 277.866 325.709 277.882 325.651 277.879ZM325.963 248.711V277.068L337.931 270.398V242.053L325.963 248.711Z" fill="#A02724"/>
<path d="M337.307 243.976C337.033 243.979 336.766 243.894 336.548 243.735C336.33 243.575 336.172 243.351 336.101 243.097C336.03 242.842 336.048 242.572 336.154 242.329C336.259 242.086 336.445 241.883 336.683 241.753L340.703 239.53L339.664 238.952C339.524 238.874 339.402 238.771 339.303 238.648C339.205 238.525 339.133 238.385 339.091 238.235C339.05 238.086 339.039 237.93 339.06 237.776C339.081 237.622 339.133 237.474 339.213 237.34C339.293 237.205 339.401 237.088 339.528 236.993C339.656 236.899 339.802 236.829 339.957 236.789C340.113 236.749 340.275 236.739 340.435 236.759C340.594 236.779 340.748 236.829 340.888 236.906L343.787 238.507C343.974 238.612 344.13 238.762 344.238 238.942C344.345 239.122 344.402 239.327 344.402 239.535C344.402 239.743 344.345 239.948 344.238 240.128C344.13 240.309 343.974 240.459 343.787 240.563L337.919 243.82C337.734 243.926 337.522 243.98 337.307 243.976Z" fill="#A02724"/>
<path d="M391.715 244.665L383.895 249.045V240.43L391.715 236.05V244.665Z" fill="#E0E0E0"/>
<path d="M391.715 227.436L383.895 231.815V223.2L391.715 218.821V227.436Z" fill="#E0E0E0"/>
<path d="M391.715 210.217L383.895 214.597V205.982L391.715 201.602V210.217Z" fill="#E0E0E0"/>
<path d="M391.715 192.988L383.895 197.367V188.753L391.715 184.373V192.988Z" fill="#E0E0E0"/>
<path d="M391.715 175.769L383.895 180.149V171.534L391.715 167.155V175.769Z" fill="#E0E0E0"/>
<path d="M391.715 158.54L383.895 162.919V154.305L391.715 149.925V158.54Z" fill="#E0E0E0"/>
<path d="M391.715 141.321L383.895 145.701V137.086L391.715 132.707V141.321Z" fill="#E0E0E0"/>
<path d="M263.665 315.773L255.845 320.153V311.538L263.665 307.158V315.773Z" fill="#E0E0E0"/>
<path d="M263.665 298.554L255.845 302.923V294.319L263.665 289.94V298.554Z" fill="#E0E0E0"/>
<path d="M263.665 281.325L255.845 285.705V277.09L263.665 272.71V281.325Z" fill="#E0E0E0"/>
<path d="M263.665 264.095L255.845 268.475V259.871L263.665 255.492V264.095Z" fill="#E0E0E0"/>
<path d="M263.665 246.877L255.845 251.257V242.642L263.665 238.262V246.877Z" fill="#E0E0E0"/>
<path d="M263.665 229.659L255.845 234.027V225.424L263.665 221.044V229.659Z" fill="#E0E0E0"/>
<path d="M263.665 212.429L255.845 216.809V208.194L263.665 203.814V212.429Z" fill="#E0E0E0"/>
<path d="M248.013 307.158L255.845 311.538V302.923L248.013 298.555V307.158Z" fill="#E0E0E0"/>
<path d="M248.013 324.388L255.845 328.767V320.152L248.013 315.773V324.388Z" fill="#E0E0E0"/>
<path d="M248.013 289.94L255.845 294.319V285.705L248.013 281.325V289.94Z" fill="#E0E0E0"/>
<path d="M248.013 272.71L255.845 277.09V268.475L248.013 264.095V272.71Z" fill="#E0E0E0"/>
<path d="M248.013 255.492L255.845 259.871V251.257L248.013 246.877V255.492Z" fill="#E0E0E0"/>
<path d="M248.013 238.262L255.845 242.642V234.027L248.013 229.659V238.262Z" fill="#E0E0E0"/>
<path d="M248.013 221.044L255.845 225.424V216.809L248.013 212.429V221.044Z" fill="#E0E0E0"/>
<path d="M248.013 203.814L255.845 208.194V199.59L248.013 195.211V203.814Z" fill="#E0E0E0"/>
<path d="M111.877 231.56L119.709 235.939V227.324L111.877 222.945V231.56Z" fill="#E0E0E0"/>
<path d="M111.877 248.789L119.709 253.158V244.554L111.877 240.174V248.789Z" fill="#E0E0E0"/>
<path d="M111.877 214.341L119.709 218.71V210.106L111.877 205.726V214.341Z" fill="#E0E0E0"/>
<path d="M111.877 197.112L119.709 201.491V192.877L111.877 188.497V197.112Z" fill="#E0E0E0"/>
<path d="M111.877 179.893L119.709 184.273V175.658L111.877 171.279V179.893Z" fill="#E0E0E0"/>
<path d="M170.455 217.587V256.348L143.656 241.453V202.681L170.455 217.587Z" fill="#FAFAFA"/>
<path d="M145.1 222.722L170.455 236.806V217.587L145.1 203.492V222.722Z" fill="#A02724"/>
<path opacity="0.6" d="M145.1 222.722L170.455 236.806V217.587L145.1 203.492V222.722Z" fill="white"/>
<path d="M145.735 240.274V223.879L170.455 237.607V235.617L145.735 221.878V203.837L143.644 202.681V241.453L170.455 256.348V254.013L145.735 240.274Z" fill="#A02724"/>
<path opacity="0.2" d="M145.735 240.274V223.879L170.455 237.607V235.617L145.735 221.878V203.837L143.644 202.681V241.453L170.455 256.348V254.013L145.735 240.274Z" fill="black"/>
<path d="M224.067 247.377V286.138L197.267 271.254V232.482L224.067 247.377Z" fill="#FAFAFA"/>
<path d="M198.711 252.513L224.066 266.597V247.377L198.711 233.282V252.513Z" fill="#A02724"/>
<path opacity="0.6" d="M198.711 252.513L224.066 266.597V247.377L198.711 233.282V252.513Z" fill="white"/>
<path d="M199.346 270.076V253.669L224.067 267.408V265.418L199.346 251.679V233.638L197.267 232.482V271.243L224.078 286.138V283.815L199.346 270.076Z" fill="#A02724"/>
<path opacity="0.2" d="M199.346 270.076V253.669L224.067 267.408V265.418L199.346 251.679V233.638L197.267 232.482V271.243L224.078 286.138V283.815L199.346 270.076Z" fill="black"/>
<path d="M350.591 202.681V241.442L377.391 226.546V187.774L350.591 202.681Z" fill="#FAFAFA"/>
<path d="M375.935 207.816L350.591 221.9V202.681L375.935 188.586V207.816Z" fill="#A02724"/>
<path opacity="0.8" d="M375.935 207.816L350.591 221.9V202.681L375.935 188.586V207.816Z" fill="white"/>
<path d="M375.312 225.379V188.941L377.391 187.785V226.546L350.58 241.441V239.118L375.312 225.379Z" fill="#A02724"/>
<path d="M350.591 220.71V222.711L376.894 208.094V206.093L350.591 220.71Z" fill="#A02724"/>
<path d="M270.169 247.377V286.138L296.969 271.254V232.482L270.169 247.377Z" fill="#FAFAFA"/>
<path d="M295.525 252.513L270.169 266.597V247.377L295.525 233.282V252.513Z" fill="#A02724"/>
<path opacity="0.8" d="M295.525 252.513L270.169 266.597V247.377L295.525 233.282V252.513Z" fill="white"/>
<path d="M294.889 270.076V233.638L296.98 232.482V271.243L270.169 286.138V283.815L294.889 270.076Z" fill="#A02724"/>
<path d="M270.169 265.418V267.408L296.484 252.791V250.801L270.169 265.418Z" fill="#A02724"/>
<path d="M229.426 241.441L242.249 232.793L325.651 129.839L400.898 146.135L409.839 141.199L324.912 122.113L229.426 241.441Z" fill="#D68D91"/>
<path d="M324.912 122.113L189.389 48.8045L94.573 166.532L229.426 241.441L324.912 122.113Z" fill="#A02724"/>
<path d="M324.912 122.113L409.84 141.199L274.027 67.8903L189.389 48.8045L324.912 122.113Z" fill="#A02724"/>
<path d="M130.348 287.894L125.531 290.584C126.98 285.722 127.35 280.62 126.617 275.611C126.295 273.84 125.629 272.143 124.653 270.609C124.284 269.853 121.373 265.163 123.937 263.006C126.502 260.85 132.485 265.14 132.22 276.712C132.089 280.5 131.46 284.258 130.348 287.894Z" fill="#A02724"/>
<path opacity="0.5" d="M130.348 287.894L125.531 290.584C126.98 285.722 127.35 280.62 126.617 275.611C126.295 273.84 125.629 272.143 124.653 270.609C124.284 269.853 121.373 265.163 123.937 263.006C126.502 260.85 132.485 265.14 132.22 276.712C132.089 280.5 131.46 284.258 130.348 287.894Z" fill="black"/>
<path d="M128.119 289.373H128.026C127.969 289.348 127.922 289.304 127.897 289.248C127.871 289.193 127.868 289.13 127.888 289.073C129.174 285.005 129.752 280.761 129.597 276.512C129.505 268.842 125.346 264.773 125.312 264.74C125.268 264.695 125.243 264.635 125.243 264.573C125.243 264.512 125.268 264.452 125.312 264.407C125.357 264.365 125.417 264.342 125.479 264.342C125.542 264.342 125.602 264.365 125.647 264.407C125.647 264.407 129.99 268.642 130.082 276.501C130.228 280.81 129.639 285.113 128.338 289.239C128.318 289.279 128.287 289.313 128.249 289.337C128.21 289.36 128.165 289.373 128.119 289.373Z" fill="white"/>
<path d="M126.617 289.995L118.716 294.508C118.716 294.508 115.066 293.986 115.343 290.684C115.62 287.383 117.099 286.605 115.262 285.127C113.425 283.648 112.952 283.57 113.032 282.159C113.184 281.13 113.738 280.196 114.58 279.546C115.096 279.139 115.459 278.581 115.613 277.957C115.768 277.332 115.705 276.676 115.435 276.089C114.511 274.378 113.275 272.755 115.112 271.932C116.267 271.465 118.069 272.054 119.293 273.299C120.197 274.404 121.394 275.253 122.759 275.756C123.914 276.045 126.351 276.067 126.224 277.979C126.097 279.891 125.624 280.58 126.109 281.436C126.952 283.092 130.868 283.959 126.617 289.995Z" fill="#A02724"/>
<path opacity="0.2" d="M126.617 289.995L118.716 294.508C118.716 294.508 115.066 293.986 115.343 290.684C115.62 287.383 117.099 286.605 115.262 285.127C113.425 283.648 112.952 283.57 113.032 282.159C113.184 281.13 113.738 280.196 114.58 279.546C115.096 279.139 115.459 278.581 115.613 277.957C115.768 277.332 115.705 276.676 115.435 276.089C114.511 274.378 113.275 272.755 115.112 271.932C116.267 271.465 118.069 272.054 119.293 273.299C120.197 274.404 121.394 275.253 122.759 275.756C123.914 276.045 126.351 276.067 126.224 277.979C126.097 279.891 125.624 280.58 126.109 281.436C126.952 283.092 130.868 283.959 126.617 289.995Z" fill="black"/>
<path d="M123.336 292.063C123.305 292.061 123.274 292.054 123.246 292.041C123.218 292.028 123.193 292.009 123.172 291.986C123.151 291.963 123.136 291.936 123.127 291.908C123.117 291.879 123.114 291.848 123.117 291.818C123.117 291.707 123.972 280.491 115.886 273.133C115.843 273.089 115.819 273.031 115.819 272.971C115.819 272.911 115.843 272.854 115.886 272.81C115.933 272.768 115.995 272.745 116.059 272.745C116.123 272.745 116.185 272.768 116.232 272.81C124.48 280.313 123.614 291.707 123.602 291.863C123.594 291.923 123.561 291.977 123.511 292.014C123.462 292.052 123.399 292.069 123.336 292.063Z" fill="white"/>
<path d="M121.95 282.281C121.919 282.278 121.887 282.269 121.859 282.255C121.831 282.24 121.806 282.221 121.785 282.197C121.765 282.173 121.75 282.146 121.74 282.116C121.731 282.087 121.728 282.056 121.731 282.025C121.79 281.082 122.053 280.161 122.502 279.321C122.952 278.481 123.578 277.74 124.342 277.145C124.395 277.113 124.458 277.101 124.52 277.111C124.582 277.122 124.638 277.154 124.677 277.201C124.72 277.244 124.744 277.302 124.744 277.362C124.744 277.422 124.72 277.48 124.677 277.523C123.981 278.086 123.409 278.777 122.997 279.556C122.584 280.335 122.338 281.186 122.274 282.059C122.272 282.095 122.261 282.131 122.243 282.163C122.225 282.196 122.199 282.223 122.168 282.245C122.137 282.266 122.101 282.28 122.063 282.287C122.026 282.293 121.987 282.291 121.95 282.281Z" fill="white"/>
<path d="M122.539 284.226C122.504 284.227 122.47 284.221 122.438 284.208C122.406 284.194 122.377 284.174 122.354 284.148C122.354 284.148 120.344 282.07 115.805 282.67C115.742 282.68 115.678 282.665 115.626 282.63C115.574 282.595 115.539 282.541 115.527 282.481C115.523 282.45 115.524 282.419 115.532 282.389C115.54 282.359 115.554 282.33 115.573 282.306C115.593 282.281 115.617 282.26 115.645 282.244C115.673 282.228 115.703 282.218 115.735 282.214C120.541 281.581 122.666 283.748 122.666 283.837C122.71 283.882 122.735 283.942 122.735 284.004C122.735 284.066 122.71 284.125 122.666 284.171C122.63 284.199 122.586 284.218 122.539 284.226Z" fill="white"/>
<path d="M192.531 322.342L187.714 325.043C189.163 320.177 189.533 315.072 188.799 310.059C188.477 308.288 187.811 306.591 186.836 305.057C186.466 304.301 183.555 299.622 186.108 297.454C188.661 295.286 194.668 299.588 194.402 311.16C194.273 314.949 193.644 318.706 192.531 322.342Z" fill="#A02724"/>
<path opacity="0.5" d="M192.531 322.342L187.714 325.043C189.163 320.177 189.533 315.072 188.799 310.059C188.477 308.288 187.811 306.591 186.836 305.057C186.466 304.301 183.555 299.622 186.108 297.454C188.661 295.286 194.668 299.588 194.402 311.16C194.273 314.949 193.644 318.706 192.531 322.342Z" fill="black"/>
<path d="M190.336 323.832H190.244C190.186 323.807 190.14 323.763 190.114 323.707C190.088 323.652 190.085 323.589 190.105 323.532C191.392 319.461 191.969 315.212 191.815 310.96C191.722 303.301 187.564 299.233 187.529 299.188C187.485 299.143 187.461 299.083 187.461 299.021C187.461 298.959 187.485 298.9 187.529 298.855C187.574 298.813 187.634 298.79 187.696 298.79C187.759 298.79 187.819 298.813 187.864 298.855C187.864 298.855 192.207 303.09 192.3 310.96C192.448 315.266 191.859 319.566 190.555 323.687C190.539 323.73 190.509 323.767 190.469 323.793C190.43 323.819 190.384 323.832 190.336 323.832Z" fill="white"/>
<path d="M188.799 324.454L180.84 328.956C180.84 328.956 177.19 328.434 177.467 325.143C177.745 321.853 179.223 321.064 177.386 319.586C175.55 318.107 175.076 318.04 175.157 316.618C175.304 315.591 175.859 314.659 176.705 314.017C177.22 313.607 177.582 313.046 177.736 312.42C177.891 311.794 177.829 311.137 177.56 310.548C176.636 308.837 175.4 307.214 177.236 306.391C178.391 305.924 180.193 306.513 181.418 307.769C182.301 308.868 183.48 309.714 184.826 310.215C185.981 310.504 188.418 310.526 188.291 312.438C188.164 314.35 187.69 315.028 188.176 315.884C189.181 317.551 193.05 318.418 188.799 324.454Z" fill="#A02724"/>
<path opacity="0.2" d="M188.799 324.454L180.84 328.956C180.84 328.956 177.19 328.434 177.467 325.143C177.745 321.853 179.223 321.064 177.386 319.586C175.55 318.107 175.076 318.04 175.157 316.618C175.304 315.591 175.859 314.659 176.705 314.017C177.22 313.607 177.582 313.046 177.736 312.42C177.891 311.794 177.829 311.137 177.56 310.548C176.636 308.837 175.4 307.214 177.236 306.391C178.391 305.924 180.193 306.513 181.418 307.769C182.301 308.868 183.48 309.714 184.826 310.215C185.981 310.504 188.418 310.526 188.291 312.438C188.164 314.35 187.69 315.028 188.176 315.884C189.181 317.551 193.05 318.418 188.799 324.454Z" fill="black"/>
<path d="M185.553 326.522C185.521 326.519 185.49 326.51 185.462 326.496C185.434 326.481 185.409 326.462 185.388 326.438C185.368 326.414 185.353 326.387 185.343 326.357C185.334 326.328 185.331 326.297 185.334 326.266C185.334 326.155 186.189 314.939 178.103 307.592C178.08 307.57 178.061 307.544 178.049 307.515C178.036 307.487 178.03 307.456 178.03 307.425C178.03 307.394 178.036 307.363 178.049 307.334C178.061 307.306 178.08 307.28 178.103 307.258C178.148 307.217 178.208 307.194 178.27 307.194C178.332 307.194 178.392 307.217 178.438 307.258C186.697 314.761 185.831 326.155 185.819 326.299C185.813 326.362 185.782 326.421 185.733 326.462C185.683 326.504 185.619 326.525 185.553 326.522Z" fill="white"/>
<path d="M184.133 316.729C184.07 316.723 184.013 316.695 183.972 316.649C183.931 316.603 183.91 316.544 183.913 316.484C183.97 315.541 184.232 314.619 184.682 313.778C185.131 312.938 185.759 312.197 186.524 311.604C186.549 311.586 186.578 311.572 186.609 311.565C186.64 311.557 186.673 311.556 186.704 311.561C186.735 311.567 186.765 311.578 186.792 311.595C186.819 311.612 186.842 311.634 186.859 311.66C186.895 311.71 186.909 311.772 186.898 311.832C186.888 311.893 186.853 311.947 186.801 311.982C186.102 312.542 185.529 313.233 185.116 314.013C184.703 314.792 184.459 315.644 184.398 316.518C184.395 316.548 184.386 316.578 184.371 316.605C184.356 316.633 184.336 316.657 184.311 316.676C184.287 316.696 184.258 316.711 184.227 316.72C184.197 316.729 184.165 316.732 184.133 316.729Z" fill="white"/>
<path d="M184.722 318.674C184.653 318.676 184.587 318.652 184.537 318.607C184.537 318.607 182.527 316.529 177.987 317.129C177.955 317.134 177.923 317.132 177.891 317.125C177.86 317.117 177.831 317.104 177.805 317.085C177.779 317.066 177.757 317.043 177.741 317.016C177.725 316.989 177.714 316.96 177.71 316.929C177.705 316.899 177.707 316.868 177.714 316.839C177.722 316.809 177.737 316.782 177.756 316.758C177.776 316.734 177.8 316.714 177.828 316.699C177.856 316.685 177.886 316.676 177.918 316.673C182.723 316.04 184.849 318.196 184.849 318.296C184.892 318.34 184.916 318.397 184.916 318.457C184.916 318.517 184.892 318.575 184.849 318.618C184.814 318.65 184.769 318.669 184.722 318.674Z" fill="white"/>
<path d="M411.768 285.771L406.951 288.461C408.401 283.595 408.77 278.49 408.037 273.477C407.712 271.707 407.046 270.01 406.073 268.475C405.692 267.719 402.793 263.039 405.346 260.883C407.899 258.727 413.905 263.017 413.64 274.589C413.509 278.377 412.88 282.135 411.768 285.771Z" fill="#A02724"/>
<path opacity="0.5" d="M411.768 285.771L406.951 288.461C408.401 283.595 408.77 278.49 408.037 273.477C407.712 271.707 407.046 270.01 406.073 268.475C405.692 267.719 402.793 263.039 405.346 260.883C407.899 258.727 413.905 263.017 413.64 274.589C413.509 278.377 412.88 282.135 411.768 285.771Z" fill="black"/>
<path d="M409.527 287.205H409.446C409.387 287.183 409.339 287.139 409.313 287.083C409.287 287.026 409.285 286.963 409.308 286.905C410.587 282.836 411.165 278.593 411.017 274.344C410.925 266.663 406.766 262.606 406.732 262.561C406.709 262.541 406.691 262.516 406.679 262.488C406.666 262.46 406.66 262.43 406.66 262.4C406.66 262.37 406.666 262.34 406.679 262.313C406.691 262.285 406.709 262.26 406.732 262.239C406.779 262.197 406.841 262.173 406.905 262.173C406.969 262.173 407.031 262.197 407.078 262.239C407.078 262.239 411.422 266.474 411.514 274.333C411.667 278.636 411.093 282.934 409.816 287.061C409.795 287.115 409.754 287.16 409.701 287.187C409.647 287.213 409.585 287.22 409.527 287.205Z" fill="white"/>
<path d="M408.037 287.828L400.078 292.274C400.078 292.274 396.428 291.763 396.705 288.461C396.983 285.16 398.461 284.382 396.613 282.903C394.765 281.425 394.303 281.358 394.383 279.935C394.544 278.913 395.096 277.985 395.931 277.334C396.45 276.93 396.816 276.371 396.97 275.746C397.125 275.121 397.06 274.464 396.786 273.877C395.874 272.154 394.626 270.543 396.474 269.72C397.629 269.253 399.432 269.831 400.656 271.087C401.539 272.186 402.718 273.031 404.064 273.533C405.219 273.833 407.656 273.855 407.529 275.756C407.402 277.657 406.917 278.357 407.414 279.213C408.372 280.925 412.288 281.792 408.037 287.828Z" fill="#A02724"/>
<path opacity="0.2" d="M408.037 287.828L400.078 292.274C400.078 292.274 396.428 291.763 396.705 288.461C396.983 285.16 398.461 284.382 396.613 282.903C394.765 281.425 394.303 281.358 394.383 279.935C394.544 278.913 395.096 277.985 395.931 277.334C396.45 276.93 396.816 276.371 396.97 275.746C397.125 275.121 397.06 274.464 396.786 273.877C395.874 272.154 394.626 270.543 396.474 269.72C397.629 269.253 399.432 269.831 400.656 271.087C401.539 272.186 402.718 273.031 404.064 273.533C405.219 273.833 407.656 273.855 407.529 275.756C407.402 277.657 406.917 278.357 407.414 279.213C408.372 280.925 412.288 281.792 408.037 287.828Z" fill="black"/>
<path d="M404.792 289.895C404.76 289.892 404.729 289.884 404.7 289.869C404.672 289.855 404.647 289.835 404.626 289.811C404.606 289.788 404.591 289.76 404.581 289.731C404.572 289.701 404.569 289.67 404.572 289.64C404.572 289.528 405.427 278.313 397.352 270.965C397.321 270.947 397.295 270.923 397.274 270.894C397.254 270.865 397.241 270.832 397.236 270.797C397.231 270.763 397.234 270.728 397.245 270.694C397.256 270.661 397.274 270.631 397.299 270.605C397.324 270.58 397.354 270.56 397.388 270.547C397.421 270.534 397.458 270.529 397.494 270.532C397.53 270.534 397.565 270.544 397.597 270.562C397.628 270.579 397.655 270.603 397.676 270.632C405.935 278.135 405.069 289.528 405.057 289.684C405.054 289.715 405.045 289.745 405.03 289.772C405.015 289.799 404.995 289.823 404.97 289.843C404.945 289.863 404.917 289.877 404.886 289.886C404.856 289.895 404.823 289.898 404.792 289.895Z" fill="white"/>
<path d="M403.371 280.102C403.339 280.101 403.308 280.093 403.28 280.08C403.252 280.067 403.227 280.048 403.206 280.025C403.186 280.003 403.17 279.976 403.161 279.947C403.151 279.918 403.148 279.888 403.151 279.858C403.208 278.914 403.47 277.992 403.919 277.152C404.369 276.311 404.997 275.571 405.762 274.978C405.808 274.939 405.868 274.917 405.929 274.917C405.991 274.917 406.05 274.939 406.097 274.978C406.133 275.028 406.147 275.09 406.136 275.15C406.126 275.211 406.091 275.264 406.039 275.3C405.339 275.86 404.764 276.55 404.349 277.33C403.934 278.109 403.688 278.962 403.625 279.835C403.632 279.87 403.631 279.906 403.622 279.94C403.612 279.974 403.594 280.006 403.569 280.032C403.544 280.058 403.513 280.078 403.479 280.09C403.444 280.102 403.407 280.107 403.371 280.102Z" fill="white"/>
<path d="M403.948 282.059C403.882 282.054 403.82 282.027 403.775 281.981C403.775 281.981 401.765 279.902 397.213 280.502C397.16 280.491 397.111 280.462 397.077 280.421C397.042 280.379 397.023 280.328 397.023 280.275C397.023 280.221 397.042 280.17 397.077 280.128C397.111 280.087 397.16 280.058 397.213 280.047C402.019 279.413 404.144 281.581 404.144 281.67C404.171 281.705 404.188 281.746 404.193 281.79C404.197 281.833 404.19 281.877 404.171 281.917C404.152 281.956 404.123 281.99 404.085 282.015C404.048 282.04 404.005 282.055 403.96 282.059H403.948Z" fill="white"/>
<path d="M291.112 351.677L286.295 354.367C287.737 349.499 288.103 344.395 287.369 339.383C287.049 337.613 286.387 335.916 285.417 334.381C285.036 333.625 282.136 328.945 284.689 326.778C287.242 324.61 293.249 328.923 292.972 340.483C292.849 344.275 292.224 348.037 291.112 351.677Z" fill="#A02724"/>
<path opacity="0.5" d="M291.112 351.677L286.295 354.367C287.737 349.499 288.103 344.395 287.369 339.383C287.049 337.613 286.387 335.916 285.417 334.381C285.036 333.625 282.136 328.945 284.689 326.778C287.242 324.61 293.249 328.923 292.972 340.483C292.849 344.275 292.224 348.037 291.112 351.677Z" fill="black"/>
<path d="M288.871 353.155H288.79C288.76 353.145 288.731 353.13 288.707 353.109C288.683 353.088 288.664 353.064 288.65 353.036C288.636 353.008 288.628 352.977 288.626 352.946C288.624 352.915 288.629 352.884 288.64 352.855C289.927 348.788 290.509 344.544 290.361 340.294C290.269 332.624 286.11 328.556 286.064 328.512C286.021 328.468 285.997 328.41 285.997 328.35C285.997 328.29 286.021 328.233 286.064 328.189C286.086 328.166 286.112 328.147 286.142 328.134C286.172 328.121 286.204 328.114 286.237 328.114C286.27 328.114 286.302 328.121 286.332 328.134C286.362 328.147 286.389 328.166 286.411 328.189C286.411 328.189 290.742 332.458 290.835 340.239C290.976 344.544 290.387 348.843 289.09 352.966C289.08 353.017 289.054 353.062 289.014 353.097C288.974 353.131 288.924 353.151 288.871 353.155Z" fill="white"/>
<path d="M287.369 353.778L279.41 358.28C279.41 358.28 275.771 357.768 276.049 354.467C276.326 351.166 277.804 350.387 275.956 348.909C274.108 347.431 273.646 347.364 273.727 345.941C273.884 344.918 274.437 343.989 275.275 343.34C275.794 342.935 276.159 342.377 276.313 341.751C276.468 341.126 276.403 340.469 276.129 339.883C275.217 338.16 273.969 336.548 275.818 335.726C276.915 335.248 278.775 335.837 279.999 337.093C280.88 338.194 282.059 339.04 283.407 339.538C284.562 339.827 286.988 339.861 286.872 341.762C286.757 343.662 286.272 344.363 286.757 345.219C287.716 346.908 291.62 347.742 287.369 353.778Z" fill="#A02724"/>
<path opacity="0.2" d="M287.369 353.778L279.41 358.28C279.41 358.28 275.771 357.768 276.049 354.467C276.326 351.166 277.804 350.387 275.956 348.909C274.108 347.431 273.646 347.364 273.727 345.941C273.884 344.918 274.437 343.989 275.275 343.34C275.794 342.935 276.159 342.377 276.313 341.751C276.468 341.126 276.403 340.469 276.129 339.883C275.217 338.16 273.969 336.548 275.818 335.726C276.915 335.248 278.775 335.837 279.999 337.093C280.88 338.194 282.059 339.04 283.407 339.538C284.562 339.827 286.988 339.861 286.872 341.762C286.757 343.662 286.272 344.363 286.757 345.219C287.716 346.908 291.62 347.742 287.369 353.778Z" fill="black"/>
<path d="M284.135 355.801C284.103 355.798 284.072 355.789 284.043 355.775C284.015 355.76 283.99 355.741 283.97 355.717C283.949 355.693 283.934 355.666 283.925 355.636C283.915 355.607 283.912 355.576 283.915 355.545C283.915 355.434 284.77 344.218 276.684 336.871C276.64 336.825 276.616 336.766 276.616 336.704C276.616 336.642 276.64 336.582 276.684 336.537C276.729 336.496 276.789 336.473 276.851 336.473C276.914 336.473 276.974 336.496 277.019 336.537C285.278 344.04 284.4 355.434 284.4 355.59C284.398 355.62 284.388 355.65 284.373 355.677C284.358 355.705 284.338 355.729 284.313 355.749C284.289 355.768 284.26 355.783 284.229 355.792C284.199 355.801 284.167 355.804 284.135 355.801Z" fill="white"/>
<path d="M282.748 346.052C282.717 346.051 282.686 346.043 282.658 346.03C282.63 346.017 282.605 345.998 282.584 345.976C282.563 345.953 282.548 345.926 282.539 345.897C282.529 345.868 282.526 345.838 282.529 345.808C282.588 344.866 282.85 343.946 283.297 343.106C283.744 342.266 284.368 341.524 285.128 340.928C285.153 340.909 285.183 340.896 285.214 340.888C285.245 340.881 285.277 340.88 285.308 340.885C285.34 340.89 285.37 340.902 285.396 340.919C285.423 340.936 285.446 340.958 285.463 340.984C285.506 341.027 285.53 341.085 285.53 341.145C285.53 341.205 285.506 341.262 285.463 341.306C284.762 341.864 284.186 342.554 283.771 343.334C283.355 344.114 283.11 344.967 283.049 345.841C283.047 345.875 283.036 345.908 283.019 345.938C283.002 345.968 282.979 345.994 282.95 346.014C282.921 346.034 282.888 346.048 282.854 346.055C282.819 346.061 282.783 346.061 282.748 346.052Z" fill="white"/>
<path d="M283.292 348.02C283.259 348.019 283.226 348.011 283.197 347.998C283.167 347.985 283.14 347.966 283.118 347.942C283.118 347.942 281.108 345.863 276.557 346.464C276.525 346.47 276.493 346.47 276.462 346.463C276.43 346.456 276.401 346.443 276.375 346.423C276.35 346.404 276.329 346.38 276.315 346.352C276.3 346.325 276.292 346.294 276.291 346.264C276.286 346.234 276.288 346.204 276.295 346.176C276.302 346.147 276.315 346.12 276.334 346.096C276.352 346.072 276.375 346.052 276.401 346.037C276.428 346.022 276.457 346.012 276.488 346.008C281.305 345.374 283.419 347.542 283.419 347.631C283.462 347.674 283.486 347.732 283.486 347.792C283.486 347.852 283.462 347.91 283.419 347.953C283.385 347.988 283.34 348.011 283.292 348.02Z" fill="white"/>
<path d="M454.983 268.175C454.493 268.175 454.023 267.988 453.676 267.654C453.329 267.321 453.135 266.868 453.135 266.396V193.254C453.135 192.783 453.329 192.33 453.676 191.997C454.023 191.663 454.493 191.476 454.983 191.476C455.473 191.476 455.943 191.663 456.29 191.997C456.637 192.33 456.831 192.783 456.831 193.254V266.396C456.831 266.868 456.637 267.321 456.29 267.654C455.943 267.988 455.473 268.175 454.983 268.175Z" fill="#A02724"/>
<path d="M454.983 220.043C454.765 220.044 454.551 219.988 454.362 219.883C454.173 219.777 454.017 219.626 453.909 219.443L443.385 201.658C443.226 201.383 443.185 201.059 443.271 200.756C443.358 200.452 443.565 200.193 443.847 200.035C443.988 199.958 444.142 199.908 444.302 199.889C444.463 199.869 444.625 199.881 444.781 199.922C444.937 199.963 445.082 200.034 445.21 200.13C445.337 200.225 445.443 200.344 445.522 200.48L456.046 218.265C456.128 218.4 456.181 218.55 456.202 218.705C456.223 218.861 456.212 219.019 456.169 219.17C456.126 219.321 456.052 219.462 455.952 219.586C455.851 219.709 455.726 219.812 455.584 219.888C455.402 219.992 455.194 220.045 454.983 220.043Z" fill="#A02724"/>
<path d="M454.775 224.857C454.564 224.859 454.356 224.805 454.174 224.701C454.034 224.625 453.91 224.523 453.811 224.4C453.711 224.278 453.638 224.138 453.595 223.988C453.552 223.838 453.54 223.681 453.56 223.527C453.581 223.373 453.632 223.224 453.712 223.089L467.771 199.346C467.933 199.072 468.202 198.871 468.518 198.787C468.835 198.704 469.172 198.745 469.457 198.901C469.742 199.058 469.951 199.316 470.038 199.621C470.124 199.925 470.082 200.25 469.919 200.524L455.849 224.256C455.748 224.445 455.594 224.601 455.403 224.707C455.213 224.814 454.995 224.865 454.775 224.857Z" fill="#A02724"/>
<path d="M486.533 202.68C500.361 197.169 506.927 181.914 501.2 168.608C495.472 155.302 479.619 148.984 465.792 154.495C451.964 160.007 445.398 175.261 451.125 188.567C456.853 201.873 472.706 208.192 486.533 202.68Z" fill="#A02724"/>
<path opacity="0.3" d="M486.533 202.68C500.361 197.169 506.927 181.914 501.2 168.608C495.472 155.302 479.619 148.984 465.792 154.495C451.964 160.007 445.398 175.261 451.125 188.567C456.853 201.873 472.706 208.192 486.533 202.68Z" fill="black"/>
<path d="M470.3 171.212C470.291 167.748 471.001 164.318 472.39 161.122C473.779 157.926 475.818 155.03 478.386 152.604C477.647 152.604 476.896 152.515 476.134 152.515C471.687 152.514 467.308 153.566 463.383 155.578C459.458 157.591 456.108 160.501 453.629 164.054C451.15 167.607 449.617 171.692 449.166 175.949C448.715 180.206 449.36 184.505 451.044 188.466C452.728 192.427 455.399 195.928 458.821 198.661C462.243 201.393 466.312 203.274 470.668 204.136C475.024 204.998 479.533 204.815 483.798 203.604C488.063 202.392 491.953 200.189 495.125 197.189C488.357 196.641 482.05 193.666 477.452 188.855C472.855 184.044 470.302 177.748 470.3 171.212Z" fill="#A02724"/>
<path opacity="0.4" d="M470.3 171.212C470.291 167.748 471.001 164.318 472.39 161.122C473.779 157.926 475.818 155.03 478.386 152.604C477.647 152.604 476.896 152.515 476.134 152.515C471.687 152.514 467.308 153.566 463.383 155.578C459.458 157.591 456.108 160.501 453.629 164.054C451.15 167.607 449.617 171.692 449.166 175.949C448.715 180.206 449.36 184.505 451.044 188.466C452.728 192.427 455.399 195.928 458.821 198.661C462.243 201.393 466.312 203.274 470.668 204.136C475.024 204.998 479.533 204.815 483.798 203.604C488.063 202.392 491.953 200.189 495.125 197.189C488.357 196.641 482.05 193.666 477.452 188.855C472.855 184.044 470.302 177.748 470.3 171.212Z" fill="black"/>
<path d="M431.903 204.67C442.628 204.67 451.321 196.304 451.321 185.985C451.321 175.665 442.628 167.299 431.903 167.299C421.179 167.299 412.485 175.665 412.485 185.985C412.485 196.304 421.179 204.67 431.903 204.67Z" fill="#A02724"/>
<path opacity="0.3" d="M431.903 204.67C442.628 204.67 451.321 196.304 451.321 185.985C451.321 175.665 442.628 167.299 431.903 167.299C421.179 167.299 412.485 175.665 412.485 185.985C412.485 196.304 421.179 204.67 431.903 204.67Z" fill="black"/>
<path d="M434.005 167.399C431.421 167.127 428.807 167.358 426.318 168.08C423.829 168.802 421.517 169.999 419.519 171.601C419.45 172.401 419.416 173.201 419.416 174.024C419.409 182.121 422.463 189.944 428.01 196.033C428.392 196.452 428.642 196.967 428.731 197.517C428.82 198.068 428.744 198.631 428.513 199.142C428.281 199.652 427.904 200.089 427.424 200.401C426.944 200.712 426.382 200.886 425.804 200.902H425.734C423.307 200.897 420.901 200.456 418.642 199.602C420.89 201.621 423.605 203.097 426.562 203.909C429.519 204.721 432.635 204.845 435.652 204.272C438.669 203.698 441.501 202.444 443.916 200.611C446.331 198.778 448.258 196.42 449.54 193.73C450.822 191.04 451.422 188.095 451.29 185.139C451.158 182.182 450.298 179.298 448.781 176.723C447.265 174.149 445.134 171.958 442.565 170.331C439.996 168.705 437.062 167.688 434.005 167.366V167.399Z" fill="#A02724"/>
<path opacity="0.4" d="M434.005 167.399C431.421 167.127 428.807 167.358 426.318 168.08C423.829 168.802 421.517 169.999 419.519 171.601C419.45 172.401 419.416 173.201 419.416 174.024C419.409 182.121 422.463 189.944 428.01 196.033C428.392 196.452 428.642 196.967 428.731 197.517C428.82 198.068 428.744 198.631 428.513 199.142C428.281 199.652 427.904 200.089 427.424 200.401C426.944 200.712 426.382 200.886 425.804 200.902H425.734C423.307 200.897 420.901 200.456 418.642 199.602C420.89 201.621 423.605 203.097 426.562 203.909C429.519 204.721 432.635 204.845 435.652 204.272C438.669 203.698 441.501 202.444 443.916 200.611C446.331 198.778 448.258 196.42 449.54 193.73C450.822 191.04 451.422 188.095 451.29 185.139C451.158 182.182 450.298 179.298 448.781 176.723C447.265 174.149 445.134 171.958 442.565 170.331C439.996 168.705 437.062 167.688 434.005 167.366V167.399Z" fill="black"/>
<path d="M488.802 175.44C493.213 157.455 481.638 139.435 462.948 135.19C444.259 130.945 425.532 142.084 421.121 160.068C416.709 178.053 428.284 196.073 446.974 200.318C465.664 204.563 484.391 193.424 488.802 175.44Z" fill="#A02724"/>
<path opacity="0.2" d="M464.894 189.753C458.954 189.752 453.113 188.286 447.929 185.495C442.745 182.705 438.39 178.683 435.279 173.813C432.169 168.943 430.407 163.387 430.162 157.676C429.917 151.965 431.196 146.288 433.878 141.188C429.747 144.249 426.385 148.165 424.04 152.647C421.696 157.128 420.429 162.059 420.333 167.075C420.238 172.092 421.316 177.064 423.489 181.625C425.661 186.186 428.872 190.218 432.884 193.423C436.895 196.627 441.605 198.923 446.663 200.139C451.721 201.354 456.999 201.46 462.106 200.446C467.212 199.433 472.016 197.328 476.162 194.285C480.308 191.243 483.69 187.343 486.057 182.872C479.985 187.351 472.544 189.77 464.894 189.753Z" fill="black"/>
<path d="M98.9625 281.581C98.4723 281.581 98.0022 281.393 97.6556 281.06C97.309 280.726 97.1143 280.274 97.1143 279.802V206.66C97.1143 206.188 97.309 205.736 97.6556 205.402C98.0022 205.069 98.4723 204.882 98.9625 204.882C99.4527 204.882 99.9228 205.069 100.269 205.402C100.616 205.736 100.811 206.188 100.811 206.66V279.802C100.811 280.274 100.616 280.726 100.269 281.06C99.9228 281.393 99.4527 281.581 98.9625 281.581Z" fill="#A02724"/>
<path d="M98.9627 233.449C98.7447 233.456 98.5292 233.403 98.3412 233.297C98.1531 233.191 98.0001 233.035 97.8999 232.849L87.3649 215.064C87.2025 214.789 87.1599 214.464 87.2466 214.16C87.3332 213.856 87.542 213.597 87.8269 213.441C88.1118 213.284 88.4496 213.244 88.7659 213.327C89.0822 213.41 89.3511 213.611 89.5134 213.885L100.037 231.671C100.117 231.806 100.169 231.954 100.189 232.109C100.209 232.263 100.197 232.419 100.155 232.569C100.112 232.719 100.038 232.859 99.9388 232.981C99.8393 233.104 99.7156 233.206 99.5749 233.282C99.3911 233.392 99.1789 233.45 98.9627 233.449Z" fill="#A02724"/>
<path d="M98.7661 238.273C98.5506 238.272 98.3394 238.216 98.1533 238.111C97.9673 238.006 97.8129 237.857 97.7055 237.677C97.5981 237.497 97.5414 237.294 97.541 237.086C97.5406 236.879 97.5966 236.675 97.7033 236.495L111.785 212.752C111.947 212.477 112.216 212.276 112.532 212.193C112.849 212.11 113.186 212.151 113.471 212.307C113.756 212.463 113.965 212.722 114.052 213.026C114.138 213.331 114.096 213.656 113.933 213.93L99.8404 237.673C99.7305 237.854 99.5738 238.004 99.3855 238.11C99.1972 238.215 98.9838 238.271 98.7661 238.273Z" fill="#A02724"/>
<path d="M130.534 216.087C144.362 210.575 150.928 195.32 145.201 182.014C139.473 168.708 123.62 162.39 109.793 167.901C95.9649 173.413 89.3985 188.667 95.1261 201.973C100.854 215.279 116.706 221.598 130.534 216.087Z" fill="#A02724"/>
<path opacity="0.3" d="M130.534 216.087C144.362 210.575 150.928 195.32 145.201 182.014C139.473 168.708 123.62 162.39 109.793 167.901C95.9649 173.413 89.3985 188.667 95.1261 201.973C100.854 215.279 116.706 221.598 130.534 216.087Z" fill="black"/>
<path d="M114.292 184.617C114.284 181.154 114.995 177.724 116.383 174.528C117.772 171.333 119.81 168.437 122.378 166.01C121.627 166.01 120.888 165.921 120.068 165.921C115.62 165.918 111.24 166.968 107.314 168.979C103.388 170.99 100.037 173.901 97.556 177.453C95.0752 181.005 93.5411 185.09 93.0891 189.348C92.637 193.605 93.2809 197.905 94.9639 201.866C96.647 205.828 99.3174 209.33 102.74 212.064C106.162 214.797 110.231 216.678 114.587 217.541C118.943 218.403 123.453 218.221 127.719 217.01C131.985 215.798 135.875 213.595 139.047 210.595C132.291 210.03 126.001 207.049 121.418 202.24C116.835 197.431 114.292 191.143 114.292 184.617Z" fill="#A02724"/>
<path opacity="0.4" d="M114.292 184.617C114.284 181.154 114.995 177.724 116.383 174.528C117.772 171.333 119.81 168.437 122.378 166.01C121.627 166.01 120.888 165.921 120.068 165.921C115.62 165.918 111.24 166.968 107.314 168.979C103.388 170.99 100.037 173.901 97.556 177.453C95.0752 181.005 93.5411 185.09 93.0891 189.348C92.637 193.605 93.2809 197.905 94.9639 201.866C96.647 205.828 99.3174 209.33 102.74 212.064C106.162 214.797 110.231 216.678 114.587 217.541C118.943 218.403 123.453 218.221 127.719 217.01C131.985 215.798 135.875 213.595 139.047 210.595C132.291 210.03 126.001 207.049 121.418 202.24C116.835 197.431 114.292 191.143 114.292 184.617Z" fill="black"/>
<path d="M75.8941 218.076C86.6185 218.076 95.3123 209.71 95.3123 199.39C95.3123 189.071 86.6185 180.705 75.8941 180.705C65.1697 180.705 56.4758 189.071 56.4758 199.39C56.4758 209.71 65.1697 218.076 75.8941 218.076Z" fill="#A02724"/>
<path opacity="0.3" d="M75.8941 218.076C86.6185 218.076 95.3123 209.71 95.3123 199.39C95.3123 189.071 86.6185 180.705 75.8941 180.705C65.1697 180.705 56.4758 189.071 56.4758 199.39C56.4758 209.71 65.1697 218.076 75.8941 218.076Z" fill="black"/>
<path d="M77.9966 180.805C75.4108 180.535 72.795 180.767 70.3045 181.489C67.8141 182.211 65.4998 183.407 63.4993 185.006C63.4993 185.807 63.4069 186.607 63.4069 187.43C63.397 195.531 66.452 203.358 72.0013 209.45C72.3849 209.868 72.6362 210.383 72.7255 210.935C72.8148 211.486 72.7383 212.05 72.5051 212.561C72.2719 213.072 71.8918 213.507 71.4095 213.817C70.9272 214.126 70.363 214.297 69.7834 214.308C67.3551 214.308 64.9487 213.867 62.6907 213.007C64.9394 215.019 67.6522 216.489 70.606 217.296C73.5599 218.103 76.6706 218.224 79.6825 217.649C82.6944 217.073 85.5215 215.819 87.9314 213.988C90.3414 212.157 92.2655 209.802 93.5455 207.116C94.8255 204.43 95.425 201.49 95.2947 198.538C95.1643 195.586 94.3079 192.706 92.7957 190.134C91.2836 187.563 89.1588 185.373 86.5962 183.746C84.0335 182.118 81.106 181.099 78.0543 180.771L77.9966 180.805Z" fill="#A02724"/>
<path opacity="0.4" d="M77.9966 180.805C75.4108 180.535 72.795 180.767 70.3045 181.489C67.8141 182.211 65.4998 183.407 63.4993 185.006C63.4993 185.807 63.4069 186.607 63.4069 187.43C63.397 195.531 66.452 203.358 72.0013 209.45C72.3849 209.868 72.6362 210.383 72.7255 210.935C72.8148 211.486 72.7383 212.05 72.5051 212.561C72.2719 213.072 71.8918 213.507 71.4095 213.817C70.9272 214.126 70.363 214.297 69.7834 214.308C67.3551 214.308 64.9487 213.867 62.6907 213.007C64.9394 215.019 67.6522 216.489 70.606 217.296C73.5599 218.103 76.6706 218.224 79.6825 217.649C82.6944 217.073 85.5215 215.819 87.9314 213.988C90.3414 212.157 92.2655 209.802 93.5455 207.116C94.8255 204.43 95.425 201.49 95.2947 198.538C95.1643 195.586 94.3079 192.706 92.7957 190.134C91.2836 187.563 89.1588 185.373 86.5962 183.746C84.0335 182.118 81.106 181.099 78.0543 180.771L77.9966 180.805Z" fill="black"/>
<path d="M132.806 188.855C137.217 170.871 125.642 152.85 106.952 148.606C88.2626 144.361 69.5357 155.499 65.1245 173.484C60.7134 191.468 72.2884 209.489 90.978 213.733C109.668 217.978 128.394 206.84 132.806 188.855Z" fill="#A02724"/>
<path opacity="0.2" d="M108.885 203.159C102.944 203.162 97.1015 201.7 91.915 198.912C86.7285 196.124 82.3715 192.102 79.2604 187.232C76.1492 182.362 74.3877 176.805 74.1442 171.093C73.9006 165.381 75.1832 159.704 77.8693 154.605C73.7208 157.657 70.3405 161.57 67.9794 166.052C65.6183 170.535 64.3371 175.471 64.231 180.495C64.125 185.52 65.1968 190.502 67.3669 195.073C69.5369 199.644 72.7494 203.686 76.7656 206.898C80.7819 210.11 85.4986 212.41 90.5655 213.627C95.6323 214.844 100.919 214.946 106.033 213.927C111.146 212.908 115.956 210.793 120.103 207.739C124.251 204.686 127.63 200.772 129.99 196.289C123.933 200.752 116.514 203.167 108.885 203.159Z" fill="black"/>
<path d="M422.523 309.17V294.886H414.056V309.17C414.091 309.528 414.224 309.871 414.441 310.163C414.658 310.456 414.952 310.689 415.292 310.837C416.222 311.287 417.248 311.521 418.289 311.521C419.33 311.521 420.357 311.287 421.287 310.837C421.629 310.69 421.923 310.458 422.14 310.165C422.358 309.872 422.49 309.529 422.523 309.17Z" fill="#D68D91"/>
<path d="M421.253 293.219C422.904 294.142 422.904 295.631 421.253 296.554C420.324 297.009 419.297 297.246 418.255 297.246C417.213 297.246 416.186 297.009 415.257 296.554C413.605 295.642 413.605 294.153 415.257 293.219C416.186 292.764 417.213 292.527 418.255 292.527C419.297 292.527 420.324 292.764 421.253 293.219Z" fill="#A02724"/>
<path d="M435.23 230.57C434.902 230.57 434.587 230.445 434.356 230.222C434.124 229.999 433.994 229.696 433.994 229.381V216.042C433.977 215.877 433.996 215.71 434.051 215.553C434.105 215.395 434.193 215.25 434.309 215.128C434.424 215.005 434.566 214.907 434.723 214.839C434.881 214.772 435.051 214.738 435.224 214.738C435.396 214.738 435.567 214.772 435.724 214.839C435.882 214.907 436.023 215.005 436.139 215.128C436.255 215.25 436.343 215.395 436.397 215.553C436.451 215.71 436.471 215.877 436.454 216.042V229.381C436.456 229.536 436.425 229.691 436.364 229.835C436.303 229.979 436.213 230.111 436.1 230.221C435.986 230.332 435.85 230.419 435.701 230.479C435.552 230.539 435.391 230.57 435.23 230.57Z" fill="#A02724"/>
<path d="M454.96 242.564C454.798 242.564 454.638 242.533 454.489 242.473C454.339 242.413 454.204 242.326 454.09 242.215C453.976 242.104 453.886 241.973 453.825 241.829C453.765 241.685 453.734 241.53 453.736 241.375V228.036C453.719 227.871 453.738 227.704 453.793 227.547C453.847 227.389 453.935 227.244 454.051 227.121C454.166 226.999 454.308 226.901 454.465 226.833C454.623 226.766 454.793 226.732 454.966 226.732C455.138 226.732 455.309 226.766 455.466 226.833C455.624 226.901 455.765 226.999 455.881 227.121C455.997 227.244 456.085 227.389 456.139 227.547C456.193 227.704 456.213 227.871 456.196 228.036V241.375C456.196 241.69 456.066 241.993 455.834 242.216C455.602 242.439 455.288 242.564 454.96 242.564Z" fill="#A02724"/>
<path d="M418.353 295.364C418.025 295.364 417.711 295.239 417.479 295.016C417.247 294.793 417.117 294.49 417.117 294.175V206.727C417.121 206.519 417.181 206.316 417.291 206.137C417.401 205.959 417.558 205.811 417.745 205.708C417.933 205.605 418.145 205.55 418.361 205.55C418.576 205.549 418.789 205.602 418.977 205.704L470.208 234.172C470.474 234.338 470.663 234.596 470.737 234.892C470.811 235.188 470.763 235.501 470.605 235.765C470.446 236.029 470.188 236.224 469.885 236.31C469.581 236.396 469.254 236.367 468.972 236.228L419.589 208.783V294.175C419.589 294.331 419.557 294.486 419.495 294.63C419.433 294.774 419.342 294.905 419.227 295.016C419.112 295.126 418.976 295.214 418.826 295.274C418.676 295.333 418.515 295.364 418.353 295.364Z" fill="#A02724"/>
<path d="M424.568 220.844V254.714C424.566 255.52 424.787 256.311 425.207 257.009C425.627 257.706 426.231 258.283 426.959 258.682L466.581 280.702C466.886 280.872 467.232 280.961 467.584 280.962C467.936 280.962 468.282 280.873 468.587 280.704C468.893 280.536 469.147 280.292 469.324 280C469.501 279.707 469.594 279.374 469.596 279.035V245.165C469.594 244.36 469.372 243.57 468.952 242.873C468.532 242.177 467.93 241.599 467.205 241.197L427.583 219.176C427.278 219.007 426.932 218.918 426.58 218.917C426.227 218.917 425.881 219.006 425.576 219.175C425.271 219.343 425.017 219.587 424.84 219.879C424.663 220.172 424.569 220.505 424.568 220.844Z" fill="#D68D91"/>
<path d="M436.657 241.25C436.226 241.011 435.825 240.71 435.456 240.345C435.092 239.984 434.775 239.582 434.505 239.142C434.24 238.704 434.032 238.248 433.881 237.772C433.736 237.299 433.663 236.831 433.663 236.368C433.663 235.905 433.736 235.517 433.881 235.206C434.032 234.897 434.242 234.672 434.513 234.53C434.783 234.389 435.1 234.338 435.464 234.379C435.828 234.42 436.223 234.558 436.65 234.794C437.081 235.033 437.476 235.331 437.835 235.69C438.199 236.052 438.513 236.451 438.778 236.889C439.049 237.33 439.259 237.788 439.41 238.263C439.561 238.733 439.636 239.202 439.636 239.672C439.636 240.135 439.561 240.524 439.41 240.839C439.259 241.147 439.049 241.373 438.778 241.514C438.513 241.653 438.199 241.702 437.835 241.661C437.476 241.623 437.084 241.486 436.657 241.25ZM436.65 240.016C436.894 240.151 437.117 240.227 437.32 240.244C437.528 240.264 437.71 240.228 437.866 240.136C438.022 240.044 438.142 239.899 438.225 239.702C438.313 239.507 438.357 239.261 438.357 238.964C438.357 238.667 438.313 238.373 438.225 238.08C438.142 237.79 438.022 237.513 437.866 237.249C437.715 236.987 437.536 236.752 437.328 236.541C437.12 236.331 436.894 236.159 436.65 236.024C436.405 235.889 436.179 235.811 435.971 235.791C435.768 235.774 435.589 235.811 435.433 235.903C435.277 235.995 435.155 236.139 435.066 236.333C434.983 236.531 434.942 236.778 434.942 237.075C434.942 237.366 434.983 237.66 435.066 237.955C435.155 238.248 435.274 238.525 435.425 238.786C435.581 239.051 435.763 239.288 435.971 239.498C436.179 239.708 436.405 239.881 436.65 240.016ZM440.586 243.316V237.078L442.949 238.384C443.437 238.655 443.858 238.98 444.212 239.359C444.565 239.733 444.838 240.142 445.031 240.587C445.223 241.032 445.319 241.49 445.319 241.959C445.319 242.422 445.223 242.77 445.031 243.002C444.838 243.235 444.565 243.345 444.212 243.334C443.858 243.317 443.437 243.173 442.949 242.902L441.288 241.984L441.849 241.644V244.014L440.586 243.316ZM441.849 241.804L441.288 240.808L442.878 241.687C443.268 241.903 443.559 241.969 443.752 241.885C443.944 241.801 444.04 241.59 444.04 241.252C444.04 240.907 443.944 240.587 443.752 240.29C443.559 239.994 443.268 239.738 442.878 239.522L441.288 238.642L441.849 238.266V241.804ZM447.383 243.35L450.011 244.803V245.926L447.383 244.473V243.35ZM447.477 245.968L450.448 247.611V248.77L446.221 246.432V240.194L450.346 242.476V243.634L447.477 242.047V245.968ZM451.453 249.326V243.088L452.498 243.666L455.719 249.938L455.212 249.658V245.166L456.459 245.856V252.094L455.422 251.521L452.194 245.244L452.701 245.524V250.016L451.453 249.326Z" fill="#FAFAFA"/>
<path d="M434.292 245.469L435.555 246.167V252.405L434.292 251.707V245.469ZM431.812 250.335L430.549 249.637V243.399L431.812 244.097V250.335ZM434.386 249.201L431.719 247.726V246.505L434.386 247.98V249.201ZM439.498 254.693C439.067 254.454 438.666 254.153 438.297 253.788C437.933 253.426 437.616 253.025 437.346 252.585C437.081 252.147 436.873 251.69 436.722 251.215C436.577 250.742 436.504 250.274 436.504 249.811C436.504 249.347 436.577 248.96 436.722 248.648C436.873 248.34 437.083 248.114 437.354 247.973C437.624 247.831 437.941 247.781 438.305 247.822C438.669 247.863 439.064 248.001 439.49 248.237C439.922 248.475 440.317 248.774 440.676 249.133C441.04 249.494 441.354 249.894 441.619 250.332C441.89 250.773 442.1 251.231 442.251 251.706C442.402 252.176 442.477 252.645 442.477 253.114C442.477 253.578 442.402 253.967 442.251 254.281C442.1 254.59 441.89 254.815 441.619 254.957C441.354 255.095 441.04 255.144 440.676 255.103C440.317 255.065 439.925 254.929 439.498 254.693ZM439.49 253.459C439.735 253.594 439.958 253.67 440.161 253.687C440.369 253.707 440.551 253.671 440.707 253.579C440.863 253.487 440.983 253.342 441.066 253.145C441.154 252.95 441.198 252.704 441.198 252.407C441.198 252.11 441.154 251.815 441.066 251.523C440.983 251.233 440.863 250.956 440.707 250.692C440.556 250.43 440.377 250.194 440.169 249.984C439.961 249.774 439.735 249.602 439.49 249.466C439.246 249.331 439.02 249.254 438.812 249.234C438.609 249.217 438.43 249.254 438.274 249.346C438.118 249.438 437.996 249.581 437.907 249.776C437.824 249.974 437.783 250.221 437.783 250.518C437.783 250.809 437.824 251.103 437.907 251.398C437.996 251.691 438.115 251.968 438.266 252.229C438.422 252.494 438.604 252.731 438.812 252.941C439.02 253.151 439.246 253.324 439.49 253.459ZM445.852 258.207C445.077 257.778 444.472 257.197 444.035 256.462C443.598 255.727 443.38 254.903 443.38 253.988V250.495L444.643 251.193V254.633C444.643 255.227 444.75 255.714 444.963 256.093C445.176 256.472 445.475 256.768 445.86 256.981C446.244 257.194 446.543 257.229 446.757 257.085C446.97 256.941 447.076 256.573 447.076 255.979V252.539L448.324 253.229V256.722C448.324 257.637 448.106 258.22 447.669 258.472C447.232 258.723 446.627 258.635 445.852 258.207ZM451.366 261.256C450.929 261.015 450.511 260.718 450.11 260.366C449.71 260.008 449.388 259.654 449.143 259.305L449.572 258.455C449.806 258.775 450.082 259.084 450.399 259.385C450.721 259.682 451.046 259.921 451.374 260.102C451.623 260.24 451.823 260.324 451.974 260.354C452.13 260.381 452.245 260.364 452.317 260.303C452.39 260.242 452.427 260.146 452.427 260.016C452.427 259.849 452.369 259.687 452.255 259.529C452.141 259.364 451.99 259.201 451.803 259.038C451.616 258.869 451.408 258.695 451.179 258.515C450.955 258.332 450.729 258.135 450.5 257.926C450.277 257.719 450.071 257.498 449.884 257.264C449.697 257.03 449.544 256.773 449.424 256.493C449.31 256.216 449.253 255.911 449.253 255.578C449.253 255.222 449.336 254.944 449.502 254.745C449.674 254.543 449.928 254.449 450.266 254.463C450.61 254.475 451.038 254.623 451.553 254.908C451.896 255.097 452.234 255.332 452.567 255.611C452.9 255.884 453.193 256.183 453.448 256.508L453.058 257.389C452.803 257.081 452.549 256.819 452.294 256.601C452.039 256.377 451.79 256.197 451.545 256.062C451.301 255.927 451.101 255.849 450.945 255.828C450.789 255.807 450.677 255.831 450.61 255.901C450.542 255.964 450.508 256.065 450.508 256.201C450.508 256.362 450.565 256.524 450.68 256.688C450.794 256.846 450.945 257.007 451.132 257.17C451.319 257.333 451.525 257.506 451.748 257.689C451.977 257.875 452.203 258.068 452.427 258.269C452.655 258.473 452.863 258.692 453.05 258.926C453.238 259.16 453.388 259.416 453.503 259.693C453.622 259.973 453.682 260.276 453.682 260.603C453.682 260.954 453.596 261.227 453.425 261.423C453.253 261.619 452.996 261.712 452.653 261.7C452.315 261.692 451.886 261.544 451.366 261.256ZM455.707 259.825L458.335 261.278V262.401L455.707 260.948V259.825ZM455.801 262.443L458.772 264.086V265.245L454.545 262.907V256.669L458.671 258.951V260.109L455.801 258.522V262.443Z" fill="#FAFAFA"/>
<path d="M327.8 397.263C327.8 397.263 327.176 398.241 327.453 402.699C327.731 407.156 327.731 407.489 327.8 410.391C327.869 413.292 327.731 416.527 331.6 415.548C335.47 414.57 336.129 411.98 335.678 409.701C335.045 406.678 334.613 403.619 334.384 400.542C334.292 397.808 333.345 396.896 333.345 396.896L327.8 397.263Z" fill="#A02724"/>
<path d="M331.381 350.043L331.092 355.601C330.99 357.525 331.126 359.454 331.497 361.348C332.421 366.116 334.153 376.076 333.807 382.401C333.322 390.971 333.403 396.852 333.403 396.852C333.403 396.852 334.165 405.744 334.2 407.612C334.212 407.931 334.157 408.249 334.039 408.548C333.92 408.846 333.739 409.118 333.508 409.348C333.277 409.577 333.001 409.759 332.695 409.883C332.389 410.007 332.06 410.07 331.728 410.068C330.85 410.068 328.424 410.913 327.858 398.619C327.036 391.601 325.72 384.645 323.919 377.799C322.059 370.974 320.742 364.938 320.06 361.603C319.708 359.882 319.477 358.141 319.367 356.39L318.871 348.609L331.381 350.043Z" fill="#945959"/>
<path d="M312.563 396.752V396.829C312.553 397.862 312.329 398.882 311.905 399.831C311.6 400.585 311.447 401.389 311.454 402.198V405.533C311.454 405.67 311.399 405.801 311.299 405.899C311.2 405.996 311.065 406.053 310.923 406.056C310.852 406.056 310.781 406.042 310.715 406.016C310.649 405.99 310.59 405.951 310.539 405.902C310.489 405.854 310.449 405.796 310.421 405.733C310.394 405.67 310.38 405.602 310.38 405.533V400.42L312.563 396.752Z" fill="#A02724"/>
<path d="M310.796 393.361C310.796 393.361 308.948 394.673 308.948 398.141C308.88 399.572 308.482 400.971 307.782 402.236C307.083 403.501 306.1 404.601 304.905 405.455C303.542 406.244 300.527 404.344 300.527 404.344C300.527 404.344 297.315 406.967 297.315 408.145C297.315 409.324 298.886 410.291 302.513 409.813C306.141 409.335 309.156 408.823 309.722 405.044C310.38 400.598 310.403 400.064 311.789 398.608C313.176 397.152 312.644 394.162 310.796 393.361Z" fill="#A02724"/>
<path d="M317.138 337.082L302.964 351.355L304.038 384.246L304.373 393.217C304.096 398.441 300.342 403.71 300.342 403.71C300.267 404.412 300.267 405.12 300.342 405.822H303.749C310.288 405.822 310.773 392.705 310.773 392.705L310.992 389.482C311.205 386.414 311.622 383.362 312.24 380.345C315.486 364.838 314.204 356.757 314.204 356.757L317.138 337.082Z" fill="#945959"/>
<path d="M310.773 392.75C310.773 392.75 309.271 393.784 308.89 397.53C308.824 398.968 308.421 400.372 307.711 401.639C307.001 402.906 306.002 404.001 304.789 404.844C303.403 405.622 300.342 403.732 300.342 403.732C300.342 403.732 297.084 406.356 297.084 407.534C297.084 408.712 298.678 409.679 302.363 409.19C306.048 408.701 308.451 408.079 309.133 404.321C309.814 400.564 309.826 399.686 311.235 398.23C312.644 396.774 313.545 395.44 310.773 392.75Z" fill="#A02724"/>
<path d="M327.303 321.62C327.303 321.62 332.294 328.289 332.132 344.085C332.016 356.234 331.612 358.791 331.612 358.791C327.268 362.64 321.564 364.751 315.659 364.694C309.791 364.694 302.571 359.136 302.571 359.136C302.571 359.136 302.675 345.019 303.022 339.316C303.406 333.686 304.342 328.103 305.817 322.642L327.303 321.62Z" fill="#A02724"/>
<path d="M282.644 295.92C282.499 295.43 282.402 294.927 282.356 294.419C282.368 293.317 281.928 292.255 281.131 291.463C280.3 290.351 280.773 289.44 279.976 289.239C279.179 289.039 278.636 291.607 279.502 292.796C278.623 292.229 277.898 291.466 277.388 290.573C276.834 289.362 275.875 287.561 275.078 287.239C274.281 286.916 271.497 290.084 272.641 293.019C273.784 295.953 278.763 298.921 278.763 298.921L282.644 295.92Z" fill="#945959"/>
<path d="M310.184 292.797H310.091C308.025 292.777 306.004 293.384 304.315 294.531L291.043 303.423L282.448 295.253C281.326 296.731 279.804 297.885 278.047 298.588L287.623 310.482C288.074 311.042 288.712 311.437 289.429 311.598C290.146 311.76 290.9 311.68 291.563 311.371L303.68 305.735L310.184 292.797Z" fill="#A02724"/>
<path d="M313.869 292.785H310.184C310.184 292.785 296.876 304.913 306.071 312.683C306.475 315.979 306.39 319.314 305.817 322.587C305.817 322.587 312.529 326.922 327.43 322.587L326.125 312.516L329.013 303.623L328.412 294.497C328.391 294.209 328.262 293.938 328.05 293.734C327.838 293.53 327.556 293.406 327.257 293.386L321.735 293.152L313.869 292.785Z" fill="#D68D91"/>
<path d="M314.111 291.774L312.09 292.885L308.312 298.566C308.215 298.717 308.151 298.886 308.125 299.062C308.099 299.238 308.112 299.417 308.162 299.588L309.236 303.179L308.809 303.668C308.604 303.903 308.461 304.183 308.391 304.482C308.32 304.782 308.325 305.093 308.405 305.391L309.317 308.67L313.684 305.835C313.988 305.638 314.23 305.363 314.381 305.041C314.532 304.719 314.586 304.363 314.539 304.012V303.701L320.118 301.767C320.312 301.7 320.487 301.589 320.627 301.444C320.768 301.299 320.871 301.124 320.927 300.933L323.237 293.263L321.678 292.152L314.111 291.774Z" fill="#A02724"/>
<path d="M321.643 274.222C321.643 275.842 321.144 277.426 320.208 278.773C319.273 280.121 317.943 281.171 316.388 281.791C314.832 282.411 313.12 282.573 311.469 282.257C309.817 281.941 308.3 281.161 307.11 280.015C305.919 278.869 305.108 277.409 304.78 275.82C304.451 274.231 304.62 272.584 305.264 271.087C305.908 269.59 307 268.311 308.4 267.41C309.8 266.51 311.446 266.03 313.129 266.03C314.248 266.028 315.356 266.239 316.389 266.65C317.423 267.062 318.362 267.665 319.153 268.426C319.944 269.187 320.571 270.091 320.998 271.085C321.425 272.08 321.645 273.146 321.643 274.222Z" fill="#A02724"/>
<path d="M333.761 286.005C333.761 286.911 333.482 287.796 332.959 288.549C332.436 289.302 331.692 289.889 330.823 290.236C329.953 290.583 328.996 290.673 328.073 290.496C327.15 290.32 326.302 289.884 325.636 289.243C324.971 288.603 324.517 287.787 324.334 286.898C324.15 286.01 324.244 285.089 324.604 284.252C324.965 283.415 325.575 282.7 326.357 282.197C327.14 281.694 328.06 281.425 329.001 281.425C329.627 281.424 330.246 281.541 330.825 281.771C331.403 282 331.928 282.338 332.37 282.763C332.812 283.189 333.163 283.694 333.402 284.25C333.64 284.807 333.762 285.403 333.761 286.005Z" fill="#A02724"/>
<path d="M327.549 285.557C329.512 283.668 329.808 280.892 328.211 279.355C326.614 277.818 323.729 278.103 321.766 279.992C319.804 281.88 319.508 284.656 321.105 286.193C322.702 287.73 325.587 287.445 327.549 285.557Z" fill="#A02724"/>
<path d="M325.49 270.554C325.818 270.194 326.063 269.771 326.206 269.313C326.35 268.854 326.389 268.371 326.321 267.897C326.183 266.119 327.927 267.408 328.077 268.431C328.06 269.046 327.862 269.644 327.507 270.155C327.151 270.667 326.652 271.071 326.067 271.321L325.49 270.554Z" fill="#A02724"/>
<path d="M326.079 270.909C326.575 270.936 327.071 270.859 327.533 270.684C327.996 270.51 328.414 270.241 328.759 269.898C330.122 268.697 330.145 270.809 329.406 271.554C328.901 271.914 328.302 272.132 327.675 272.183C327.049 272.234 326.42 272.117 325.859 271.843L326.079 270.909Z" fill="#A02724"/>
<path d="M313.869 288.161V292.785C313.869 292.785 310.311 303.901 311.478 303.09C314.943 300.744 320.072 295.031 321.377 293.552C321.585 293.32 321.699 293.025 321.701 292.719V283.826L313.869 288.161Z" fill="#945959"/>
<path d="M321.608 282.303V282.57C319.864 289.239 315.336 290.629 313.869 290.974V280.725H321.435L321.608 282.303Z" fill="black"/>
<path d="M315.186 267.475C312.685 267.629 310.346 268.718 308.668 270.508C306.989 272.297 306.103 274.647 306.198 277.057C306.106 284.382 307.273 289.973 311.223 290.207C314.694 290.122 317.998 288.755 320.45 286.389C322.901 284.024 324.313 280.841 324.392 277.501C324.808 267.986 317.993 267.252 315.186 267.475Z" fill="#945959"/>
<path d="M311.524 280.002L311.593 284.304L308.971 283.57L311.524 280.002Z" fill="black"/>
<path d="M315.451 279.891C315.454 280.065 315.402 280.236 315.303 280.382C315.204 280.528 315.063 280.642 314.896 280.71C314.729 280.778 314.546 280.797 314.368 280.765C314.19 280.732 314.026 280.649 313.898 280.527C313.769 280.405 313.681 280.248 313.645 280.078C313.608 279.907 313.626 279.73 313.695 279.569C313.763 279.408 313.88 279.27 314.031 279.173C314.181 279.076 314.358 279.024 314.539 279.024C314.658 279.023 314.776 279.044 314.887 279.087C314.998 279.13 315.098 279.193 315.183 279.274C315.268 279.355 315.336 279.451 315.382 279.557C315.428 279.663 315.451 279.776 315.451 279.891Z" fill="#A02724"/>
<path d="M309.456 279.358C309.458 279.473 309.436 279.587 309.391 279.694C309.347 279.802 309.281 279.899 309.197 279.982C309.113 280.064 309.014 280.13 308.903 280.176C308.793 280.221 308.675 280.245 308.555 280.247C308.436 280.248 308.317 280.227 308.207 280.184C308.096 280.141 307.995 280.077 307.91 279.997C307.826 279.916 307.758 279.82 307.712 279.714C307.666 279.608 307.642 279.495 307.642 279.38C307.628 279.257 307.641 279.132 307.68 279.015C307.719 278.897 307.783 278.788 307.869 278.696C307.954 278.604 308.059 278.53 308.176 278.48C308.294 278.429 308.421 278.403 308.549 278.403C308.678 278.403 308.805 278.429 308.922 278.48C309.039 278.53 309.144 278.604 309.23 278.696C309.315 278.788 309.38 278.897 309.419 279.015C309.458 279.132 309.471 279.257 309.456 279.38V279.358Z" fill="#A02724"/>
<path d="M307.411 277.557L309.179 276.523C309.179 276.523 308.486 275.845 307.804 276.267C307.611 276.419 307.471 276.623 307.4 276.854C307.33 277.084 307.334 277.329 307.411 277.557Z" fill="#A02724"/>
<path d="M311.015 285.771C311.938 285.349 312.833 284.874 313.695 284.349C313.695 284.349 314.273 285.76 313.072 286.338C312.714 286.487 312.313 286.512 311.938 286.409C311.563 286.305 311.237 286.08 311.015 285.771Z" fill="black"/>
<path d="M307.411 277.557L309.179 276.523C309.179 276.523 308.486 275.845 307.804 276.267C307.611 276.419 307.471 276.623 307.4 276.854C307.33 277.084 307.334 277.329 307.411 277.557Z" fill="#A02724"/>
<path d="M319.344 278.779C319.344 278.779 318.871 282.603 321.724 282.603L322.417 279.18L319.344 278.779Z" fill="#A02724"/>
<path d="M319.564 279.902C319.564 279.902 308.162 277.99 308.162 267.408C308.162 264.207 310.207 261.972 314.862 265.296C319.518 268.62 328.955 266.074 328.955 278.124C328.975 280.267 328.284 282.361 326.984 284.102C325.684 285.843 323.842 287.14 321.724 287.805V280.213L319.564 279.902Z" fill="#A02724"/>
<path d="M321.585 282.214C321.572 281.524 321.722 280.84 322.024 280.213C322.162 279.831 322.414 279.496 322.749 279.251C323.084 279.005 323.487 278.861 323.907 278.835C324.253 278.838 324.595 278.912 324.908 279.052C325.222 279.193 325.501 279.396 325.727 279.649C325.952 279.902 326.119 280.198 326.215 280.518C326.312 280.837 326.336 281.173 326.287 281.503C326.198 282.606 325.665 283.632 324.802 284.362C323.939 285.093 322.814 285.471 321.666 285.416L321.585 282.214Z" fill="#945959"/>
<path d="M323.722 306.213L318.224 305.669V304.668L323.722 305.213V306.213Z" fill="#A02724"/>
<path d="M308.474 311.171H306.233C306.233 310.581 305.99 310.016 305.556 309.599C305.123 309.182 304.535 308.948 303.923 308.948C303.31 308.948 302.722 309.182 302.289 309.599C301.856 310.016 301.612 310.581 301.612 311.171H300.284C300.144 311.17 300.005 311.201 299.88 311.261C299.755 311.322 299.646 311.409 299.563 311.518C299.48 311.626 299.424 311.752 299.401 311.885C299.378 312.018 299.387 312.154 299.429 312.283L300.111 314.383H310.184L309.329 311.76C309.27 311.587 309.155 311.437 309.001 311.331C308.848 311.225 308.663 311.169 308.474 311.171Z" fill="#A02724"/>
<path opacity="0.7" d="M308.474 311.171H306.233C306.233 310.581 305.99 310.016 305.556 309.599C305.123 309.182 304.535 308.948 303.923 308.948C303.31 308.948 302.722 309.182 302.289 309.599C301.856 310.016 301.612 310.581 301.612 311.171H300.284C300.144 311.17 300.005 311.201 299.88 311.261C299.755 311.322 299.646 311.409 299.563 311.518C299.48 311.626 299.424 311.752 299.401 311.885C299.378 312.018 299.387 312.154 299.429 312.283L300.111 314.383H310.184L309.329 311.76C309.27 311.587 309.155 311.437 309.001 311.331C308.848 311.225 308.663 311.169 308.474 311.171Z" fill="black"/>
<path d="M315.197 312.294L320.811 332.68L302.721 332.758L295.744 312.494L315.197 312.294Z" fill="#A02724"/>
<path opacity="0.3" d="M315.197 312.294L320.811 332.68L302.721 332.758L295.744 312.494L315.197 312.294Z" fill="black"/>
<path d="M308.474 312.082H306.233C306.233 311.493 305.99 310.927 305.556 310.51C305.123 310.094 304.535 309.859 303.923 309.859C303.31 309.859 302.722 310.094 302.289 310.51C301.856 310.927 301.612 311.493 301.612 312.082H300.284C300.144 312.082 300.005 312.112 299.88 312.173C299.755 312.233 299.646 312.321 299.563 312.429C299.48 312.538 299.424 312.663 299.401 312.796C299.378 312.929 299.387 313.065 299.429 313.194L299.752 314.217H309.814L309.329 312.672C309.27 312.499 309.155 312.348 309.001 312.242C308.848 312.137 308.663 312.081 308.474 312.082Z" fill="#A02724"/>
<path opacity="0.5" d="M308.474 312.082H306.233C306.233 311.493 305.99 310.927 305.556 310.51C305.123 310.094 304.535 309.859 303.923 309.859C303.31 309.859 302.722 310.094 302.289 310.51C301.856 310.927 301.612 311.493 301.612 312.082H300.284C300.144 312.082 300.005 312.112 299.88 312.173C299.755 312.233 299.646 312.321 299.563 312.429C299.48 312.538 299.424 312.663 299.401 312.796C299.378 312.929 299.387 313.065 299.429 313.194L299.752 314.217H309.814L309.329 312.672C309.27 312.499 309.155 312.348 309.001 312.242C308.848 312.137 308.663 312.081 308.474 312.082Z" fill="black"/>
<path d="M322.821 319.941C321.836 320.152 320.821 320.205 319.818 320.097C318.663 319.875 318.663 318.874 316.953 318.908L317.508 321.131C315.822 321.443 314.102 321.544 312.39 321.431C310.08 321.175 310.865 323.132 311.235 323.654C311.605 324.176 313.153 327.256 316.456 326.989C319.085 326.658 321.681 326.122 324.219 325.388C324.471 324.44 324.475 323.446 324.231 322.496C323.987 321.545 323.503 320.668 322.821 319.941Z" fill="#945959"/>
<path d="M327.303 293.419C328.867 293.44 330.383 293.935 331.638 294.833C332.893 295.731 333.821 296.986 334.292 298.421L339.895 315.428C340.118 316.1 340.198 316.808 340.132 317.511C340.065 318.213 339.853 318.896 339.507 319.518C339.161 320.14 338.689 320.689 338.119 321.132C337.548 321.575 336.891 321.904 336.187 322.098L324.196 325.433C324.247 323.535 323.773 321.659 322.821 319.997L332.201 316.173L326.541 301.789C326.052 300.602 325.782 299.342 325.744 298.065C325.673 297.23 325.775 296.39 326.043 295.593C326.31 294.795 326.739 294.057 327.303 293.419Z" fill="#A02724"/>
<path d="M326.564 323.476C326.566 323.595 326.532 323.712 326.464 323.813C326.397 323.913 326.301 323.991 326.187 324.039C326.073 324.086 325.947 324.099 325.826 324.077C325.704 324.055 325.592 323.999 325.503 323.916C325.415 323.832 325.354 323.725 325.329 323.609C325.304 323.492 325.316 323.371 325.363 323.26C325.41 323.15 325.49 323.055 325.592 322.989C325.695 322.923 325.816 322.887 325.94 322.887C326.104 322.887 326.26 322.949 326.377 323.059C326.494 323.169 326.561 323.319 326.564 323.476Z" fill="#A02724"/>
<path d="M328.666 322.954C328.669 323.073 328.634 323.191 328.566 323.291C328.498 323.392 328.401 323.47 328.287 323.517C328.172 323.564 328.046 323.577 327.924 323.554C327.802 323.531 327.69 323.474 327.602 323.389C327.514 323.305 327.454 323.197 327.43 323.079C327.407 322.962 327.42 322.84 327.469 322.73C327.517 322.62 327.599 322.526 327.703 322.461C327.808 322.396 327.93 322.362 328.054 322.365C328.216 322.367 328.37 322.43 328.484 322.54C328.598 322.65 328.663 322.798 328.666 322.954Z" fill="#A02724"/>
<path d="M280.242 299.711C280.089 299.784 279.911 299.796 279.749 299.744C279.586 299.692 279.452 299.58 279.376 299.433C279.299 299.285 279.286 299.115 279.341 298.958C279.395 298.802 279.511 298.673 279.664 298.599C279.818 298.525 279.995 298.513 280.157 298.565C280.32 298.617 280.454 298.729 280.531 298.877C280.607 299.024 280.62 299.195 280.566 299.351C280.512 299.508 280.395 299.637 280.242 299.711Z" fill="#A02724"/>
<path d="M281.721 301.256C281.612 301.312 281.488 301.336 281.366 301.325C281.243 301.314 281.126 301.267 281.03 301.192C280.935 301.117 280.864 301.016 280.828 300.903C280.792 300.789 280.792 300.668 280.828 300.554C280.863 300.44 280.933 300.339 281.028 300.264C281.124 300.188 281.24 300.142 281.363 300.13C281.486 300.118 281.61 300.142 281.719 300.198C281.827 300.254 281.917 300.339 281.975 300.444C282.053 300.584 282.07 300.748 282.022 300.9C281.974 301.053 281.866 301.18 281.721 301.256Z" fill="#A02724"/>
<path d="M237.697 395.996C237.697 395.996 236.681 396.529 236.542 398.619C236.404 400.709 234.394 404.61 239.049 404.766C243.704 404.922 243.057 405.155 244.952 405.878C246.846 406.6 250.947 408.268 254.193 406.044C257.439 403.821 253.696 402.643 252.333 402.198C249.913 401.43 247.613 400.349 245.495 398.986C244.64 398.437 243.863 397.783 243.184 397.041L237.697 395.996Z" fill="#A02724"/>
<path d="M222.68 401.198C222.68 401.198 221.883 401.42 221.848 402.954C221.814 404.488 220.555 406.822 222.264 408.212C223.974 409.601 224.24 409.424 225.279 411.547C225.915 413.096 227.131 414.361 228.688 415.091C230.244 415.822 232.028 415.965 233.689 415.493C238.668 414.437 235.526 411.558 235.11 411.135C234.694 410.713 229.819 406.078 229.334 404.555C229.042 403.714 228.675 402.9 228.237 402.121L222.68 401.198Z" fill="#A02724"/>
<path d="M222.68 399.286V402.121C222.68 402.121 223.038 403.443 225.764 403.443C227.232 403.443 228.19 402.61 228.213 402.121V399.008L222.68 399.286Z" fill="#FFA8A7"/>
<path d="M237.697 394.228V397.052C237.697 397.052 238.055 398.386 240.782 398.386C242.249 398.386 243.219 397.541 243.242 397.052V393.95L237.697 394.228Z" fill="#FFA8A7"/>
<path d="M246.015 328.145L248.094 360.859C248.188 362.402 248.126 363.951 247.909 365.483L243.577 395.751C242.52 396.164 241.369 396.302 240.239 396.149C239.109 395.997 238.041 395.561 237.143 394.884L235.456 370.685C235.308 368.646 235.595 366.599 236.3 364.671L236.97 362.848L230.894 330.412L246.015 328.145Z" fill="#D68D91"/>
<path d="M241.844 336.704C241.844 336.704 240.816 340.572 235.676 342.962L234.648 350.254L232.418 338.382L241.844 336.704Z" fill="#A02724"/>
<path d="M243.473 329.468C243.473 329.468 244.201 335.659 239.222 339.672C237.848 340.845 236.166 341.633 234.359 341.951L232.707 364.938L228.71 400.864C228.71 400.864 226.296 402.81 221.837 400.864L219.723 373.942C219.49 370.92 220.058 367.891 221.375 365.138L221.467 364.938C220.365 352.987 219.979 340.984 220.312 328.99L243.473 329.468Z" fill="#D68D91"/>
<path d="M250.323 305.68L252.125 309.126C252.125 309.126 260.211 311.882 264.994 311.782L267.062 316.618C263.218 316.893 259.359 316.934 255.51 316.74C249.884 316.395 249.053 316.251 247.424 314.194C245.795 312.138 243.288 308.37 243.288 308.37L250.323 305.68Z" fill="#FFA8A7"/>
<path d="M264.994 311.782C265.43 311.495 265.836 311.167 266.207 310.804C266.56 310.375 266.998 310.018 267.496 309.753C267.994 309.487 268.541 309.32 269.106 309.259C270.458 308.937 270.712 307.914 271.417 308.259C272.121 308.603 270.885 310.904 269.43 311.293C270.476 311.401 271.535 311.264 272.514 310.893C273.738 310.293 275.668 309.481 276.453 309.781C277.239 310.082 277.343 314.172 274.524 315.728C271.705 317.285 265.895 316.551 265.895 316.551L264.994 311.782Z" fill="#FFA8A7"/>
<path d="M237.697 290.218C238.965 289.973 240.28 290.127 241.45 290.657C242.619 291.188 243.579 292.066 244.189 293.163L251.016 305.468C251.016 305.468 249.191 309.226 243.254 309.415L237.697 290.218Z" fill="#A02724"/>
<path opacity="0.5" d="M237.697 290.218C238.965 289.973 240.28 290.127 241.45 290.657C242.619 291.188 243.579 292.066 244.189 293.163L251.016 305.468C251.016 305.468 249.191 309.226 243.254 309.415L237.697 290.218Z" fill="black"/>
<path d="M220.613 311.76L218.568 316.818L216.431 333.925L211.279 335.492C211.279 335.492 210.84 325.199 211.06 318.285C211.117 316.434 211.475 314.604 212.122 312.86L213.566 308.97L220.613 311.76Z" fill="#FFA8A7"/>
<path d="M228.063 291.918L221.583 293.708L220.37 311.149V328.99C220.37 328.99 224.401 332.324 233.978 332.324C238.378 332.239 242.625 330.758 246.061 328.111V305.68C246.061 303.668 246.892 292.141 237.778 290.118L236.219 290.418L228.063 291.918Z" fill="#A02724"/>
<path opacity="0.3" d="M228.063 291.918L221.583 293.708L220.37 311.149V328.99C220.37 328.99 224.401 332.324 233.978 332.324C238.378 332.239 242.625 330.758 246.061 328.111V305.68C246.061 303.668 246.892 292.141 237.778 290.118L236.219 290.418L228.063 291.918Z" fill="black"/>
<path d="M225.245 292.696C225.245 292.696 227.417 294.764 225.857 300.544C224.578 304.921 223.035 309.223 221.236 313.427C219.613 313.722 217.936 313.588 216.386 313.037C214.836 312.487 213.47 311.543 212.434 310.304L217.055 298.076C217.445 297.014 218.092 296.056 218.944 295.283C219.796 294.509 220.827 293.943 221.953 293.63L225.245 292.696Z" fill="#A02724"/>
<path opacity="0.5" d="M225.245 292.696C225.245 292.696 227.417 294.764 225.857 300.544C224.578 304.921 223.035 309.223 221.236 313.427C219.613 313.722 217.936 313.588 216.386 313.037C214.836 312.487 213.47 311.543 212.434 310.304L217.055 298.076C217.445 297.014 218.092 296.056 218.944 295.283C219.796 294.509 220.827 293.943 221.953 293.63L225.245 292.696Z" fill="black"/>
<path d="M216.431 333.925C216.702 334.36 217.015 334.769 217.366 335.148C218.207 335.895 218.713 336.927 218.776 338.027C219.018 339.349 220.07 339.661 219.665 340.339C219.261 341.017 216.951 339.661 216.65 338.238C216.466 339.236 216.537 340.262 216.858 341.228C217.401 342.44 218.129 344.352 217.805 345.085C217.482 345.819 213.185 345.652 211.764 342.862C210.343 340.072 211.464 334.536 211.464 334.536L216.431 333.925Z" fill="#FFA8A7"/>
<path d="M243.635 269.987C243.635 269.987 245.148 271.476 245.148 275.4C245.148 279.324 241.775 282.714 241.775 282.714V270.209L243.635 269.987Z" fill="#A02724"/>
<path d="M243.635 271.009C244.287 270.642 244.837 270.129 245.239 269.514C245.641 268.899 245.883 268.199 245.945 267.475C246.153 264.974 244.628 265.874 244.108 266.085C243.589 266.296 242.006 266.852 242.006 266.852C242.006 266.852 243.45 265.407 242.595 264.44C241.96 263.729 238.875 265.974 234.994 266.419C231.113 266.863 227.37 266.83 226.273 270.176C226.273 270.176 222.518 270.898 223.419 277.234C224.32 283.57 226.885 287.239 228.04 287.172L243.635 271.009Z" fill="#A02724"/>
<path d="M228.063 291.918L231.459 293.986C232.208 294.446 233.075 294.698 233.963 294.716C234.851 294.734 235.728 294.516 236.496 294.086C236.797 293.92 237.048 293.682 237.227 293.397C237.407 293.111 237.507 292.786 237.52 292.452C237.533 292.119 237.457 291.788 237.3 291.49C237.143 291.193 236.91 290.938 236.623 290.751L236.172 290.473V281.458H228.086L228.063 291.918Z" fill="#FFA8A7"/>
<path d="M236.173 290.473C234.414 290.238 232.767 289.505 231.442 288.367C230.118 287.228 229.175 285.737 228.733 284.082V281.458H236.173V290.473Z" fill="#F28F8F"/>
<path d="M238.067 268.664C238.067 268.664 245.784 268.942 244.386 280.891C243.739 286.516 243.231 289.617 238.252 289.617C233.273 289.617 225.88 285.994 226.354 276.345C226.827 266.697 238.067 268.664 238.067 268.664Z" fill="#FFA8A7"/>
<path d="M238.841 278.524V282.714L241.394 281.959L238.841 278.524Z" fill="#F28F8F"/>
<path d="M235.121 279.246C235.121 279.416 235.174 279.582 235.272 279.723C235.37 279.864 235.51 279.974 235.673 280.038C235.836 280.103 236.016 280.119 236.189 280.085C236.361 280.051 236.52 279.968 236.644 279.848C236.768 279.727 236.852 279.573 236.885 279.406C236.918 279.24 236.898 279.067 236.829 278.911C236.76 278.755 236.644 278.622 236.497 278.529C236.349 278.437 236.176 278.388 235.999 278.39C235.765 278.393 235.542 278.485 235.378 278.645C235.213 278.805 235.121 279.021 235.121 279.246Z" fill="#A02724"/>
<path d="M240.955 278.646C240.955 278.815 241.007 278.981 241.105 279.122C241.202 279.262 241.341 279.372 241.504 279.437C241.666 279.502 241.845 279.519 242.018 279.486C242.19 279.453 242.349 279.371 242.473 279.251C242.598 279.132 242.682 278.979 242.717 278.813C242.751 278.647 242.733 278.475 242.666 278.319C242.599 278.162 242.485 278.028 242.338 277.934C242.192 277.84 242.02 277.79 241.844 277.79C241.608 277.79 241.382 277.88 241.215 278.041C241.049 278.201 240.955 278.419 240.955 278.646Z" fill="#A02724"/>
<path d="M242.93 276.879L241.163 275.878C241.163 275.878 241.833 275.211 242.503 275.611C242.7 275.755 242.846 275.954 242.923 276.181C242.999 276.407 243.002 276.651 242.93 276.879Z" fill="#A02724"/>
<path d="M235.537 276.579L233.978 277.812C233.978 277.812 233.55 276.979 234.174 276.512C234.379 276.382 234.622 276.319 234.867 276.331C235.112 276.343 235.347 276.43 235.537 276.579Z" fill="#A02724"/>
<path d="M238.437 284.66C238.437 284.66 235.272 283.882 236.045 284.048C236.045 284.048 235.884 285.26 236.935 285.493C237.247 285.544 237.567 285.488 237.841 285.336C238.115 285.184 238.326 284.945 238.437 284.66Z" fill="#F28F8F"/>
<path d="M243.635 271.01C243.635 271.01 241.174 273.233 234.856 272.777C228.537 272.321 229.08 274 229.784 276.845C230.258 278.802 230.304 284.004 228.733 281.458H225.603V275.445C225.603 274.436 225.809 273.437 226.21 272.505C226.612 271.573 227.199 270.727 227.941 270.013C228.682 269.3 229.562 268.734 230.53 268.348C231.499 267.962 232.537 267.764 233.585 267.764H240.008L243.635 271.01Z" fill="#A02724"/>
<path d="M228.803 281.147C228.803 281.147 228.491 278.268 226.411 278.213C226.045 278.213 225.683 278.288 225.349 278.434C225.015 278.579 224.718 278.792 224.476 279.057C224.234 279.322 224.054 279.634 223.948 279.971C223.841 280.309 223.811 280.664 223.859 281.014C223.942 282.178 224.492 283.266 225.393 284.048C226.293 284.83 227.475 285.245 228.687 285.204L228.803 281.147Z" fill="#FFA8A7"/>
<path d="M226.307 270.209C226.307 270.209 224.713 268.164 225.741 267.319C226.77 266.474 227.243 269.976 227.243 269.976L226.307 270.209Z" fill="#A02724"/>
<path d="M226.446 270.854C226.446 270.854 223.789 270.854 223.731 269.52C223.674 268.186 226.827 269.998 226.827 269.998L226.446 270.854Z" fill="#A02724"/>
<path d="M393.968 56.7856L402.62 61.521V58.5753C402.62 58.3641 402.62 58.1529 402.62 57.9417C402.62 57.7305 402.62 57.5415 402.62 57.3525V57.2858C402.932 53.3731 406.004 51.8835 409.747 53.9511C411.445 54.9528 412.899 56.295 414.01 57.8861C414.853 52.5838 419.358 50.6719 424.787 53.6954C430.829 57.0302 435.715 65.2003 435.715 71.9142V78.2169C435.715 78.7171 435.85 79.2088 436.107 79.6434C436.364 80.0781 436.735 80.4408 437.182 80.6957L442.265 83.5636C443.369 84.1862 444.285 85.076 444.921 86.1446C445.558 87.2132 445.892 88.4235 445.892 89.6551C445.893 90.1651 445.753 90.6663 445.488 91.1081C445.223 91.5498 444.842 91.9166 444.383 92.1713C443.924 92.4261 443.403 92.5599 442.873 92.5591C442.343 92.5584 441.822 92.4232 441.364 92.1672L394.083 65.8895C392.83 65.1905 391.789 64.1871 391.065 62.9796C390.342 61.772 389.96 60.4027 389.959 59.0088C389.959 58.5573 390.082 58.1136 390.317 57.7226C390.551 57.3315 390.889 57.0069 391.295 56.7814C391.702 56.556 392.163 56.4377 392.632 56.4384C393.101 56.4391 393.562 56.5589 393.968 56.7856Z" fill="#E6E6E6"/>
<path d="M349.482 3.3297L355.882 6.83118V4.60802C355.882 4.4524 355.882 4.29678 355.882 4.15228C355.882 4.00777 355.882 3.85215 355.882 3.70764C356.113 0.817531 358.389 -0.294049 361.161 1.25105C362.422 1.98744 363.498 2.98173 364.315 4.16339C364.938 0.239509 368.265 -1.1722 372.285 1.06208C374.641 2.53612 376.601 4.52475 378.006 6.86594C379.411 9.20714 380.222 11.8347 380.371 14.5344V19.2031C380.372 19.5715 380.473 19.9333 380.663 20.2529C380.854 20.5725 381.127 20.839 381.457 21.0261L385.223 23.1492C386.033 23.6159 386.703 24.2775 387.167 25.0687C387.63 25.86 387.872 26.7538 387.868 27.6622C387.869 28.0395 387.766 28.4102 387.569 28.7368C387.373 29.0635 387.091 29.3347 386.751 29.523C386.412 29.7112 386.026 29.81 385.634 29.8092C385.242 29.8084 384.857 29.7082 384.518 29.5185L349.586 10.0992C348.656 9.58482 347.883 8.84323 347.345 7.94934C346.808 7.05546 346.525 6.04092 346.525 5.00819C346.52 4.67261 346.607 4.34164 346.777 4.04893C346.948 3.75623 347.196 3.51221 347.497 3.3417C347.797 3.17119 348.139 3.08026 348.488 3.07815C348.837 3.07604 349.18 3.16283 349.482 3.3297Z" fill="#E6E6E6"/>
<path d="M134.507 47.4039L125.855 52.1392V49.1935C125.855 48.9823 125.855 48.7711 125.855 48.571C125.855 48.371 125.855 48.1597 125.855 47.9708V47.893C125.543 43.9913 122.47 42.4907 118.716 44.5582C117.021 45.5644 115.571 46.9104 114.465 48.5043C113.61 43.2021 109.116 41.2791 103.687 44.3026C97.6456 47.6373 92.7592 55.8074 92.7592 62.5214V68.8351C92.7598 69.3339 92.6247 69.8242 92.3674 70.2571C92.11 70.69 91.7393 71.0506 91.2922 71.3029L86.1979 74.1707C85.0965 74.7956 84.1837 75.6862 83.5495 76.7545C82.9154 77.8228 82.582 79.0319 82.5823 80.2622C82.5832 80.7719 82.7232 81.2724 82.9881 81.7138C83.2531 82.1551 83.6338 82.5218 84.0921 82.7772C84.5505 83.0326 85.0705 83.1678 85.6002 83.1693C86.1298 83.1707 86.6506 83.0384 87.1105 82.7855L134.391 56.4966C135.647 55.8003 136.69 54.7974 137.414 53.5893C138.138 52.3812 138.518 51.0106 138.515 49.6159C138.514 49.1654 138.389 48.7231 138.153 48.3336C137.918 47.9441 137.58 47.6211 137.174 47.3969C136.768 47.1728 136.308 47.0554 135.84 47.0566C135.371 47.0579 134.912 47.1776 134.507 47.4039Z" fill="#E6E6E6"/>
</svg>
