<svg width="585" height="378" viewBox="0 0 585 378" fill="none" xmlns="http://www.w3.org/2000/svg">
<path d="M292.36 378C417.646 378 519.211 372.864 519.211 366.528C519.211 360.193 417.646 355.056 292.36 355.056C167.073 355.056 65.5083 360.193 65.5083 366.528C65.5083 372.864 167.073 378 292.36 378Z" fill="#F5F5F5"/>
<path d="M174.739 35.4892C174.739 35.4892 172.481 30.706 158.57 32.1247C144.659 33.5435 143.22 49.4945 136.27 60.8345C129.32 72.1745 121.937 77.6773 121.937 77.6773C121.937 77.6773 120.92 84.5887 136.059 88.4903C151.199 92.3919 180.87 85.8757 180.87 85.8757C180.87 85.8757 184.708 55.6864 179.01 46.4745C173.312 37.2627 174.739 35.4892 174.739 35.4892Z" fill="black"/>
<path d="M215.409 337.049L196.56 338.062C196.56 338.062 188.569 275.15 179.771 229.344C179.771 229.192 179.771 229.02 179.689 228.847C176.085 210.15 172.353 194.392 168.983 187.004C168.983 187.004 164.654 245.65 163.367 271.684C162.08 297.718 156.078 343.271 156.078 343.271L138.657 345.511C138.657 345.511 135.779 254.831 137.487 237.705C139.195 220.578 131.414 157.139 144.823 141.431H193.319C193.319 141.431 212.098 230.55 213.455 255.257C214.812 279.964 215.409 337.049 215.409 337.049Z" fill="black"/>
<path d="M151.983 343.473L151.702 348.338L151.047 359.596L141.289 360.853L141.067 348.702L140.985 344.031L151.983 343.473Z" fill="#FFC3BD"/>
<path d="M211.22 355.806L200.304 358.441C200.304 358.441 200.046 352.756 199.789 347.294C199.625 343.777 199.461 340.352 199.356 338.599C199.356 337.92 199.286 337.504 199.262 337.413L211.033 336.4V339.602L211.115 346.838L211.22 355.806Z" fill="#FFC3BD"/>
<path d="M154.979 357.104C154.979 357.104 156.793 350.81 159.659 351.124C162.526 351.439 154.979 357.104 154.979 357.104Z" stroke="#A93339" stroke-miterlimit="10"/>
<path d="M155.797 357.104C155.797 357.104 162.618 352.939 163.882 355.077C165.146 357.215 155.797 357.104 155.797 357.104Z" stroke="#A93339" stroke-miterlimit="10"/>
<path d="M215.409 357.742C215.409 357.742 216.93 351.084 218.65 351.084C220.369 351.084 215.409 357.742 215.409 357.742Z" stroke="#A93339" stroke-miterlimit="10"/>
<path d="M215.047 359.809C215.047 359.809 219.048 352.989 221.143 354.459C223.237 355.928 215.047 359.809 215.047 359.809Z" stroke="#A93339" stroke-miterlimit="10"/>
<path d="M163.497 365.272C163.497 365.272 142.694 365.738 141.185 365.576C139.675 365.414 138.002 365.343 137.885 363.924C137.885 363.235 138.599 359.049 138.716 357.59C138.833 356.131 138.412 355.371 140.529 354.905C142.647 354.438 152.931 353.405 154.172 354.509C155.412 355.614 159.647 359.82 162.783 360.306C165.918 360.792 168.551 360.6 168.773 362.14C168.996 363.681 169.066 365.16 163.497 365.272Z" fill="black"/>
<path d="M223.388 365.272C223.388 365.272 202.597 365.738 201.076 365.576C199.555 365.414 198.058 365.018 197.812 364.36C197.566 363.701 198.502 359.049 198.608 357.59C198.713 356.131 198.304 355.371 200.421 354.905C202.539 354.438 212.823 353.405 214.063 354.509C215.304 355.614 219.539 359.82 222.686 360.306C225.834 360.792 228.443 360.6 228.665 362.14C228.887 363.681 228.958 365.16 223.388 365.272Z" fill="black"/>
<path opacity="0.3" d="M179.688 228.837C176.085 210.14 172.353 194.381 168.983 186.994L171.218 176.373C171.218 176.373 177.009 214.274 179.688 228.837Z" fill="#EBEBEB"/>
<path opacity="0.2" d="M151.96 343.473L151.679 348.338C148.941 348.429 143.489 348.601 141.044 348.702L140.962 344.031L151.96 343.473Z" fill="#EBEBEB"/>
<path opacity="0.2" d="M211.139 346.828L199.79 347.294C199.626 343.777 199.462 340.352 199.357 338.599L211.057 339.612L211.139 346.828Z" fill="#EBEBEB"/>
<path d="M218.626 336.39L216.883 344.102L196.104 345.5L193.378 336.39H218.626Z" fill="#A93339"/>
<path d="M158.874 338.903L157.049 346.523L135.357 347.415L135.368 338.903H158.874Z" fill="#A93339"/>
<path d="M223.213 117.889C218.533 119.825 205.663 121.943 205.663 121.943C205.663 121.943 197.239 103.083 195.016 92.3615C194.318 88.5284 192.204 84.9947 188.991 82.2904C185.779 79.5862 181.64 77.8572 177.197 77.3631C171.51 76.7246 147.502 76.9375 139.078 78.4373C130.654 79.9371 129.191 90.6488 128.443 97.0839C127.694 103.519 123.002 127.486 126.957 134.58C130.911 141.674 144.776 138.856 144.776 138.856V141.431H193.284L192.114 121.77C192.114 121.77 196.7 132.209 203.814 132.634C210.928 133.06 227.074 122.784 227.074 122.784L223.213 117.889ZM137.803 128.885C137.803 128.885 138.341 116.643 139.3 113.116L140.763 119.652L142.822 128.885H137.803Z" fill="#A93339"/>
<path d="M168.655 126.108L176.283 118.112L186.989 116.694L188.627 124.933L180.437 127.527C180.437 127.527 176.494 131.641 168.62 130.932L168.655 126.108Z" fill="#FFC3BD"/>
<path d="M223.213 117.889L227.179 111.586L236.855 108.059L240.517 116.643L232.503 119.349C232.503 119.349 230.409 123.341 227.179 122.825L223.213 117.889Z" fill="#FFC3BD"/>
<path d="M168.82 69.6816C168.767 70.4106 168.767 71.1416 168.82 71.8706C168.937 73.2589 168.633 75.8026 171.78 77.1403C170.154 80.1805 166.234 87.8013 163.859 90.3855C160.244 87.8216 151.75 77.4747 151.75 77.4747C151.75 77.4747 157.717 71.8706 153.434 61.3109C153.434 61.3109 147.421 57.5005 148.626 55.4028C150.006 52.9604 153.926 54.2779 154.756 55.3115C153.879 54.1968 149.796 41.965 154.756 37.4655C157.845 34.6584 160.934 34.628 166.69 34.4253H167.17C170.856 34.3138 173.593 34.4253 173.593 34.4253C174.845 35.5927 175.947 36.8737 176.881 38.2458C179.492 41.9372 181.093 46.0969 181.561 50.4067C182.649 60.4495 180.368 68.5871 168.82 69.6816Z" fill="#FFC3BD"/>
<path d="M172.002 57.1967C172.002 57.1967 166.76 58.7371 164.853 55.2915" stroke="black" stroke-width="0.5" stroke-linecap="round" stroke-linejoin="round"/>
<path d="M165.673 42.7049C164.796 42.6826 163.93 42.874 163.172 43.2575C162.415 43.6409 161.798 44.2009 161.39 44.8736" stroke="black" stroke-linecap="round" stroke-linejoin="round"/>
<path d="M179.011 41.6607C178.586 41.2581 178.072 40.9339 177.499 40.7075C176.926 40.4812 176.306 40.3573 175.676 40.3433" stroke="black" stroke-linecap="round" stroke-linejoin="round"/>
<path d="M174.19 55.3323L173.16 47.7419L178.32 53.4777C178.32 53.4777 177.817 55.4539 174.19 55.3323Z" fill="#FF5652"/>
<path d="M165.718 47.8021C165.777 48.5723 166.303 49.1702 166.888 49.1398C167.473 49.1094 167.883 48.4507 167.813 47.6704C167.742 46.8901 167.239 46.3023 166.643 46.3428C166.046 46.3834 165.648 47.0623 165.718 47.8021Z" fill="black"/>
<path d="M175.92 46.536C175.99 47.3163 176.505 47.9142 177.09 47.8737C177.675 47.8332 178.085 47.1846 178.015 46.4042C177.944 45.6239 177.43 45.0362 176.845 45.0767C176.26 45.1172 175.862 45.7658 175.92 46.536Z" fill="black"/>
<path d="M151.2 49.6977C151.2 49.6977 145.221 42.7559 150.158 38.2564C153.247 35.4492 161.554 33.615 167.299 33.4022C167.17 34.5777 167.299 44.8739 151.2 49.6977Z" fill="black"/>
<path d="M176.975 38.2764C173.301 37.955 169.854 36.5903 167.17 34.3951L166.714 33.9796C169.018 33.8971 171.326 34.0399 173.593 34.4052C174.844 35.5727 175.947 36.8536 176.881 38.2257L176.975 38.2764Z" fill="black"/>
<path opacity="0.2" d="M168.854 71.8708C166.311 71.2011 164.055 69.8925 162.372 68.111C164.387 68.9821 166.575 69.5151 168.819 69.6818C168.778 70.4114 168.79 71.1424 168.854 71.8708Z" fill="#EBEBEB"/>
<path opacity="0.2" d="M140.775 119.653L139.312 113.116V103.732C139.312 103.732 140.997 113.633 140.775 119.653Z" fill="#EBEBEB"/>
<path d="M355.797 89.293L270.511 93.4748L274.227 150.327L359.512 146.145L355.797 89.293Z" fill="#A93339"/>
<path opacity="0.3" d="M355.797 89.293L270.511 93.4748L274.227 150.327L359.512 146.145L355.797 89.293Z" fill="#EBEBEB"/>
<path d="M324.799 90.8183L239.514 95L243.23 151.852L328.515 147.67L324.799 90.8183Z" fill="#A93339"/>
<path opacity="0.3" d="M324.799 90.8183L239.514 95L243.23 151.852L328.515 147.67L324.799 90.8183Z" fill="white"/>
<path opacity="0.3" d="M335.349 95.7312L317.144 96.6774L317.513 101.998L335.718 101.052L335.349 95.7312Z" fill="#EBEBEB"/>
<path opacity="0.5" d="M263.015 100.962L244.839 101.853L245.401 110.454L263.577 109.562L263.015 100.962Z" fill="white"/>
<path opacity="0.3" d="M269.363 123.389L241.468 124.757L241.906 131.465L269.801 130.097L269.363 123.389Z" fill="#EBEBEB"/>
<path d="M380.437 42.4309L375.757 47.5993C377.054 48.3832 378.544 48.8934 380.109 49.089L380.437 42.4309Z" fill="#A02724"/>
<path d="M461.214 359.404L447.619 358.735L444.858 348.692L443.348 343.189L442.787 341.163L453.246 340.544L453.995 340.494L456.218 346.321L461.214 359.404Z" fill="#B55B52"/>
<path d="M383.035 361.056C383.293 361.856 370.411 360.427 370.411 360.427L369.955 351.053L369.604 343.818V343.423H369.709L382.789 344.547C382.789 344.547 382.789 347.588 382.789 351.043C382.813 355.482 382.883 360.62 383.035 361.056Z" fill="#B55B52"/>
<path d="M410.319 69.6107C410.319 69.6107 391.95 73.9177 393.308 70.7964C393.991 68.9072 394.265 66.9246 394.115 64.9491C394.115 63.6519 393.928 62.7297 393.928 62.7297C387.282 63.0641 382.813 58.899 380.824 53.7712C378.261 47.1942 379.197 39.847 382.31 33.6045C382.555 33.0978 383.257 30.9493 383.877 30.6859L391.085 27.8078C391.085 27.8078 398.105 31.7905 401.755 34.2632C405.405 36.7359 408.342 48.2279 408.342 57.1661C408.342 66.1044 410.319 69.6107 410.319 69.6107Z" fill="#B55B52"/>
<path d="M379.887 40.5365C379.563 40.6134 379.275 40.7774 379.064 41.005C378.854 41.2326 378.733 41.5121 378.717 41.8033C378.669 42.0738 378.717 42.3505 378.855 42.5967C378.993 42.8429 379.214 43.0469 379.49 43.1815L379.887 40.5365Z" fill="black"/>
<path d="M379.887 35.3882C380.651 35.3734 381.404 35.5531 382.051 35.905" stroke="black" stroke-linecap="round" stroke-linejoin="round"/>
<path d="M386.275 51.8357C386.275 51.8357 391.61 59.0512 400.104 60.703C408.599 62.3549 411.278 59.8011 412.413 55.636C413.396 51.7088 415.573 48.0807 418.719 45.127C421.656 42.5023 419.889 35.378 416.157 29.5205C416.157 29.5205 420.158 26.6121 413.712 23.8151C407.265 21.0181 404.89 25.6696 399.297 22.9537C393.705 20.2378 401.169 19.3358 395.892 27.8079C390.616 36.28 387.702 30.1185 386.919 33.8883C386.135 37.6582 382.051 44.2048 386.275 51.8357Z" fill="black"/>
<path d="M386.919 35.6412C386.393 35.4892 369.475 30.1891 369.311 27.7873C369.147 25.3856 382.427 29.7533 382.93 29.9256L386.358 34.6177L386.919 35.6412Z" fill="#A93339"/>
<path d="M421.06 41.4485C420.896 41.8843 419.89 44.7725 419.457 44.7725L418.041 44.7016C416.723 44.607 415.413 44.4753 414.11 44.3063C412.671 44.1138 411.255 43.8706 409.863 43.5868H409.805C408.389 43.2929 406.997 42.9687 405.639 42.5734C402.308 41.7022 399.038 40.6634 395.847 39.4623C394.045 38.7833 392.454 38.1246 391.167 37.5571C388.534 36.4221 386.966 35.6215 386.966 35.6215L386.732 35.287L385.773 33.9798L383.725 31.1726L383.023 30.2302V30.1592C382.99 30.0737 382.99 29.9812 383.023 29.8957C383.093 28.8215 385.632 25.8421 386.089 25.3354C387.968 23.1599 390.361 21.3565 393.109 20.0454C396.876 18.2416 401.123 19.032 405.125 19.6401C406.448 19.8781 407.739 20.2383 408.974 20.7143L409.758 21.0082L409.91 21.069C410.05 21.1399 410.202 21.1906 410.343 21.2514L410.6 21.3629C413.573 22.5689 416.278 24.2189 418.591 26.2373C423.856 31.355 421.715 39.7967 421.06 41.4485Z" fill="#A93339"/>
<path d="M415.338 75.0529C415.338 75.0529 414.495 69.9859 412.658 68.9725C410.822 67.9591 392.57 68.1111 389.726 69.844C386.883 71.5769 387.386 77.2419 387.386 77.2419L415.338 75.0529Z" fill="#A93339"/>
<path d="M382.941 43.8298C382.941 43.8298 386.053 40.3437 389.388 42.5022C392.722 44.6608 390.078 49.7785 386.159 51.2175C386.159 51.2175 381.093 52.6464 380.437 48.1773C379.782 43.7082 382.941 43.8298 382.941 43.8298Z" fill="#B55B52"/>
<path d="M370.457 165.154C370.457 165.154 363.495 222.848 361.553 249.379C359.611 275.909 366.748 343.757 366.748 343.757H383.678C383.678 343.757 385.62 276.355 388.545 256.138C391.47 235.921 401.181 208.508 401.181 208.508C401.181 208.508 407.031 251.892 412.881 269.586C418.731 287.28 437.732 341.335 437.732 341.335L457.224 338.092C457.224 338.092 433.824 268.745 433.824 247.261C433.824 225.776 434.046 182.403 428.22 165.175L370.457 165.154Z" fill="#A93339"/>
<path opacity="0.3" d="M457.189 338.112L437.708 341.365C437.708 341.365 418.719 287.31 412.869 269.616C409.652 259.888 406.446 242.366 404.211 228.573C402.339 217.314 401.169 208.538 401.169 208.538C401.169 208.538 391.446 235.9 388.521 256.168C385.596 276.436 383.666 343.787 383.666 343.787H366.748C366.748 343.787 359.611 275.95 361.553 249.419C363.495 222.888 370.457 165.185 370.457 165.185H428.161C434.011 182.413 433.777 225.837 433.777 247.271C433.777 268.704 457.189 338.112 457.189 338.112Z" fill="#EBEBEB"/>
<path opacity="0.3" d="M404.2 228.574C402.34 217.315 401.17 208.539 401.17 208.539L402.34 192.79L404.2 228.574Z" fill="#EBEBEB"/>
<path d="M364.912 340.94H385.2L384.205 348.176H365.708L364.912 340.94Z" fill="black"/>
<path d="M435.264 339.886L457.202 332.822L459.975 343.098L438.564 348.175L435.264 339.886Z" fill="black"/>
<path opacity="0.2" d="M453.246 340.544L443.348 343.189L444.857 348.692L456.218 346.321L453.246 340.544Z" fill="#EBEBEB"/>
<path opacity="0.2" d="M382.789 351.084H369.919L369.568 343.848L369.65 343.463L382.731 344.588C382.731 344.588 382.766 347.588 382.789 351.084Z" fill="#EBEBEB"/>
<path d="M363.73 364.654C363.812 364.846 355.633 360.722 357.88 358.796C360.126 356.871 363.73 364.654 363.73 364.654Z" stroke="#A93339" stroke-miterlimit="10"/>
<path d="M364.899 364.359C364.841 364.562 360.336 357.357 363.402 356.718C366.467 356.08 364.899 364.359 364.899 364.359Z" stroke="#A93339" stroke-miterlimit="10"/>
<path d="M445.735 360.275C445.735 360.275 443.056 352.807 440.458 354.033C437.861 355.259 445.735 360.275 445.735 360.275Z" stroke="#A93339" stroke-miterlimit="10"/>
<path d="M445.01 360.924C445.01 360.924 438.961 355.138 437.194 357.164C435.427 359.191 445.01 360.924 445.01 360.924Z" stroke="#A93339" stroke-miterlimit="10"/>
<path d="M461.717 358.715H447.186C447.186 358.715 438.785 363.093 435.1 363.498C431.414 363.904 429.25 364.096 429.355 366.386C429.461 368.677 431.695 368.879 439.242 368.778C446.788 368.677 461.764 369.477 463.391 368.18C465.017 366.883 463.987 364.441 461.717 358.715Z" fill="black"/>
<path d="M383.035 360.276L368.995 360.367C368.995 360.367 360.594 364.745 356.92 365.15C353.247 365.556 351.07 365.748 351.164 368.038C351.258 370.329 353.504 370.531 361.062 370.43C368.62 370.329 381.947 371.271 383.573 369.974C385.199 368.677 384.298 366.549 383.035 360.276Z" fill="black"/>
<path opacity="0.3" d="M382.93 29.9259C383.292 31.5372 383.667 32.7736 386.744 35.5807C382.836 34.3241 369.451 29.8448 369.311 27.7876C369.17 25.7304 379.56 28.8213 382.93 29.9259Z" fill="#EBEBEB"/>
<path opacity="0.3" d="M382.93 30.1791C382.895 30.0936 382.895 30.0011 382.93 29.9156C382.93 29.9156 382.93 30.0271 382.93 30.2399V30.1791Z" fill="#EBEBEB"/>
<path opacity="0.3" d="M386.923 35.6439L386.557 35.5209C386.576 35.478 386.599 35.4368 386.628 35.398L386.923 35.6439Z" fill="#EBEBEB"/>
<path d="M421.06 41.4485C420.896 41.8843 419.89 44.7725 419.457 44.7725L418.041 44.7016C416.723 44.607 415.413 44.4753 414.11 44.3063C412.671 44.1138 411.255 43.8706 409.863 43.5868H409.805C408.389 43.2929 406.997 42.9687 405.639 42.5734C402.308 41.7022 399.038 40.6634 395.847 39.4623C394.045 38.7833 392.454 38.1246 391.167 37.5571C388.534 36.4221 386.966 35.6215 386.966 35.6215L386.732 35.287L385.773 33.9798L383.725 31.1726L383.023 30.2302V30.1592C382.99 30.0737 382.99 29.9812 383.023 29.8957C383.093 28.8215 385.632 25.8421 386.089 25.3354C387.968 23.1599 390.361 21.3565 393.109 20.0454C396.876 18.2416 401.123 19.032 405.125 19.6401C406.448 19.8781 407.739 20.2383 408.974 20.7143L409.758 21.0082L409.91 21.069C410.05 21.1399 410.202 21.1906 410.343 21.2514L410.6 21.3629C413.573 22.5689 416.278 24.2189 418.591 26.2373C423.856 31.355 421.715 39.7967 421.06 41.4485Z" fill="#A93339"/>
<path opacity="0.2" d="M398.045 61.7566C396.8 62.879 395.487 63.9446 394.114 64.9488C394.114 63.6516 393.927 62.7294 393.927 62.7294C395.338 62.5433 396.72 62.2168 398.045 61.7566Z" fill="#EBEBEB"/>
<path d="M370.457 165.722V113.815L359.518 109.954C359.518 109.954 361.612 82.258 377.185 77.8902C392.757 73.5224 420.475 71.6882 428.103 77.8902C432.923 81.8324 433.567 88.156 433.742 93.5777C434.117 104.624 430.782 115.427 430.045 126.412C429.46 135.35 429.109 144.289 428.875 153.237C428.875 153.926 428.571 165.722 428.548 165.722H370.457Z" fill="black"/>
<path d="M376.448 115.589C376.448 115.589 368.352 138.755 360.349 140.205C352.346 141.654 325.015 128.733 325.015 128.733H312.812L311.08 119.44C311.08 119.44 322.441 115.792 330.011 120.159C330.011 120.159 347.69 126.838 353.575 128.783L362.104 110.907L376.448 115.589Z" fill="#B55B52"/>
</svg>
